<?xml version="1.0" encoding="UTF-8" standalone="no"?>
<!DOCTYPE svg  PUBLIC '-//W3C//DTD SVG 1.1//EN'  'http://www.w3.org/Graphics/SVG/1.1/DTD/svg11.dtd'>
<svg xmlns="http://www.w3.org/2000/svg">
<defs>
<font id="Heuristica-BoldItalic" horiz-adv-x="560">
<font-face slope="-13" underline-position="-100" font-weight="700" descent="-200" panose-1="2 2 7 3 6 7 5 2 2 4" units-per-em="1000" unicode-range="U+0020-2212" bbox="-141 -250 1297 916" x-height="490" underline-thickness="50" font-family="Heuristica" ascent="800" font-style="italic" cap-height="692"/>
<missing-glyph horiz-adv-x="1000"/>
<glyph glyph-name=".notdef" horiz-adv-x="1000"/>
<glyph glyph-name=".notdef" horiz-adv-x="1000"/>
<glyph glyph-name=".null" horiz-adv-x="0"/>
<glyph glyph-name="nonmarkingreturn" horiz-adv-x="333"/>
<glyph glyph-name="space" horiz-adv-x="210" unicode=" "/>
<glyph glyph-name="exclam" horiz-adv-x="285" unicode="!" d="M70 67q0 45 27.5 72t68.5 27t62.5 -22.5t21.5 -55.5q0 -45 -27 -72.5t-66 -27.5q-43 0 -65 22.5t-22 56.5zM160 217l36 386q6 57 25.5 80.5t77.5 23.5q72 0 72 -42q0 -20 -15 -62l-141 -386h-55z"/>
<glyph glyph-name="quotedbl" horiz-adv-x="455" unicode='&quot;' d="M380 407l8 223q1 40 19.5 58.5t63.5 18.5q61 0 61 -36q0 -14 -11 -41l-95 -223h-46zM177 407l8 223q1 40 19.5 58.5t63.5 18.5q61 0 61 -36q0 -14 -11 -41l-95 -223h-46z"/>
<glyph glyph-name="numbersign" d="M281 291h112l38 107h-112zM72 219l26 72h106l38 107h-107l26 72h106l70 198h76l-69 -198h112l70 198h75l-69 -198h109l-26 -72h-108l-38 -107h109l-26 -72h-108l-77 -219h-76l77 219h-112l-77 -219h-77l77 219h-107z" unicode="#"/>
<glyph glyph-name="dollar" d="M314 46q2 0 6 -0.5t6 -0.5q45 0 79.5 28.5t34.5 84.5q0 75 -76 109zM281 522q0 -59 66 -91l44 191q-42 0 -75.5 -27.5t-34.5 -72.5zM140 190q34 0 44 -33q31 -106 76 -108l55 242q-157 71 -157 179v3q1 88 68.5 141.5t175.5 53.5l19 80h54l-19 -82q62 -4 114.5 -35 t52.5 -79v-1q-1 -21 -22.5 -36.5t-48.5 -15.5q-28 0 -39 35q-25 79 -68 85l-49 -214q84 -36 128.5 -81.5t44.5 -121.5v-4q0 -36 -14 -69t-42.5 -63t-81.5 -48t-123 -18h-3l-23 -104h-55l23 106q-79 4 -131 38t-52 79q0 32 22 51.5t51 19.5z" unicode="$"/>
<glyph glyph-name="percent" horiz-adv-x="896" unicode="%" d="M640 97q0 -69 46 -69q28 0 49.5 28t31.5 68t15 72t5 52q0 72 -44 72q-28 0 -49.5 -29t-32.5 -70t-16 -73.5t-5 -50.5zM531 127q0 39 16.5 90t55.5 89q55 54 144 54q149 0 149 -141q0 -73 -37 -137q-55 -94 -182 -94q-78 0 -112 39t-34 100zM250 417q0 -69 45 -69 q29 0 50 28t31.5 68t15 72t4.5 52q0 72 -43 72q-28 0 -49.5 -29t-32.5 -70t-16 -73.5t-5 -50.5zM141 447q0 39 16.5 90t55.5 89q55 54 144 54q57 0 110 -33q23 -14 78 -14h122q59 0 97 44l21 25l43 -36l-573 -697l-41 38l478 581h-193q6 -32 6 -49q0 -73 -38 -137 q-55 -94 -180 -94q-78 0 -112 39t-34 100z"/>
<glyph glyph-name="ampersand" horiz-adv-x="752" unicode="&amp;" d="M367 520q0 -52 34 -106q40 17 68 58.5t28 95.5q0 28 -14.5 47t-37.5 19q-32 0 -55 -31t-23 -83zM236 199q0 -63 41.5 -102.5t104.5 -39.5q27 0 56 9.5t43 22.5q-108 90 -188 239q-18 -12 -37.5 -45.5t-19.5 -83.5zM97 171q0 36 13 67.5t28 50t44.5 38t44 26.5t44.5 21 q-27 54 -27 106q0 89 56.5 144.5t138.5 55.5q71 0 117.5 -37.5t46.5 -99.5q0 -37 -15 -65.5t-44.5 -48.5t-55.5 -31.5t-65 -24.5q66 -108 152 -200q59 70 73 244q38 28 96 28q12 0 17 -1q11 -20 11 -46q0 -37 -17 -68q-61 -115 -147 -192q79 -84 143 -112l-5 -33l-27 1 q-126 4 -201 63q-38 -33 -95.5 -51t-113.5 -18q-100 0 -156 53t-56 130z"/>
<glyph glyph-name="quotesingle" horiz-adv-x="246" unicode="&apos;" d="M169 376l11 254q2 41 19 59t62 18q60 0 60 -36q0 -13 -10 -41l-96 -254h-46z"/>
<glyph glyph-name="parenleft" horiz-adv-x="350" unicode="(" d="M128 37q-6 37 -6 77q0 84 23 187q38 164 91 253q92 145 225 145h12l-1 -34q-38 -7 -72.5 -39.5t-59 -75t-45 -96.5t-32 -94.5t-19.5 -77.5q-23 -98 -23 -198q0 -160 71 -185l-12 -34q-126 14 -152 172z"/>
<glyph glyph-name="parenright" horiz-adv-x="350" unicode=")" d="M3 -135l1 34q38 7 72.5 39.5t59 75t45 96.5t32 94.5t19.5 77.5q23 98 23 198q0 160 -71 185l12 34q126 -14 152 -172q6 -37 6 -77q0 -84 -23 -187q-38 -164 -91 -253q-92 -145 -225 -145h-12z"/>
<glyph glyph-name="asterisk" horiz-adv-x="500" unicode="*" d="M164 413q-8 16 -8 29q0 27 27 33l116 28q18 5 18 14t-19 15l-79 21q-24 7 -24 32q0 17 11 33q19 25 42 25q12 0 22 -10l55 -64q9 -9 15 -9q12 0 12 19v6l-8 80q-2 21 11.5 31.5t42.5 10.5q47 0 47 -27q0 -9 -5 -18l-45 -82q-4 -10 -4 -12q0 -11 10 -11q7 0 18 9l75 65 q12 9 24 9q23 0 37 -26q8 -13 8 -30q0 -28 -26 -34l-112 -22q-22 -5 -22 -16q0 -7 14 -12l81 -25q26 -7 26 -31q0 -20 -15 -39q-14 -20 -32 -20q-16 0 -32 19l-52 62q-6 8 -12 8q-14 0 -12 -27l7 -90v-6q0 -36 -49 -36q-51 0 -51 31q0 10 6 20l45 86q4 10 4 12q0 10 -10 10 q-7 0 -18 -9l-69 -67q-16 -15 -31 -15q-24 0 -39 30z"/>
<glyph glyph-name="plus" horiz-adv-x="600" unicode="+" d="M118 210v80h194v200h96v-200h194v-80h-194v-210h-96v210h-194z"/>
<glyph glyph-name="comma" horiz-adv-x="280" unicode="," d="M26 -138q79 77 79 139q0 23 -12 49q-13 28 -13 49q0 34 23.5 57.5t58.5 23.5h2q38 0 58 -25.5t20 -63.5q0 -39 -17.5 -77.5t-49 -72.5t-59 -57.5t-64.5 -50.5z"/>
<glyph glyph-name="hyphen" horiz-adv-x="392" unicode="-" d="M106 203l20 95h263l-20 -95h-263z"/>
<glyph glyph-name="period" horiz-adv-x="280" unicode="." d="M67 67q0 45 27.5 72t68.5 27t62.5 -22.5t21.5 -55.5q0 -45 -27 -72.5t-66 -27.5q-43 0 -65 22.5t-22 56.5z"/>
<glyph glyph-name="slash" horiz-adv-x="260" unicode="/" d="M19 -15l286 722h100l-286 -722h-100z"/>
<glyph glyph-name="zero" d="M232 133q0 -48 17.5 -73.5t47.5 -25.5q43 0 74 57t59 160q23 80 35.5 162.5t12.5 124.5q0 96 -61 96q-65 0 -121 -160q-64 -184 -64 -341zM92 218q0 146 57 270q90 192 258 192q65 0 109.5 -22t65 -58.5t28.5 -70.5t8 -73q0 -136 -53 -263q-42 -98 -101.5 -151.5 t-157.5 -53.5q-113 0 -163.5 66t-50.5 164z" unicode="0"/>
<glyph glyph-name="one" d="M107 0l8 38l72 5q18 2 27.5 9.5t13.5 28.5l106 475q2 8 2 20q0 17 -18 20l-76 13l8 33l247 38l8 -7l-131 -592q-2 -12 -2 -14q0 -22 30 -24l73 -5l-8 -38h-360z" unicode="1"/>
<glyph glyph-name="two" d="M39 16q13 70 69 129t160 132q91 63 140 130t49 148q0 79 -61 79q-33 0 -59 -30.5t-53 -94.5q-10 -25 -21.5 -37.5t-33.5 -12.5q-28 0 -50.5 19.5t-22.5 51.5q0 58 65.5 104t169.5 46q107 0 164.5 -46.5t57.5 -129.5q0 -80 -51 -134t-151 -96q-59 -24 -127.5 -71.5 t-78.5 -86.5h234q33 0 48.5 10.5t38.5 46.5l40 -4l-60 -169h-454z" unicode="2"/>
<glyph glyph-name="three" d="M56 121q0 32 25 53t52 21q36 0 49 -46q18 -64 42.5 -89.5t61.5 -25.5q48 0 82 49t34 133q0 119 -79 119q-26 0 -59.5 -7t-39.5 -7q-25 0 -25 31q0 20 8.5 35.5t22.5 15.5q8 0 40.5 -7.5t56.5 -7.5q54 0 89 52.5t35 117.5q0 34 -17 55t-46 21q-32 0 -57.5 -26.5 t-50.5 -82.5q-8 -18 -18 -27.5t-29 -9.5q-28 0 -49.5 17.5t-22.5 44.5v2q0 45 60 86.5t162 41.5q105 0 162 -44t57 -119q0 -66 -47 -104t-128 -46v-4q67 -17 101 -60.5t34 -102.5q0 -105 -85 -163q-71 -49 -189 -49q-109 0 -170.5 40t-61.5 93z" unicode="3"/>
<glyph glyph-name="four" d="M175 239h180l71 304h-2q-130 -145 -249 -304zM63 205q201 259 411 463h118l-95 -429h93l-15 -65h-92l-23 -102q-1 -4 -1 -11q0 -17 20 -19l48 -4l-9 -38h-306l9 38l65 5q26 2 33 29l22 102h-264z" unicode="4"/>
<glyph glyph-name="five" d="M58 121q0 31 25 52.5t56 21.5q20 0 29.5 -12t16.5 -37q18 -63 41 -87.5t59 -24.5q49 0 85 56.5t36 151.5q0 57 -27 91.5t-76 34.5q-67 0 -121 -64l-36 25l67 328l15 11h393l7 -12l-61 -104h-275q-17 0 -24 -5.5t-14 -25.5l-45 -139l2 -2q74 51 153 51q100 0 150.5 -52.5 t50.5 -140.5q0 -120 -81 -185t-202 -65q-108 0 -166 40t-58 93z" unicode="5"/>
<glyph glyph-name="six" d="M236 162q0 -57 20.5 -92.5t63.5 -35.5q50 0 82 61.5t32 150.5q0 51 -22.5 79t-60.5 28q-52 0 -87 -53q-28 -43 -28 -138zM91 222q0 110 39.5 220t109.5 170q78 68 189 68q94 0 143 -41.5t49 -80.5q0 -32 -23 -48.5t-50 -16.5q-35 0 -42 41q-20 100 -80 100 q-48 0 -93.5 -77t-73.5 -197h2q26 30 65.5 50t74.5 20q90 0 138 -51.5t48 -139.5q0 -106 -71 -178.5t-193 -72.5q-124 0 -178 65.5t-54 168.5z" unicode="6"/>
<glyph glyph-name="seven" d="M147 507l58 161h452l10 -12q-16 -59 -66.5 -128.5t-138.5 -169.5q-56 -63 -85.5 -137t-42.5 -174q-7 -59 -77 -59q-81 0 -81 59q0 29 13.5 62.5t28.5 58t51 66.5t54.5 61.5t66.5 68.5q52 53 90.5 109t46.5 79h-252q-34 0 -51.5 -9t-29.5 -28l-12 -19z" unicode="7"/>
<glyph glyph-name="eight" d="M310 459q0 -80 61 -80q42 0 72 54t30 134q0 26 -14 46.5t-44 20.5q-48 0 -76.5 -56t-28.5 -119zM227 133q0 -46 20.5 -72.5t57.5 -26.5q52 0 85.5 59t33.5 143q0 97 -76 97q-47 0 -84 -57.5t-37 -142.5zM72 171q0 78 51 133.5t131 61.5v3q-36 10 -63 42t-27 82 q0 79 56 130q62 57 183 57q116 0 166 -46.5t50 -113.5q0 -70 -43.5 -108t-105.5 -49v-4q47 -13 78 -52t31 -96q0 -100 -65 -159q-72 -64 -205 -64q-120 0 -178.5 52t-58.5 131z" unicode="8"/>
<glyph glyph-name="nine" d="M276 438q0 -48 23 -79t64 -31q50 0 79 49q25 42 25 144q0 53 -18.5 85t-57.5 32q-49 0 -82 -59.5t-33 -140.5zM83 114q0 28 23 47.5t53 19.5q33 0 46 -48q13 -53 32.5 -75t48.5 -22q63 0 113 118q11 25 20 56.5t18 67.5t11 43l-2 1q-61 -66 -136 -66q-76 0 -128 48 t-52 126q0 107 66 176q74 74 185 74q224 0 224 -246q0 -66 -17.5 -146t-52.5 -149q-38 -75 -95 -113t-150 -38q-91 0 -149 38.5t-58 87.5z" unicode="9"/>
<glyph glyph-name="colon" horiz-adv-x="280" unicode=":" d="M135 391q0 45 27.5 72t68.5 27t62.5 -22.5t21.5 -55.5q0 -45 -27 -72.5t-66 -27.5q-43 0 -65 22.5t-22 56.5zM67 67q0 45 27.5 72t68.5 27t62.5 -22.5t21.5 -55.5q0 -45 -27 -72.5t-66 -27.5q-43 0 -65 22.5t-22 56.5z"/>
<glyph glyph-name="semicolon" horiz-adv-x="280" unicode=";" d="M26 -138q79 77 79 139q0 23 -12 49q-13 28 -13 49q0 34 23.5 57.5t58.5 23.5h2q38 0 58 -25.5t20 -63.5q0 -39 -17.5 -77.5t-49 -72.5t-59 -57.5t-64.5 -50.5zM135 391q0 45 27.5 72t68.5 27t62.5 -22.5t21.5 -55.5q0 -45 -27 -72.5t-66 -27.5q-43 0 -65 22.5t-22 56.5z "/>
<glyph glyph-name="less" horiz-adv-x="600" unicode="&lt;" d="M101 209v82l478 204v-91l-381 -154l381 -154v-91z"/>
<glyph glyph-name="equal" horiz-adv-x="600" unicode="=" d="M118 317v80h484v-80h-484zM118 103v80h484v-80h-484z"/>
<glyph glyph-name="greater" horiz-adv-x="600" unicode="&gt;" d="M121 5v91l381 154l-381 154v91l478 -204v-82z"/>
<glyph glyph-name="question" horiz-adv-x="454" unicode="?" d="M150 67q0 45 27.5 72t68.5 27t62.5 -22.5t21.5 -55.5q0 -45 -27 -72.5t-66 -27.5q-43 0 -65 22.5t-22 56.5zM153 585q0 44 53 83t149 39q97 0 146 -35.5t49 -98.5q0 -54 -36.5 -88.5t-101.5 -59.5q-106 -40 -106 -96q0 -21 15.5 -33t33.5 -14t24 -2q7 0 19 2l7 -29 q-52 -35 -127 -35q-51 0 -83.5 26t-32.5 69q0 67 107 124q132 71 132 178q0 46 -34 46q-43 0 -89 -105q-15 -34 -49 -34q-27 0 -51.5 16t-24.5 47z"/>
<glyph glyph-name="at" horiz-adv-x="828" unicode="@" d="M426 253q0 -40 23 -40q26 0 65 65t58 122l36 98q-12 9 -29 9q-40 0 -77 -51t-56.5 -109t-19.5 -94zM125 307q0 121 60.5 213.5t156.5 139.5t210 47q147 0 236 -84.5t89 -208.5q0 -44 -14.5 -87.5t-42 -81t-73.5 -61t-103 -23.5q-89 0 -89 67q0 9 4 27l12 54l-3 2 q-71 -150 -184 -150q-38 0 -59 25t-21 65q0 33 14.5 78.5t43 95.5t84 84.5t125.5 34.5q27 0 47 -10l3 6h110q-48 -173 -72 -281q-2 -12 -2 -17q0 -29 33 -29q48 0 80 67.5t32 128.5q0 113 -73.5 175.5t-184.5 62.5q-129 0 -219.5 -101.5t-90.5 -238.5q0 -45 14 -88.5 t43.5 -85.5t86 -68t132.5 -26q100 0 182 35l11 -35q-37 -26 -97 -40t-111 -14q-160 0 -265 82.5t-105 239.5z"/>
<glyph glyph-name="A" horiz-adv-x="634" unicode="A" d="M260 294h169l-24 261h-2q-11 -18 -70 -126t-73 -135zM-24 0l7 38l27 3q23 2 36.5 11.5t28.5 34.5q38 63 151 262l194 343h118l34 -317q4 -37 15 -144.5t15 -144.5q3 -24 9 -34t22 -11l41 -3l-8 -38h-300l8 38l52 4q23 1 23 28v9l-15 167h-200q-18 -33 -47 -90.5 t-39 -76.5q-6 -12 -6 -21q0 -15 19 -16l56 -4l-7 -38h-234z"/>
<glyph glyph-name="B" horiz-adv-x="680" unicode="B" d="M357 389h44q75 0 121.5 41.5t46.5 113.5q0 102 -108 102q-32 0 -40.5 -6.5t-14.5 -30.5zM295 111q-3 -15 -3 -26q0 -20 13 -29.5t46 -9.5q84 0 126.5 49t42.5 125q0 59 -34 91t-98 32h-41zM40 0l9 38l45 4q20 1 28.5 13.5t15.5 42.5l111 496q5 22 5 32q0 22 -24 23l-51 5 l10 38h267h10q147 0 204 -45q54 -41 54 -114q0 -66 -48 -112t-142 -56v-2q61 -11 106 -52t45 -115q0 -97 -80 -150q-71 -46 -232 -46h-333z"/>
<glyph glyph-name="C" horiz-adv-x="672" unicode="C" d="M111 275q0 143 69 249q120 183 375 183q53 0 117.5 -11.5t104.5 -36.5l-39 -179h-38q-2 181 -143 181q-72 0 -128 -41t-87 -106.5t-46.5 -136.5t-15.5 -142q0 -101 42 -152.5t112 -51.5q40 0 73 13.5t62 44t47.5 56.5t48.5 75h38l-55 -194q-80 -41 -214 -41 q-83 0 -145 22t-95 53t-53 74t-25 75t-5 66z"/>
<glyph glyph-name="D" horiz-adv-x="774" unicode="D" d="M292 97q-2 -12 -2 -15q0 -21 17.5 -28.5t52.5 -7.5q66 0 119.5 31.5t85.5 78t53.5 104.5t29.5 106t8 88t-6 70.5t-23 60t-51.5 45.5t-85.5 16q-48 0 -64 -7.5t-21 -32.5zM40 0l9 38l45 4q20 1 28.5 13.5t15.5 42.5l111 496q5 22 5 32q0 22 -24 23l-51 5l10 38h275 q180 -2 263 -65q92 -70 92 -224q0 -43 -15 -104t-51 -117q-56 -89 -147 -135.5t-245 -46.5h-321z"/>
<glyph glyph-name="E" horiz-adv-x="622" unicode="E" d="M40 0l9 38l45 4q20 1 28.5 13.5t15.5 42.5l111 496q5 22 5 32q0 22 -24 23l-51 5l11 38h532l-40 -185h-38l-5 55q-3 40 -28 62t-86 22h-69q-26 0 -35 -5.5t-14 -27.5l-50 -226h94q46 0 66 17t45 73h38l-50 -228h-38v17q0 39 -15 56t-57 17h-94l-53 -236q-3 -12 -3 -21 q0 -13 5.5 -20.5t21.5 -11t32.5 -4t51.5 -0.5q62 0 101.5 22.5t76.5 85.5l32 54h38l-59 -208h-550z"/>
<glyph glyph-name="F" horiz-adv-x="585" unicode="F" d="M40 0l9 38l45 4q20 1 28.5 13.5t15.5 42.5l111 496q5 22 5 32q0 22 -24 23l-51 5l10 38h529l-40 -183h-38l-5 53q-3 42 -27.5 63t-86.5 21h-74q-19 0 -27 -6t-12 -23l-55 -249h113q46 0 66.5 17.5t45.5 73.5h38l-50 -230h-38v17q0 40 -15 57t-57 17h-115l-51 -225 q-3 -15 -3 -24q0 -26 32 -29l55 -4l-8 -38h-326z"/>
<glyph glyph-name="G" horiz-adv-x="726" unicode="G" d="M111 284q0 154 92 274q51 68 139.5 108.5t208.5 40.5q148 0 224 -52l-35 -175h-38q-16 181 -153 181q-69 0 -123 -40.5t-84.5 -104.5t-46 -134.5t-15.5 -140.5q0 -104 37.5 -157t119.5 -53q44 0 59 10.5t22 40.5l33 134q4 15 4 28q0 26 -20 27l-64 5l8 38h312l-9 -38 l-41 -6q-16 -2 -22.5 -13t-13.5 -41l-42 -178q-93 -53 -236 -53q-149 0 -232.5 73t-83.5 226z"/>
<glyph glyph-name="H" horiz-adv-x="800" unicode="H" d="M40 0l9 38l45 4q20 1 28.5 13.5t15.5 42.5l111 496q5 22 5 32q0 22 -24 23l-51 5l10 38h312l-10 -38l-44 -4q-20 -1 -28.5 -13.5t-15.5 -42.5l-46 -207h260l46 207q5 22 5 32q0 22 -24 23l-51 5l10 38h312l-10 -38l-44 -4q-20 -1 -28.5 -13.5t-15.5 -42.5l-111 -496 q-5 -22 -5 -32q0 -21 24 -24l50 -4l-9 -38h-312l9 38l45 4q20 1 28.5 13.5t15.5 42.5l54 241h-260l-54 -241q-5 -22 -5 -32q0 -21 24 -24l50 -4l-9 -38h-312z"/>
<glyph glyph-name="I" horiz-adv-x="386" unicode="I" d="M40 0l9 38l45 4q20 1 28.5 13.5t15.5 42.5l111 496q5 22 5 32q0 22 -24 23l-51 5l10 38h312l-10 -38l-44 -4q-20 -1 -28.5 -13.5t-15.5 -42.5l-111 -496q-5 -22 -5 -32q0 -21 24 -24l50 -4l-9 -38h-312z"/>
<glyph glyph-name="J" horiz-adv-x="388" unicode="J" d="M-15 -79q67 11 99 48q46 52 77 189l99 436q5 22 5 32q0 22 -24 23l-51 5l10 38h312l-10 -38l-44 -4q-20 -1 -28.5 -13.5t-15.5 -42.5l-111 -488q-26 -112 -79 -160q-66 -60 -196 -60h-16q-17 0 -25 2z"/>
<glyph glyph-name="K" horiz-adv-x="688" unicode="K" d="M40 0l9 38l45 4q20 1 28.5 13.5t15.5 42.5l111 496q5 22 5 32q0 22 -24 23l-51 5l10 38h312l-10 -38l-44 -4q-20 -1 -28.5 -13.5t-15.5 -42.5l-52 -232l2 -2l125 121q31 29 76 75t58 58q18 18 18 25q0 9 -23 12l-25 3l7 38h269l-7 -38q-50 -5 -71.5 -11t-54.5 -29 q-85 -57 -211 -175l-40 -36l11 -26q26 -65 68.5 -146t82.5 -135q35 -49 71 -62l12 -4l-6 -36l-42 1q-100 2 -145 28t-81 92q-52 93 -98 221h-2l-53 -238q-5 -22 -5 -32q0 -21 24 -24l50 -4l-9 -38h-312z"/>
<glyph glyph-name="L" horiz-adv-x="586" unicode="L" d="M40 0l9 38l45 4q20 2 28.5 14t15.5 42l111 496q5 22 5 32q0 23 -24 24l-51 4l10 38h312l-10 -38l-44 -4q-20 -2 -28.5 -14t-15.5 -42l-110 -493q-2 -7 -2 -18q0 -23 20.5 -30t72.5 -7q57 0 96.5 23t77.5 84l30 48h38l-58 -201h-528z"/>
<glyph glyph-name="M" horiz-adv-x="921" unicode="M" d="M35 0l7 38l37 3q35 3 49 50q17 57 35 148l76 355q5 22 5 32q0 22 -24 23l-51 5l10 38h243q12 -77 40 -231l45 -255h3l145 255q95 167 127 231h251l-10 -38l-44 -4q-20 -1 -28.5 -13.5t-15.5 -42.5l-110 -496q-5 -22 -5 -32q0 -21 24 -24l50 -4l-9 -38h-302l9 38l44 4 q20 1 28.5 13.5t15.5 42.5l109 487h-3l-328 -573h-65l-94 573h-3l-72 -346q-22 -102 -26 -148q0 -2 -0.5 -6t-0.5 -5q0 -36 36 -39l53 -3l-8 -38h-243z"/>
<glyph glyph-name="N" horiz-adv-x="741" unicode="N" d="M30 0l8 38l37 3q35 3 50 50q15 46 38 148l78 355q5 22 5 32q0 22 -24 23l-50 5l10 38h222q90 -219 213 -509h3l59 270q25 117 28 148q0 2 0.5 6t0.5 6q0 35 -35 38l-54 3l8 38h246l-8 -38l-37 -3q-35 -3 -50 -50q-15 -46 -38 -148l-100 -453h-104q-117 280 -237 561h-4 l-72 -322q-23 -114 -27 -148q0 -2 -0.5 -6t-0.5 -5q0 -36 35 -39l54 -3l-8 -38h-246z"/>
<glyph glyph-name="O" horiz-adv-x="761" unicode="O" d="M278 190q0 -159 125 -159q70 0 125.5 79.5t82.5 186.5t27 209q0 155 -116 155q-58 0 -107 -50.5t-77.5 -126t-44 -153t-15.5 -141.5zM113 264q0 134 57 244q104 199 337 199q134 0 215 -71.5t81 -216.5q0 -130 -59 -243q-99 -191 -324 -191q-148 0 -227.5 75t-79.5 204z "/>
<glyph glyph-name="P" horiz-adv-x="660" unicode="P" d="M348 343q-2 -10 -2 -13q0 -20 45 -20q84 0 131.5 68t47.5 153q0 115 -106 115q-31 0 -41 -7.5t-16 -30.5zM40 0l9 38l45 4q20 1 28.5 13.5t15.5 42.5l112 496q5 22 5 32q0 22 -24 23l-51 5l10 38h252q140 0 205 -38q82 -48 82 -154q0 -111 -87 -175q-82 -61 -249 -61h-63 l-38 -166q-5 -20 -5 -30q0 -24 26 -25l65 -5l-8 -38h-330z"/>
<glyph glyph-name="Q" horiz-adv-x="761" unicode="Q" d="M278 190q0 -159 125 -159q70 0 125.5 79.5t82.5 186.5t27 209q0 155 -116 155q-58 0 -107 -50.5t-77.5 -126t-44 -153t-15.5 -141.5zM113 264q0 134 57 244q104 199 337 199q134 0 215 -71.5t81 -216.5q0 -130 -59 -243q-78 -150 -229 -180q19 -37 54 -75q66 -71 117 -71 h12l5 -24q-35 -19 -93 -19q-102 0 -172.5 57t-95.5 128q-111 18 -170 89.5t-59 182.5z"/>
<glyph glyph-name="R" horiz-adv-x="681" unicode="R" d="M351 363h63q63 0 110.5 49t47.5 131q0 103 -104 103q-34 0 -45 -7.5t-16 -28.5zM40 0l9 38l45 4q20 1 28.5 13.5t15.5 42.5l111 496q5 22 5 32q0 22 -24 23l-51 5l10 38h282q130 0 190 -35q70 -42 70 -130q0 -77 -58.5 -127.5t-153.5 -56.5v-2q62 -15 82.5 -48t20.5 -90 q0 -5 -0.5 -14.5t-0.5 -14.5q0 -4 -0.5 -11t-0.5 -10q0 -52 20 -87q14 -23 61 -28l-9 -38h-96q-105 0 -121 83q-5 26 -5 64q0 18 1.5 48.5t1.5 41.5q0 13 -2 27q-6 29 -21 41t-51 12h-58l-49 -219q-5 -22 -5 -32q0 -21 24 -24l50 -4l-9 -38h-312z"/>
<glyph glyph-name="S" horiz-adv-x="551" unicode="S" d="M66 70l23 177h37q10 -101 60 -158.5t112 -57.5q58 0 89 34t31 86q0 89 -103 148q-77 45 -117.5 90t-40.5 108q0 36 12.5 70t39.5 67t79.5 53t123.5 20q125 0 193 -54l-34 -161h-38q-2 84 -36 126.5t-89 42.5q-52 0 -81.5 -32.5t-29.5 -75.5q0 -40 30 -71t85 -62 q77 -43 114 -93t37 -117q0 -99 -66.5 -161.5t-196.5 -63.5q-67 0 -132.5 21t-101.5 64z"/>
<glyph glyph-name="T" horiz-adv-x="616" unicode="T" d="M126 501l43 191h588l-43 -191h-38l-3 61q-5 84 -93 84h-48l-124 -548q-5 -22 -5 -32q0 -22 24 -23l64 -5l-9 -38h-340l9 38l59 4q20 1 28.5 13.5t15.5 42.5l124 548h-52q-88 0 -131 -84l-31 -61h-38z"/>
<glyph glyph-name="U" horiz-adv-x="776" unicode="U" d="M159 241l79 353q5 22 5 32q0 22 -24 23l-51 5l10 38h312l-10 -38l-44 -4q-20 -1 -28.5 -13.5t-15.5 -42.5l-80 -361q-10 -47 -10 -84q0 -118 105 -118q64 0 103 54t65 173l75 336q5 22 5 32q0 22 -24 23l-51 5l10 38h312l-10 -38l-44 -4q-20 -1 -28.5 -13.5t-15.5 -42.5 l-78 -341q-36 -159 -114 -215q-75 -53 -210 -53q-153 0 -217 70q-35 39 -35 109q0 35 9 77z"/>
<glyph glyph-name="V" horiz-adv-x="630" unicode="V" d="M127 654l7 38h292l-7 -38l-60 -6q-20 -3 -20 -22q0 -2 0.5 -5t0.5 -4l6 -62q6 -62 11.5 -115t6.5 -63l26 -241h2q20 34 123 225q99 188 130 255q5 12 5 18q0 14 -18 16l-56 4l8 38h234l-7 -38l-37 -4q-16 -2 -28 -14t-29 -38q-39 -59 -154 -265l-184 -333h-120l-33 310 q-6 55 -35 294q-3 23 -9.5 33.5t-20.5 12.5z"/>
<glyph glyph-name="W" horiz-adv-x="920" unicode="W" d="M115 654l7 38h288l-7 -38l-55 -5q-20 -2 -20 -27v-7l12 -469h5l231 530h112l31 -530h5q18 38 103 228q60 134 97 231q6 17 6 27q0 16 -18 17l-53 5l7 38h231l-7 -38l-28 -3q-23 -2 -37 -15t-31 -48q-9 -19 -56.5 -115.5t-75.5 -156.5l-149 -316h-123l-28 497h-5 l-222 -497h-123l-22 398q-7 144 -13 212q-2 22 -6 30.5t-16 9.5z"/>
<glyph glyph-name="X" horiz-adv-x="630" unicode="X" d="M-21 0l7 38l35 4q45 5 83 44q78 78 220 248q-5 13 -48.5 120.5t-66.5 159.5q-15 33 -42 36l-43 4l10 38h307l-7 -38l-51 -7q-17 -1 -17 -15q0 -9 4 -18l64 -164h3q121 147 139 170q8 11 8 18q0 11 -13 12l-47 4l9 38h246l-9 -38l-30 -2q-40 -2 -76 -37q-97 -87 -207 -216 q23 -52 65 -157.5t62 -150.5t57 -49l38 -4l-7 -38h-328l8 38l54 6q24 3 24 21q0 7 -2 11l-80 201h-2q-101 -125 -157 -203q-8 -13 -8 -20q0 -10 12 -11l62 -5l-8 -38h-268z"/>
<glyph glyph-name="Y" horiz-adv-x="622" unicode="Y" d="M127 656l8 36h301l-8 -38l-55 -6q-19 -1 -19 -16q0 -3 2 -13l70 -272h2q117 167 178 268q7 11 7 19q0 14 -20 15l-53 5l8 38h252l-7 -38l-29 -3q-18 -2 -31 -8.5t-20.5 -13.5t-24.5 -26q-86 -96 -211 -280q-27 -38 -34 -72l-35 -153q-5 -22 -5 -32q0 -22 24 -23l64 -5 l-9 -38h-339l9 38l59 4q20 1 28.5 13.5t15.5 42.5l32 148q3 17 3 29q0 16 -5 36q-35 144 -83 298q-7 25 -15.5 33.5t-25.5 10.5z"/>
<glyph glyph-name="Z" horiz-adv-x="618" unicode="Z" d="M5 20q283 327 535 626h-141q-69 0 -108.5 -20.5t-63.5 -73.5l-21 -47h-38l39 187h534l8 -19q-252 -290 -538 -627h198q60 0 99.5 23t76.5 85l32 54h38l-59 -208h-584z"/>
<glyph glyph-name="bracketleft" horiz-adv-x="350" unicode="[" d="M91 -128l186 820h186l-8 -34l-62 -7q-20 -2 -27.5 -12.5t-13.5 -34.5l-145 -644q-3 -13 -3 -23q0 -21 23 -24l58 -7l-8 -34h-186z"/>
<glyph glyph-name="backslash" horiz-adv-x="460" unicode="\" d="M149 707h100l211 -722h-100z"/>
<glyph glyph-name="bracketright" horiz-adv-x="350" unicode="]" d="M13 -128l8 34l62 7q20 2 27.5 12.5t13.5 34.5l145 644q3 14 3 23q0 21 -23 24l-58 7l8 34h186l-186 -820h-186z"/>
<glyph glyph-name="asciicircum" horiz-adv-x="600" unicode="^" d="M114 215l197 453h99l192 -453h-104l-138 341l-142 -341h-104z"/>
<glyph glyph-name="underscore" horiz-adv-x="500" unicode="_" d="M0 -75h500v-50h-500v50z"/>
<glyph glyph-name="grave" horiz-adv-x="400" unicode="`" d="M144 680q0 19 17.5 39.5t35.5 20.5q15 0 30.5 -10.5t43.5 -39.5l145 -149l-21 -30l-183 103q-33 18 -50.5 33t-17.5 33z"/>
<glyph glyph-name="a" horiz-adv-x="596" unicode="a" d="M215 115q0 -47 29 -47q41 0 120 126q68 112 103 248q-20 14 -49 14q-40 0 -79 -38.5t-65.5 -93t-42.5 -112t-16 -97.5zM61 108q0 41 13 91t41.5 104t68 98t98.5 72.5t127 28.5q43 0 71 -17l4 9h137l-101 -379q-4 -13 -4 -27q0 -20 15 -20q32 0 87 97l29 -16 q-81 -161 -199 -161q-71 0 -71 69q0 24 9 57l25 88h-6q-21 -36 -35 -58t-40 -55.5t-49 -52.5t-55.5 -33.5t-66.5 -14.5q-50 0 -74 34.5t-24 85.5z"/>
<glyph glyph-name="b" horiz-adv-x="586" unicode="b" d="M243 109q0 -75 59 -75q39 0 73 40t54.5 95.5t32 108t11.5 85.5q0 59 -36 59q-65 0 -140 -138q-23 -44 -38.5 -93.5t-15.5 -81.5zM69 5l141 621q4 16 4 28q0 21 -19 22l-50 7l5 32l223 27l6 -6l-112 -432h5q108 198 243 198q56 0 84 -34.5t28 -92.5q0 -38 -16 -100 t-49 -121q-92 -166 -265 -166q-96 0 -143 56l-37 -44z"/>
<glyph glyph-name="c" horiz-adv-x="456" unicode="c" d="M73 155q0 47 12.5 95.5t38.5 93.5t62 80.5t87.5 56.5t110.5 21q68 0 108.5 -27t40.5 -70q0 -25 -29 -44t-58 -19q-30 0 -41 47q-10 39 -19.5 53t-24.5 14q-47 0 -91 -96t-44 -198q0 -108 71 -108q44 0 79.5 34t71.5 92l30 -21q-86 -171 -244 -171q-72 0 -116.5 40.5 t-44.5 126.5z"/>
<glyph glyph-name="d" horiz-adv-x="609" unicode="d" d="M218 126q0 -58 38 -58q50 0 119 117t99 255q-19 16 -53 16q-55 0 -104 -64t-74 -139.5t-25 -126.5zM64 120q0 38 12 85.5t39.5 100t65.5 96t96 72t126 28.5q51 0 80 -17l2 1l35 149q3 12 3 21q0 18 -18 21l-51 7l7 31l218 27l7 -6l-146 -621q-4 -13 -4 -27q0 -20 16 -20 q15 0 39 29.5t46 68.5l29 -14q-76 -165 -196 -165q-77 0 -77 67q0 22 7 49l30 108l-4 1q-23 -40 -37 -63t-40.5 -58t-50 -54t-57 -34t-70.5 -15q-58 0 -82.5 37.5t-24.5 94.5z"/>
<glyph glyph-name="e" horiz-adv-x="476" unicode="e" d="M226 232q84 17 131 67.5t47 112.5q0 44 -37 44q-44 0 -87 -69t-54 -155zM73 161q0 125 81 227q91 114 230 114q65 0 106.5 -32t41.5 -84q0 -58 -46 -100q-69 -61 -264 -99v-24q0 -46 18.5 -77.5t59.5 -31.5q43 0 80 30t80 92l30 -24q-91 -164 -254 -164q-30 0 -56.5 8 t-51.5 26.5t-40 54t-15 84.5z"/>
<glyph glyph-name="f" horiz-adv-x="348" unicode="f" d="M-94 -168q0 23 18 41t42 18q10 0 18.5 -5.5t11 -9.5t9.5 -16q32 -56 47 -56q13 0 19 27l123 611h-89l14 48h86l7 26q13 48 29.5 84.5t43 70.5t67.5 52.5t93 18.5q63 0 103 -26t40 -62q0 -26 -22 -43t-47 -17q-27 0 -42 30q-20 42 -31.5 57t-23.5 15q-22 0 -36 -60 l-35 -146h128l-12 -48h-125l-97 -414q-33 -139 -83.5 -204.5t-135.5 -65.5q-56 0 -88 20.5t-32 53.5z"/>
<glyph glyph-name="g" horiz-adv-x="522" unicode="g" d="M258 291q0 -31 14.5 -49.5t43.5 -18.5q43 0 71 48q31 54 31 124q-1 33 -18.5 47t-40.5 14q-45 0 -73 -53t-28 -112zM158 -93q1 -49 37.5 -76t88.5 -27q45 0 79.5 22.5t34.5 66.5q0 23 -12 41t-28.5 28.5t-42 19t-42.5 11.5t-40 7q-25 -4 -50 -27.5t-25 -65.5zM21 -105 q0 55 47.5 85t110.5 38v2q-43 13 -67 34.5t-24 45.5q0 43 74 74q13 5 40 15v2q-38 12 -67 44t-29 82q0 31 12.5 61.5t39.5 59.5t78 46.5t119 17.5q81 0 139 -30l144 40l6 -9l-31 -75l-76 -12q17 -25 17 -64q0 -81 -66 -127.5t-173 -47.5q-35 0 -60 2q-32 -11 -32 -32 q1 -16 24 -25.5t98 -27.5q180 -42 180 -164q0 -85 -70.5 -128.5t-194.5 -43.5q-107 0 -172 38t-67 99z"/>
<glyph glyph-name="h" horiz-adv-x="629" unicode="h" d="M79 -12l143 645q3 13 3 22q0 20 -19 21l-58 7l8 32l229 27l5 -5l-107 -442h5q46 88 110.5 147.5t137.5 59.5q43 0 65.5 -23.5t22.5 -65.5q0 -30 -12 -66l-72 -232q-5 -18 -5 -28q0 -19 16 -19t40.5 30t45.5 69l29 -15q-75 -164 -196 -164q-79 0 -79 75q0 20 8 50l74 251 q5 14 5 28q0 30 -25 30q-36 0 -88 -65.5t-82 -143.5q-25 -62 -65 -213z"/>
<glyph glyph-name="i" horiz-adv-x="339" unicode="i" d="M108 107l77 285q3 12 3 20q0 21 -20 22l-58 6l8 33l230 29l6 -6l-103 -381q-5 -17 -5 -28q0 -19 16 -19t40 29.5t46 68.5l30 -17q-80 -161 -200 -161q-77 0 -77 71q0 23 7 48zM225 632q0 35 22.5 61.5t64.5 26.5q35 0 57.5 -19t22.5 -54q0 -41 -23.5 -64.5t-62.5 -23.5 q-36 0 -58.5 20t-22.5 53z"/>
<glyph glyph-name="j" horiz-adv-x="333" unicode="j" d="M-85 -174q0 21 19.5 40.5t40.5 19.5q9 0 17 -6.5t10.5 -10t11.5 -16.5q32 -49 45 -49q11 0 19 34l122 553q3 14 3 22q0 20 -18 21l-64 6l7 33l232 29l7 -5l-115 -502q-34 -146 -91 -196q-49 -41 -120 -41q-61 0 -93.5 19.5t-32.5 48.5zM232 632q0 35 22.5 61.5t64.5 26.5 q35 0 57.5 -19t22.5 -54q0 -41 -23.5 -64.5t-62.5 -23.5q-36 0 -58.5 20t-22.5 53z"/>
<glyph glyph-name="k" horiz-adv-x="570" unicode="k" d="M285 254q17 27 50 64q35 40 59 65t58.5 56.5t65.5 47t59 15.5q29 0 45.5 -17.5t16.5 -41.5q0 -32 -17 -55t-44 -23q-20 0 -45 18q-28 21 -44 21q-27 0 -90 -72q27 -108 69 -215q19 -49 41 -49q23 0 73 85l31 -16q-63 -149 -168 -149q-74 0 -108 91q-29 75 -52 175z M74 -12l148 645q3 13 3 22q0 20 -19 21l-58 7l11 32l224 27l5 -5l-172 -737z"/>
<glyph glyph-name="l" horiz-adv-x="327" unicode="l" d="M104 115l125 518q3 13 3 22q0 20 -19 21l-58 7l7 32l227 27l6 -5l-151 -622q-4 -20 -4 -28q0 -19 15 -19q16 0 41 29.5t46 68.5l31 -18q-79 -160 -197 -160q-79 0 -79 77q0 23 7 50z"/>
<glyph glyph-name="m" horiz-adv-x="914" unicode="m" d="M81 -12l101 403q3 14 3 22q0 20 -18 21l-58 6l7 33l228 29l5 -6l-64 -213h5q50 95 115.5 157t129.5 62q74 0 74 -73q0 -29 -13 -73l-21 -72l5 -1q51 97 115.5 158t134.5 61q81 0 81 -84q0 -30 -10 -61l-73 -242q-6 -17 -6 -28q0 -19 16 -19q17 0 41 29.5t46 68.5l27 -18 q-77 -160 -198 -160q-35 0 -54.5 18.5t-19.5 54.5q0 22 7 46l76 257q6 18 6 32q0 26 -24 26q-33 0 -86.5 -72t-80.5 -136q-37 -92 -70 -214l-138 -12l105 386q4 15 4 26q0 22 -24 22q-33 0 -87 -73t-80 -137q-32 -80 -69 -212z"/>
<glyph glyph-name="n" horiz-adv-x="635" unicode="n" d="M80 -12l103 403q4 12 4 22q0 20 -19 21l-60 6l8 33l233 29l5 -5l-68 -217h6q52 97 118 159.5t138 62.5q85 0 85 -84q0 -24 -10 -61l-75 -242q-5 -17 -5 -27q0 -20 16 -20q17 0 41 29.5t45 68.5l29 -18q-78 -160 -201 -160q-36 0 -55.5 18.5t-19.5 53.5q0 23 7 47l76 256 q6 22 6 32q0 27 -26 27q-33 0 -87.5 -72.5t-80.5 -136.5q-40 -102 -72 -213z"/>
<glyph glyph-name="o" horiz-adv-x="562" unicode="o" d="M222 107q0 -73 60 -73q37 0 69.5 42t52 100.5t31 112.5t11.5 85q0 82 -57 82q-62 0 -115 -117q-52 -119 -52 -232zM77 174q0 106 59 197q84 131 245 131q42 0 77 -9t66 -30t49 -60.5t18 -94.5q0 -95 -62 -193q-80 -127 -245 -127q-104 0 -155.5 50.5t-51.5 135.5z"/>
<glyph glyph-name="p" horiz-adv-x="606" unicode="p" d="M243 64q30 -30 75 -30q40 0 75.5 40t56 96t32.5 109.5t12 87.5q0 55 -37 55q-28 0 -64.5 -38t-71.5 -101q-49 -89 -78 -219zM35 -242l138 633q3 12 3 21q0 21 -18 22l-59 6l7 33l229 29l5 -5l-57 -211h4q116 216 249 216q56 0 84 -34t28 -94q0 -30 -8.5 -74t-31.5 -99.5 t-56.5 -102t-89 -78.5t-123.5 -32q-72 0 -107 21l-57 -239z"/>
<glyph glyph-name="q" horiz-adv-x="584" unicode="q" d="M218 122q0 -54 34 -54q42 0 108 93q85 120 123 281q-22 14 -52 14q-48 0 -90 -38.5t-68 -93.5t-40.5 -109.5t-14.5 -92.5zM64 98v8q0 45 12.5 95.5t40.5 104.5t68 97.5t101 71t133 27.5q70 0 124 -23l40 34h56l-174 -734l-145 -21l98 432h-3q-120 -202 -244 -202 q-45 0 -75 27.5t-32 82.5z"/>
<glyph glyph-name="r" horiz-adv-x="440" unicode="r" d="M86 -12l93 403q3 14 3 22q0 20 -18 21l-59 6l7 33l213 29l5 -5l-37 -145h5q39 70 83 110t89 40q62 0 62 -59q0 -31 -19.5 -58.5t-48.5 -27.5q-21 0 -48 19q-23 16 -38 16q-46 0 -97 -179q-10 -35 -28.5 -109t-26.5 -104z"/>
<glyph glyph-name="s" horiz-adv-x="417" unicode="s" d="M45 89q0 27 21.5 48t44.5 21q29 0 44 -30q26 -53 48.5 -73.5t47.5 -20.5q23 0 37.5 14.5t14.5 37.5q-3 49 -86 116q-87 70 -90 138v7q0 64 49 109.5t133 45.5q77 0 117.5 -28.5t40.5 -58.5q0 -28 -21 -43.5t-45 -15.5q-26 0 -39 26q-21 40 -37.5 57t-36.5 17 q-19 0 -33 -14t-14 -36q0 -28 20 -52.5t65 -58.5q91 -69 91 -150q0 -68 -47.5 -112.5t-144.5 -44.5q-86 0 -133 31.5t-47 69.5z"/>
<glyph glyph-name="t" horiz-adv-x="359" unicode="t" d="M109 111l84 331h-83l12 48h81l20 74l151 77l13 -8l-44 -143h120l-12 -48h-118l-82 -331q-3 -12 -3 -22q0 -21 17 -21q40 0 99 98l28 -19q-84 -159 -211 -159q-36 0 -57.5 19t-21.5 57q0 16 7 47z"/>
<glyph glyph-name="u" horiz-adv-x="634" unicode="u" d="M109 443l8 33l231 26l5 -5l-94 -369q-6 -20 -6 -34q0 -26 25 -26q33 0 83.5 71.5t81.5 145.5q25 56 67 205l142 12l-101 -387q-5 -17 -5 -26q0 -21 17 -21q29 0 86 98l29 -18q-79 -160 -199 -160q-33 0 -51 18t-18 52q0 21 5 38l31 114h-4q-121 -222 -259 -222 q-77 0 -77 79q0 26 10 66l67 258q4 13 4 24q0 21 -19 22z"/>
<glyph glyph-name="v" horiz-adv-x="518" unicode="v" d="M103 443l7 33l226 26l5 -5l-83 -360q-3 -15 -3 -27q0 -42 36 -42h1q52 0 105 90t59 197q0 84 -12 126q53 21 107 21q4 0 11.5 -10t13.5 -29t6 -39q-1 -48 -35 -122.5t-90 -144.5q-134 -169 -252 -169q-96 0 -96 88q0 19 7 52l61 263q3 14 3 23q0 22 -18 23z"/>
<glyph glyph-name="w" horiz-adv-x="795" unicode="w" d="M105 443l7 33l227 26l5 -5l-85 -357q-5 -23 -5 -35q0 -37 30 -37q36 0 92 91q60 100 118 328l136 6l-69 -308q-9 -41 -9 -66q0 -51 40 -51q48 0 96.5 91.5t52.5 195.5q0 71 -14 126q60 21 103 21q4 0 11.5 -10.5t13.5 -29t6 -37.5q-1 -47 -32 -121.5t-82 -145.5 q-124 -170 -235 -170q-46 0 -68 25.5t-22 67.5q0 40 17 114h-4q-49 -95 -112 -151t-130 -56q-37 0 -60 23.5t-23 67.5q0 22 6 49l63 263q3 14 3 24q0 21 -18 22z"/>
<glyph glyph-name="x" horiz-adv-x="516" unicode="x" d="M9 50q0 29 17.5 51.5t40.5 22.5q17 0 48 -21q18 -13 32 -13q24 0 76 100q2 3 10.5 19.5t11.5 22.5l-39 161q-4 19 -12.5 24.5t-27.5 5.5l-60 -2l-3 31l210 50l7 -4l31 -146h2q21 37 46 72q57 78 121 78q26 0 43.5 -14.5t17.5 -42.5t-17 -48.5t-39 -20.5q-16 0 -42 12 q-22 11 -36 11q-28 0 -84 -98l43 -173q8 -34 16 -47t20 -13q31 1 81 111l31 -15q-63 -176 -182 -176q-42 0 -63 29t-34 85l-16 68h-3q-4 -8 -17 -32t-16 -31q-33 -60 -62.5 -89.5t-73.5 -29.5q-36 0 -57 17.5t-21 44.5z"/>
<glyph glyph-name="y" horiz-adv-x="489" unicode="y" d="M-14 -180q-2 29 19.5 54.5t48.5 26.5q15 0 24 -7t23 -26q25 -37 44 -37q27 0 44 57q11 37 11 102t-15 183t-29 190q-6 35 -13 48t-22 13h-2h-62v30l217 48l8 -4q11 -41 22.5 -178t12.5 -248h3q95 171 113 267q9 46 9 120v18q56 25 104 25q6 0 13.5 -18.5t7.5 -35.5 q0 -15 -8.5 -38.5t-29.5 -61t-35 -61.5t-44 -74q-35 -58 -84 -145t-55 -97q-39 -63 -58.5 -92t-49.5 -62.5t-59 -46t-67 -12.5q-41 0 -66 18.5t-25 43.5z"/>
<glyph glyph-name="z" horiz-adv-x="466" unicode="z" d="M18 19q0 28 27 59q94 102 325 316v2h-145q-39 0 -59 -19.5t-48 -70.5l-25 12q31 122 77 172h363l8 -16q-267 -245 -334 -318v-6q18 -3 71 -22q69 -23 102 -23q18 0 33 8t26.5 22.5t21.5 30.5t21 37q3 5 4 8l29 -10q-12 -50 -22 -82.5t-26 -65.5t-37 -49t-48 -16 q-47 0 -151 40q-101 40 -102 40q-10 0 -10 -18l4 -30q1 -16 -17 -24t-50 -8q-38 0 -38 31z"/>
<glyph glyph-name="braceleft" horiz-adv-x="340" unicode="{" d="M125 265l7 34q65 0 85 25t28 87l12 94q5 39 12 65.5t24.5 57.5t52.5 47.5t85 16.5h43l-8 -34q-55 -4 -75.5 -32.5t-28.5 -86.5l-10 -77q-5 -39 -7.5 -55.5t-11 -42t-21 -37t-35 -23.5t-56.5 -19l-1 -6q78 -17 78 -73q0 -11 -3 -24.5t-6 -23.5t-9 -29t-9 -27l-27 -77 q-14 -39 -14 -65q0 -49 66 -54l-7 -34h-27q-129 0 -129 95q0 35 19 92l32 94q12 35 12 60q0 52 -71 52z"/>
<glyph glyph-name="bar" horiz-adv-x="265" unicode="|" d="M152 -250v1000h104v-1000h-104z"/>
<glyph glyph-name="braceright" horiz-adv-x="340" unicode="}" d="M-7 -128l8 34q55 4 75.5 32.5t28.5 86.5l10 77q5 39 7.5 55.5t11 42t21 37t35 23.5t56.5 19l1 6q-78 17 -78 73q0 11 3 24.5t6 23.5t9 29t9 27l27 77q14 39 14 65q0 49 -66 54l7 34h27q129 0 129 -95q0 -35 -19 -92l-32 -94q-12 -35 -12 -60q0 -52 71 -52l-7 -34 q-36 0 -58 -6.5t-33 -24t-14.5 -32.5t-7.5 -49l-12 -94q-5 -39 -12 -65.5t-24.5 -57.5t-52.5 -47.5t-85 -16.5h-43z"/>
<glyph glyph-name="asciitilde" horiz-adv-x="600" unicode="~" d="M105 185q12 27 22.5 46.5t29 43t44.5 36t59 12.5q38 0 106 -28q66 -29 99 -29q27 0 46 16t41 56l54 -28q-26 -61 -61.5 -97t-94.5 -36q-48 0 -108 29q-64 28 -98 28q-47 0 -83 -77z"/>
<glyph glyph-name="uni00A0" horiz-adv-x="210" unicode=" "/>
<glyph glyph-name="exclamdown" horiz-adv-x="285" unicode="¡" d="M143 402q0 45 27 72.5t66 27.5q43 0 65 -22.5t22 -56.5q0 -45 -27.5 -72t-68.5 -27t-62.5 22.5t-21.5 55.5zM37 -113l141 386h55l-36 -386q-6 -57 -25.5 -80.5t-77.5 -23.5q-72 0 -72 42q0 20 15 62z"/>
<glyph glyph-name="cent" d="M260 269v-6q0 -96 65 -114l93 404h-1q-45 0 -82 -52t-55.5 -115.5t-19.5 -116.5zM115 280q0 112 68 204q85 114 245 115l15 69h54l-15 -71q55 0 109.5 -30.5t54.5 -75.5q0 -28 -22.5 -43.5t-49.5 -15.5h-2q-30 0 -40 35q-26 86 -60 86h-1l-92 -413h13q97 0 166 94l28 -22 q-71 -123 -219 -125l-25 -108h-55l25 108q-83 3 -140 49t-57 144z" unicode="¢"/>
<glyph glyph-name="sterling" d="M31 9l30 63q72 17 120.5 51.5t52.5 83.5q1 7 1 22q0 27 -9 61h-122l11 48h100q-20 57 -20 124q0 85 59.5 151t172.5 66q54 0 94 -13t59.5 -32.5t28.5 -37.5t9 -33q-1 -29 -25 -44t-49 -15q-36 0 -47 34q-18 50 -38.5 72.5t-47.5 22.5q-32 0 -54.5 -27.5t-23.5 -75.5 q0 -48 11 -96q4 -18 26 -96h146l-9 -48h-132v-13q0 -20 -4 -39q-7 -37 -39 -70t-74 -52l-1 -3h184q53 0 78 30l20 25l33 -17l-70 -151h-461z" unicode="£"/>
<glyph glyph-name="currency" d="M222 334q0 -62 38 -104.5t94 -42.5t94 42.5t38 104.5t-38 104.5t-94 42.5t-94 -42.5t-38 -104.5zM114 88q-19 19 -19 38t19 35l49 39q-43 49 -43 134t43 134l-49 39q-19 16 -19 35t19 38q16 16 36 16q23 0 36 -18l38 -49q48 41 130 41t130 -41l38 49q13 18 36 18 q20 0 36 -16q19 -19 19 -38t-19 -35l-49 -39q43 -49 43 -134t-43 -134l49 -39q19 -16 19 -35t-19 -38q-16 -16 -36 -16q-23 0 -36 18l-38 49q-48 -41 -130 -41t-130 41l-38 -49q-13 -18 -36 -18q-20 0 -36 16z" unicode="¤"/>
<glyph glyph-name="yen" d="M100 179l11 48h148l8 35q4 16 4 30q0 10 -2 22h-135l11 48h113q-25 107 -57 227q-6 21 -13 28.5t-20 9.5l-30 5l9 36h277l-9 -36l-47 -4q-21 -3 -21 -19q0 -1 0.5 -4t0.5 -5q8 -57 47 -239h2q73 112 143 237q5 8 5 16q0 12 -13 13l-55 5l9 36h225l-8 -36l-29 -3 q-18 -2 -30 -12t-33 -36q-43 -52 -152 -219h128l-10 -48h-148q-12 -23 -18 -51l-8 -36h163l-10 -48h-164l-22 -100q-2 -12 -2 -17q0 -20 22 -21l59 -5l-7 -36h-315l7 36l57 4q27 2 36 39l22 100h-149z" unicode="¥"/>
<glyph glyph-name="brokenbar" horiz-adv-x="265" unicode="¦" d="M152 325v350h104v-350h-104zM152 -175v350h104v-350h-104z"/>
<glyph glyph-name="section" horiz-adv-x="568" unicode="§" d="M197 409q0 -79 130 -162q51 -33 86.5 -71t41.5 -67q50 38 50 95q0 86 -110 162q-57 39 -90.5 72t-40.5 68q-28 -9 -47.5 -36t-19.5 -61zM99 -12q0 26 18.5 44t47.5 18q27 0 40 -32q39 -87 96 -87q28 0 48.5 19t20.5 49q0 38 -24.5 71.5t-89.5 74.5q-137 86 -137 199 q0 133 139 217q3 52 49 99t131 47q73 0 114.5 -26.5t41.5 -60.5q0 -23 -19.5 -38t-42.5 -15q-21 0 -38 29q-36 65 -82 65q-26 0 -43 -17t-17 -44q0 -28 23 -58t90 -73q66 -42 93.5 -90.5t27.5 -110.5q0 -58 -36 -117t-84 -102q-4 -71 -55 -117.5t-134 -46.5q-80 0 -129 31 t-49 72z"/>
<glyph glyph-name="dieresis" horiz-adv-x="400" unicode="¨" d="M141 635q0 30 21.5 52.5t57.5 22.5q37 0 58 -22t21 -53q0 -30 -21 -52t-58 -22q-36 0 -57.5 22t-21.5 52zM381 635q0 30 21.5 52.5t57.5 22.5q37 0 58 -22t21 -53q0 -30 -21 -52t-58 -22q-36 0 -57.5 22t-21.5 52z"/>
<glyph glyph-name="copyright" horiz-adv-x="824" unicode="©" d="M297 348q0 88 53 144t160 56q89 0 138 -29v-104h-27q-32 101 -104 101q-49 0 -74.5 -45.5t-25.5 -116.5q0 -75 26 -123t80 -48q38 0 62.5 29t45.5 78h27l-11 -108q-50 -31 -138 -31q-111 0 -161.5 53t-50.5 144zM209 346q0 -125 82 -211.5t199 -86.5t199 86.5t82 211.5 t-82 211.5t-199 86.5t-199 -86.5t-82 -211.5zM126 346q0 150 106.5 255.5t257.5 105.5t257.5 -105.5t106.5 -255.5t-106.5 -255.5t-257.5 -105.5t-257.5 105.5t-106.5 255.5z"/>
<glyph glyph-name="ordfeminine" horiz-adv-x="444" unicode="ª" d="M207 350q0 -27 18 -27q22 0 68 58q10 13 19.5 29.5t15.5 28.5t13 31t10 27.5t9 28t7 21.5q-12 9 -31 9q-46 0 -87.5 -76t-41.5 -130zM97 341q0 33 15 74t42.5 81t76 67t107.5 27q33 0 53 -11l2 6h104l-66 -232q-3 -11 -3 -19q0 -11 8 -11q20 0 59 62l22 -12 q-56 -108 -145 -108q-46 0 -46 47q0 15 6 36l15 49l-4 1q-48 -69 -75 -93q-45 -40 -100 -40q-33 0 -52 21.5t-19 54.5z"/>
<glyph glyph-name="guillemotleft" d="M132 231q-7 11 -7 16q0 11 14 23l205 194l24 -21l-110 -171q-10 -18 -10 -28q0 -4 2 -12l47 -178l-28 -17zM332 231q-7 11 -7 16q0 11 14 23l205 194l24 -21l-110 -171q-10 -18 -10 -28q0 -4 2 -12l47 -178l-28 -17z" unicode="«"/>
<glyph glyph-name="logicalnot" horiz-adv-x="600" unicode="¬" d="M118 317v80h484v-302h-96v222h-388z"/>
<glyph glyph-name="uni00AD" horiz-adv-x="392" unicode="­" d="M106 203l20 95h263l-20 -95h-263z"/>
<glyph glyph-name="registered" horiz-adv-x="824" unicode="®" d="M457 363h24q34 0 50 19q15 20 15 55q0 36 -16.5 53.5t-41.5 17.5q-20 0 -25.5 -4t-5.5 -16v-125zM311 159v26l27 4q19 2 19 30v262q0 27 -19 29l-27 4v26h208q132 0 132 -92q0 -38 -24 -63.5t-65 -33.5v-2q24 -7 39 -22t19.5 -26.5t11.5 -40.5q1 -4 2 -7q11 -45 27 -57 q7 -6 24 -11v-26h-55q-41 0 -60 10.5t-29 34.5q-7 15 -15 52t-9 39q-10 36 -42 36h-18v-112q0 -27 20 -30l27 -4v-26h-193zM209 346q0 -125 82 -211.5t199 -86.5t199 86.5t82 211.5t-82 211.5t-199 86.5t-199 -86.5t-82 -211.5zM126 346q0 150 106.5 255.5t257.5 105.5 t257.5 -105.5t106.5 -255.5t-106.5 -255.5t-257.5 -105.5t-257.5 105.5t-106.5 255.5z"/>
<glyph glyph-name="macron" horiz-adv-x="400" unicode="¯" d="M168 592l15 72h311l-15 -72h-311z"/>
<glyph glyph-name="degree" horiz-adv-x="375" unicode="°" d="M205 520q0 -44 26 -73t63 -29t63 29t26 73t-26 73t-63 29t-63 -29t-26 -73zM128 519q0 67 48.5 114t117.5 47t117.5 -47t48.5 -114t-48.5 -113t-117.5 -46t-117.5 46t-48.5 113z"/>
<glyph glyph-name="plusminus" horiz-adv-x="600" unicode="±" d="M118 0v80h484v-80h-484zM118 298v80h195v171h96v-171h193v-80h-193v-169h-96v169h-195z"/>
<glyph glyph-name="twosuperior" horiz-adv-x="402" unicode="²" d="M64 282q5 71 160 161q53 31 81 72.5t28 78.5q0 48 -28 48q-36 0 -73 -81q-13 -30 -40 -30q-21 0 -39 14t-18 34q0 38 46 69.5t119 31.5q83 0 120.5 -32.5t37.5 -81.5q0 -53 -35.5 -83t-102.5 -54q-94 -33 -125 -75h151q21 0 32 6t26 27l28 -8l-47 -107h-311z"/>
<glyph glyph-name="threesuperior" horiz-adv-x="402" unicode="³" d="M94 349q0 22 19 38t41 16q26 0 37 -30q12 -37 25.5 -53.5t33.5 -16.5q21 0 39 26.5t18 78.5q0 60 -41 60q-12 0 -34 -5.5t-28 -5.5q-20 0 -20 24q0 15 6 25.5t16 10.5q7 0 30.5 -7t37.5 -7q27 0 44 32t17 64q0 43 -32 43q-27 0 -64 -64q-18 -30 -41 -30q-17 0 -33 12.5 t-16 32.5q0 33 43.5 60t113.5 27q62 0 106 -28t44 -73q0 -78 -111 -92l-1 -2q40 -9 65.5 -33.5t25.5 -61.5q0 -59 -49 -92t-136 -33q-71 0 -113.5 24.5t-42.5 59.5z"/>
<glyph glyph-name="acute" horiz-adv-x="400" unicode="´" d="M221 541l145 149q28 29 43.5 39.5t30.5 10.5q18 0 35.5 -20.5t17.5 -39.5q0 -18 -17.5 -33t-50.5 -33l-183 -103z"/>
<glyph glyph-name="uni00B5" horiz-adv-x="634" unicode="µ" d="M35 -180l148 571q4 13 4 24q0 21 -19 22l-59 6l8 33l231 26l5 -5l-94 -369q-6 -20 -6 -34q0 -26 25 -26q33 0 83.5 71.5t81.5 145.5q25 56 67 205l142 12l-101 -387q-5 -17 -5 -26q0 -21 17 -21q29 0 86 98l29 -18q-79 -160 -199 -160q-33 0 -51 18t-18 52q0 21 5 38 l31 114h-4q-119 -220 -243 -220h-3q-18 0 -36 14l-6 -23q-3 -12 -3 -34q0 -29 5 -49q10 -38 10 -59q0 -26 -33.5 -47.5t-69.5 -21.5q-31 0 -31 30q0 8 3 20z"/>
<glyph glyph-name="paragraph" horiz-adv-x="580" unicode="¶" d="M231 -101l7 33l83 11q22 2 32 50l159 699h176l-7 -33l-68 -9q-14 -1 -19.5 -10t-10.5 -32l-161 -709h-191zM145 422q0 117 83.5 193.5t216.5 76.5l-103 -454q-88 0 -142.5 47.5t-54.5 136.5z"/>
<glyph glyph-name="periodcentered" horiz-adv-x="280" unicode="·" d="M102 240q0 45 27.5 72t68.5 27t62.5 -22.5t21.5 -55.5q0 -45 -27 -72.5t-66 -27.5q-43 0 -65 22.5t-22 56.5z"/>
<glyph glyph-name="cedilla" horiz-adv-x="400" unicode="¸" d="M120 -243l2 32q96 0 101 58v7q0 42 -60 48l-3 8l66 90h58l-44 -56q13 -2 26 -6.5t28 -13t24.5 -25.5t9.5 -39q0 -1 -0.5 -5t-0.5 -6q-3 -28 -21 -48.5t-44.5 -29.5t-49.5 -13t-44 -4q-22 0 -48 3z"/>
<glyph glyph-name="onesuperior" horiz-adv-x="402" unicode="¹" d="M119 272l6 27l39 5q17 2 25 9.5t12 26.5l57 250q2 12 2 15q0 16 -18 19l-40 6l6 26l182 24l6 -7l-76 -333q-2 -12 -2 -15q0 -18 23 -21l37 -5l-6 -27h-253z"/>
<glyph glyph-name="ordmasculine" horiz-adv-x="412" unicode="º" d="M230 340q0 -19 10 -30t27 -11q42 0 73.5 81.5t31.5 131.5q0 44 -35 44q-42 0 -74 -74q-33 -74 -33 -142zM121 391q0 65 37 119q55 80 165 80q158 0 158 -132q0 -66 -36 -117q-55 -76 -172 -76q-77 0 -114.5 34.5t-37.5 91.5z"/>
<glyph glyph-name="guillemotright" d="M93 58l110 171q10 18 10 28q0 4 -2 12l-47 178l28 17l137 -194q7 -10 7 -16q0 -11 -14 -23l-205 -194zM294 58l110 171q10 18 10 28q0 4 -2 12l-47 178l28 17l137 -194q7 -10 7 -16q0 -11 -14 -23l-205 -194z" unicode="»"/>
<glyph glyph-name="onequarter" horiz-adv-x="940" unicode="¼" d="M139 272l6 27l39 5q17 2 25 9.5t12 26.5l57 250q2 12 2 15q0 16 -18 19l-40 6l6 26l182 24l6 -7l-76 -333q-2 -12 -2 -15q0 -18 23 -21l37 -5l-6 -27h-253zM268 11l502 684l44 -34l-505 -688zM601 145h115l39 168h-2q-6 -7 -65 -71t-87 -97zM523 126q190 204 269 275h92 l-57 -256h56l-10 -43h-56l-10 -48q-1 -3 -1 -7q0 -15 17 -17l24 -3l-5 -27h-221l5 27l40 3q25 2 29 24l10 48h-169z"/>
<glyph glyph-name="onehalf" horiz-adv-x="940" unicode="½" d="M539 10q5 71 160 161q53 31 81 72.5t28 78.5q0 48 -28 48q-36 0 -73 -81q-13 -30 -40 -30q-21 0 -39 14t-18 34q0 38 46 69.5t119 31.5q83 0 120.5 -32.5t37.5 -81.5q0 -53 -35.5 -83t-102.5 -54q-94 -33 -125 -75h151q21 0 32 6t26 27l28 -8l-47 -107h-311zM125 272 l6 27l39 5q17 2 25 9.5t12 26.5l57 250q2 12 2 15q0 16 -18 19l-40 6l6 26l182 24l6 -7l-76 -333q-2 -12 -2 -15q0 -18 23 -21l37 -5l-6 -27h-253zM238 11l502 684l44 -34l-505 -688z"/>
<glyph glyph-name="threequarters" horiz-adv-x="940" unicode="¾" d="M130 349q0 22 19 38t41 16q26 0 37 -30q12 -37 25.5 -53.5t33.5 -16.5q21 0 39 26.5t18 78.5q0 60 -41 60q-12 0 -34 -5.5t-28 -5.5q-20 0 -20 24q0 15 6 25.5t16 10.5q7 0 30.5 -7t37.5 -7q27 0 44 32t17 64q0 43 -32 43q-27 0 -64 -64q-18 -30 -41 -30q-17 0 -33 12.5 t-16 32.5q0 33 43.5 60t113.5 27q62 0 106 -28t44 -73q0 -78 -111 -92l-1 -2q40 -9 65.5 -33.5t25.5 -61.5q0 -59 -49 -92t-136 -33q-71 0 -113.5 24.5t-42.5 59.5zM302 11l502 684l44 -34l-505 -688zM628 145h115l39 168h-2q-6 -7 -65 -71t-87 -97zM550 126 q190 204 269 275h92l-57 -256h56l-10 -43h-56l-10 -48q-1 -3 -1 -7q0 -15 17 -17l24 -3l-5 -27h-221l5 27l40 3q25 2 29 24l10 48h-169z"/>
<glyph glyph-name="questiondown" horiz-adv-x="454" unicode="¿" d="M246 402q0 45 27 72.5t66 27.5q43 0 65 -22.5t22 -56.5q0 -45 -27.5 -72t-68.5 -27t-62.5 22.5t-21.5 55.5zM25 -83q0 54 36.5 88.5t101.5 59.5q106 40 106 96q0 21 -15.5 33t-33.5 14t-24 2q-7 0 -19 -2l-7 29q52 35 127 35q51 0 83.5 -26t32.5 -69q0 -67 -107 -124 q-132 -71 -132 -178q0 -46 34 -46q43 0 89 105q15 34 49 34q27 0 51.5 -16t24.5 -47q0 -44 -53 -83t-149 -39q-97 0 -146 35.5t-49 98.5z"/>
<glyph glyph-name="Agrave" horiz-adv-x="634" unicode="À" d="M260 294h169l-24 261h-2q-11 -18 -70 -126t-73 -135zM-24 0l7 38l27 3q23 2 36.5 11.5t28.5 34.5q38 63 151 262l194 343h118l34 -317q4 -37 15 -144.5t15 -144.5q3 -24 9 -34t22 -11l41 -3l-8 -38h-300l8 38l52 4q23 1 23 28v9l-15 167h-200q-18 -33 -47 -90.5 t-39 -76.5q-6 -12 -6 -21q0 -15 19 -16l56 -4l-7 -38h-234zM293 840q0 18 16 41t38 23q24 0 64 -30l172 -123l-14 -32l-203 64q-42 13 -57.5 24.5t-15.5 32.5z"/>
<glyph glyph-name="Aacute" horiz-adv-x="634" unicode="Á" d="M260 294h169l-24 261h-2q-11 -18 -70 -126t-73 -135zM-24 0l7 38l27 3q23 2 36.5 11.5t28.5 34.5q38 63 151 262l194 343h118l34 -317q4 -37 15 -144.5t15 -144.5q3 -24 9 -34t22 -11l41 -3l-8 -38h-300l8 38l52 4q23 1 23 28v9l-15 167h-200q-18 -33 -47 -90.5 t-39 -76.5q-6 -12 -6 -21q0 -15 19 -16l56 -4l-7 -38h-234zM373 751l172 123q40 30 64 30q22 0 38 -23t16 -41q0 -21 -15.5 -32.5t-57.5 -24.5l-203 -64z"/>
<glyph glyph-name="Acircumflex" horiz-adv-x="634" unicode="Â" d="M260 294h169l-24 261h-2q-11 -18 -70 -126t-73 -135zM-24 0l7 38l27 3q23 2 36.5 11.5t28.5 34.5q38 63 151 262l194 343h118l34 -317q4 -37 15 -144.5t15 -144.5q3 -24 9 -34t22 -11l41 -3l-8 -38h-300l8 38l52 4q23 1 23 28v9l-15 167h-200q-18 -33 -47 -90.5 t-39 -76.5q-6 -12 -6 -21q0 -15 19 -16l56 -4l-7 -38h-234zM290 755l172 124q36 26 52 26q19 0 45 -28l112 -122l-24 -30l-106 60q-26 15 -41 15q-11 0 -42 -13l-151 -62z"/>
<glyph glyph-name="Atilde" horiz-adv-x="634" unicode="Ã" d="M260 294h169l-24 261h-2q-11 -18 -70 -126t-73 -135zM-24 0l7 38l27 3q23 2 36.5 11.5t28.5 34.5q38 63 151 262l194 343h118l34 -317q4 -37 15 -144.5t15 -144.5q3 -24 9 -34t22 -11l41 -3l-8 -38h-300l8 38l52 4q23 1 23 28v9l-15 167h-200q-18 -33 -47 -90.5 t-39 -76.5q-6 -12 -6 -21q0 -15 19 -16l56 -4l-7 -38h-234zM272 741q9 23 17.5 38.5t25 37.5t40 34t52.5 12q31 0 92 -21q69 -21 91 -21q27 0 42.5 12t32.5 43l32 -18q-9 -23 -17.5 -38.5t-25 -37.5t-40 -34t-52.5 -12q-21 0 -88 21q-61 21 -95 21q-27 0 -42.5 -12 t-32.5 -43z"/>
<glyph glyph-name="Adieresis" horiz-adv-x="634" unicode="Ä" d="M260 294h169l-24 261h-2q-11 -18 -70 -126t-73 -135zM-24 0l7 38l27 3q23 2 36.5 11.5t28.5 34.5q38 63 151 262l194 343h118l34 -317q4 -37 15 -144.5t15 -144.5q3 -24 9 -34t22 -11l41 -3l-8 -38h-300l8 38l52 4q23 1 23 28v9l-15 167h-200q-18 -33 -47 -90.5 t-39 -76.5q-6 -12 -6 -21q0 -15 19 -16l56 -4l-7 -38h-234zM277 806q0 30 21.5 52.5t57.5 22.5q37 0 58 -22t21 -53q0 -30 -21 -52t-58 -22q-36 0 -57.5 22t-21.5 52zM529 806q0 30 21.5 52.5t57.5 22.5q37 0 58 -22t21 -53q0 -30 -21 -52t-58 -22q-36 0 -57.5 22t-21.5 52z "/>
<glyph glyph-name="Aring" horiz-adv-x="634" unicode="Å" d="M430 741q0 -24 13.5 -36.5t34.5 -12.5q30 0 50.5 28.5t20.5 68.5q0 23 -12.5 37t-34.5 14q-29 0 -50.5 -28t-21.5 -71zM258 294h171l-24 261h-4q-11 -18 -70 -126t-73 -135zM-24 0l7 38l27 3q23 2 36.5 11.5t28.5 34.5q38 63 151 262l182 318q-44 23 -44 76q0 59 36 97.5 t108 38.5q49 0 78 -25.5t29 -71.5q0 -82 -75 -115l32 -292q4 -37 15 -144.5t15 -144.5q3 -24 9 -34t22 -11l41 -3l-8 -38h-300l8 38l52 4q23 1 23 28v9l-15 167h-202q-14 -27 -41.5 -83t-42.5 -84q-6 -12 -6 -21q0 -15 19 -16l56 -4l-7 -38h-234z"/>
<glyph glyph-name="AE" horiz-adv-x="890" unicode="Æ" d="M336 387h140l56 253h-10q-170 -230 -186 -253zM-72 0l7 38l36 5q21 3 36.5 16t39.5 41q26 31 355 471q37 50 37 65q0 9 -14 11l-68 7l10 38h626l-40 -185h-38l-5 55q-3 40 -28 62t-86 22h-74q-24 0 -32 -6t-13 -29l-50 -224h92q46 0 66 17.5t45 73.5h38l-50 -230h-38v17 q0 40 -15 57t-57 17h-92l-53 -234q-3 -12 -3 -22q0 -25 22.5 -31t86.5 -6q60 0 99.5 23t76.5 85l32 54h38l-59 -208h-545l9 38l45 4q20 1 28.5 13.5t15.5 42.5l56 241h-165q-40 -59 -80.5 -118.5t-60 -88t-34.5 -52.5q-8 -13 -8 -22q0 -13 14 -14l68 -6l-7 -38h-264z"/>
<glyph glyph-name="Ccedilla" horiz-adv-x="672" unicode="Ç" d="M111 275q0 143 69 249q120 183 375 183q53 0 117.5 -11.5t104.5 -36.5l-39 -179h-38q-2 181 -143 181q-72 0 -128 -41t-87 -106.5t-46.5 -136.5t-15.5 -142q0 -101 42 -152.5t112 -51.5q40 0 73 13.5t62 44t47.5 56.5t48.5 75h38l-55 -194q-79 -41 -207 -41l-30 -38 q92 -15 92 -84q0 -1 -0.5 -4.5t-0.5 -5.5q-2 -29 -21 -50.5t-47 -31t-52 -13.5t-46 -4q-23 0 -50 3l3 33q98 0 105 61v6q0 40 -63 46l-3 8l55 76q-70 6 -122 30.5t-80 55t-44.5 71t-21 70t-4.5 61.5z"/>
<glyph glyph-name="Egrave" horiz-adv-x="622" unicode="È" d="M40 0l9 38l45 4q20 1 28.5 13.5t15.5 42.5l111 496q5 22 5 32q0 22 -24 23l-51 5l11 38h532l-40 -185h-38l-5 55q-3 40 -28 62t-86 22h-69q-26 0 -35 -5.5t-14 -27.5l-50 -226h94q46 0 66 17t45 73h38l-50 -228h-38v17q0 39 -15 56t-57 17h-94l-53 -236q-3 -12 -3 -21 q0 -13 5.5 -20.5t21.5 -11t32.5 -4t51.5 -0.5q62 0 101.5 22.5t76.5 85.5l32 54h38l-59 -208h-550zM303 840q0 18 16 41t38 23q24 0 64 -30l172 -123l-14 -32l-203 64q-42 13 -57.5 24.5t-15.5 32.5z"/>
<glyph glyph-name="Eacute" horiz-adv-x="622" unicode="É" d="M40 0l9 38l45 4q20 1 28.5 13.5t15.5 42.5l111 496q5 22 5 32q0 22 -24 23l-51 5l11 38h532l-40 -185h-38l-5 55q-3 40 -28 62t-86 22h-69q-26 0 -35 -5.5t-14 -27.5l-50 -226h94q46 0 66 17t45 73h38l-50 -228h-38v17q0 39 -15 56t-57 17h-94l-53 -236q-3 -12 -3 -21 q0 -13 5.5 -20.5t21.5 -11t32.5 -4t51.5 -0.5q62 0 101.5 22.5t76.5 85.5l32 54h38l-59 -208h-550zM387 751l172 123q40 30 64 30q22 0 38 -23t16 -41q0 -21 -15.5 -32.5t-57.5 -24.5l-203 -64z"/>
<glyph glyph-name="Ecircumflex" horiz-adv-x="622" unicode="Ê" d="M40 0l9 38l45 4q20 1 28.5 13.5t15.5 42.5l111 496q5 22 5 32q0 22 -24 23l-51 5l11 38h532l-40 -185h-38l-5 55q-3 40 -28 62t-86 22h-69q-26 0 -35 -5.5t-14 -27.5l-50 -226h94q46 0 66 17t45 73h38l-50 -228h-38v17q0 39 -15 56t-57 17h-94l-53 -236q-3 -12 -3 -21 q0 -13 5.5 -20.5t21.5 -11t32.5 -4t51.5 -0.5q62 0 101.5 22.5t76.5 85.5l32 54h38l-59 -208h-550zM294 755l172 124q36 26 52 26q19 0 45 -28l112 -122l-24 -30l-106 60q-26 15 -41 15q-11 0 -42 -13l-151 -62z"/>
<glyph glyph-name="Edieresis" horiz-adv-x="622" unicode="Ë" d="M40 0l9 38l45 4q20 1 28.5 13.5t15.5 42.5l111 496q5 22 5 32q0 22 -24 23l-51 5l11 38h532l-40 -185h-38l-5 55q-3 40 -28 62t-86 22h-69q-26 0 -35 -5.5t-14 -27.5l-50 -226h94q46 0 66 17t45 73h38l-50 -228h-38v17q0 39 -15 56t-57 17h-94l-53 -236q-3 -12 -3 -21 q0 -13 5.5 -20.5t21.5 -11t32.5 -4t51.5 -0.5q62 0 101.5 22.5t76.5 85.5l32 54h38l-59 -208h-550zM279 806q0 30 21.5 52.5t57.5 22.5q37 0 58 -22t21 -53q0 -30 -21 -52t-58 -22q-36 0 -57.5 22t-21.5 52zM531 806q0 30 21.5 52.5t57.5 22.5q37 0 58 -22t21 -53 q0 -30 -21 -52t-58 -22q-36 0 -57.5 22t-21.5 52z"/>
<glyph glyph-name="Igrave" horiz-adv-x="386" unicode="Ì" d="M40 0l9 38l45 4q20 1 28.5 13.5t15.5 42.5l111 496q5 22 5 32q0 22 -24 23l-51 5l10 38h312l-10 -38l-44 -4q-20 -1 -28.5 -13.5t-15.5 -42.5l-111 -496q-5 -22 -5 -32q0 -21 24 -24l50 -4l-9 -38h-312zM181 840q0 18 16 41t38 23q24 0 64 -30l172 -123l-14 -32l-203 64 q-42 13 -57.5 24.5t-15.5 32.5z"/>
<glyph glyph-name="Iacute" horiz-adv-x="386" unicode="Í" d="M40 0l9 38l45 4q20 1 28.5 13.5t15.5 42.5l111 496q5 22 5 32q0 22 -24 23l-51 5l10 38h312l-10 -38l-44 -4q-20 -1 -28.5 -13.5t-15.5 -42.5l-111 -496q-5 -22 -5 -32q0 -21 24 -24l50 -4l-9 -38h-312zM244 751l172 123q40 30 64 30q22 0 38 -23t16 -41 q0 -21 -15.5 -32.5t-57.5 -24.5l-203 -64z"/>
<glyph glyph-name="Icircumflex" horiz-adv-x="386" unicode="Î" d="M40 0l9 38l45 4q20 1 28.5 13.5t15.5 42.5l111 496q5 22 5 32q0 22 -24 23l-51 5l10 38h312l-10 -38l-44 -4q-20 -1 -28.5 -13.5t-15.5 -42.5l-111 -496q-5 -22 -5 -32q0 -21 24 -24l50 -4l-9 -38h-312zM160 755l172 124q36 26 52 26q19 0 45 -28l112 -122l-24 -30 l-106 60q-26 15 -41 15q-11 0 -42 -13l-151 -62z"/>
<glyph glyph-name="Idieresis" horiz-adv-x="386" unicode="Ï" d="M40 0l9 38l45 4q20 1 28.5 13.5t15.5 42.5l111 496q5 22 5 32q0 22 -24 23l-51 5l10 38h312l-10 -38l-44 -4q-20 -1 -28.5 -13.5t-15.5 -42.5l-111 -496q-5 -22 -5 -32q0 -21 24 -24l50 -4l-9 -38h-312zM158 806q0 30 21.5 52.5t57.5 22.5q37 0 58 -22t21 -53 q0 -30 -21 -52t-58 -22q-36 0 -57.5 22t-21.5 52zM410 806q0 30 21.5 52.5t57.5 22.5q37 0 58 -22t21 -53q0 -30 -21 -52t-58 -22q-36 0 -57.5 22t-21.5 52z"/>
<glyph glyph-name="Eth" horiz-adv-x="780" unicode="Ð" d="M298 97q-2 -12 -2 -15q0 -21 17.5 -28.5t52.5 -7.5q66 0 119.5 31.5t85.5 78t53.5 104.5t29.5 106t8 88t-6 70.5t-23 60t-51.5 45.5t-85.5 16q-48 0 -64 -7.5t-21 -32.5l-48 -219h144l-12 -48h-143zM46 0l9 38l45 4q20 1 28.5 13.5t15.5 42.5l54 241h-95l12 48h94l46 207 q5 22 5 32q0 22 -24 23l-51 5l10 38h275q180 -2 263 -65q92 -70 92 -224q0 -43 -15 -104t-51 -117q-56 -89 -147 -135.5t-245 -46.5h-321z"/>
<glyph glyph-name="Ntilde" horiz-adv-x="741" unicode="Ñ" d="M30 0l8 38l37 3q35 3 50 50q15 46 38 148l78 355q5 22 5 32q0 22 -24 23l-50 5l10 38h222q90 -219 213 -509h3l59 270q25 117 28 148q0 2 0.5 6t0.5 6q0 35 -35 38l-54 3l8 38h246l-8 -38l-37 -3q-35 -3 -50 -50q-15 -46 -38 -148l-100 -453h-104q-117 280 -237 561h-4 l-72 -322q-23 -114 -27 -148q0 -2 -0.5 -6t-0.5 -5q0 -36 35 -39l54 -3l-8 -38h-246zM337 741q9 23 17.5 38.5t25 37.5t40 34t52.5 12q31 0 92 -21q69 -21 91 -21q27 0 42.5 12t32.5 43l32 -18q-9 -23 -17.5 -38.5t-25 -37.5t-40 -34t-52.5 -12q-21 0 -88 21q-61 21 -95 21 q-27 0 -42.5 -12t-32.5 -43z"/>
<glyph glyph-name="Ograve" horiz-adv-x="761" unicode="Ò" d="M278 190q0 -159 125 -159q70 0 125.5 79.5t82.5 186.5t27 209q0 155 -116 155q-58 0 -107 -50.5t-77.5 -126t-44 -153t-15.5 -141.5zM113 264q0 134 57 244q104 199 337 199q134 0 215 -71.5t81 -216.5q0 -130 -59 -243q-99 -191 -324 -191q-148 0 -227.5 75t-79.5 204z M307 840q0 18 16 41t38 23q24 0 64 -30l172 -123l-14 -32l-203 64q-42 13 -57.5 24.5t-15.5 32.5z"/>
<glyph glyph-name="Oacute" horiz-adv-x="761" unicode="Ó" d="M278 190q0 -159 125 -159q70 0 125.5 79.5t82.5 186.5t27 209q0 155 -116 155q-58 0 -107 -50.5t-77.5 -126t-44 -153t-15.5 -141.5zM113 264q0 134 57 244q104 199 337 199q134 0 215 -71.5t81 -216.5q0 -130 -59 -243q-99 -191 -324 -191q-148 0 -227.5 75t-79.5 204z M422 751l172 123q40 30 64 30q22 0 38 -23t16 -41q0 -21 -15.5 -32.5t-57.5 -24.5l-203 -64z"/>
<glyph glyph-name="Ocircumflex" horiz-adv-x="761" unicode="Ô" d="M278 190q0 -159 125 -159q70 0 125.5 79.5t82.5 186.5t27 209q0 155 -116 155q-58 0 -107 -50.5t-77.5 -126t-44 -153t-15.5 -141.5zM113 264q0 134 57 244q104 199 337 199q134 0 215 -71.5t81 -216.5q0 -130 -59 -243q-99 -191 -324 -191q-148 0 -227.5 75t-79.5 204z M344 755l172 124q36 26 52 26q19 0 45 -28l112 -122l-24 -30l-106 60q-26 15 -41 15q-11 0 -42 -13l-151 -62z"/>
<glyph glyph-name="Otilde" horiz-adv-x="761" unicode="Õ" d="M278 190q0 -159 125 -159q70 0 125.5 79.5t82.5 186.5t27 209q0 155 -116 155q-58 0 -107 -50.5t-77.5 -126t-44 -153t-15.5 -141.5zM113 264q0 134 57 244q104 199 337 199q134 0 215 -71.5t81 -216.5q0 -130 -59 -243q-99 -191 -324 -191q-148 0 -227.5 75t-79.5 204z M329 741q9 23 17.5 38.5t25 37.5t40 34t52.5 12q31 0 92 -21q69 -21 91 -21q27 0 42.5 12t32.5 43l32 -18q-9 -23 -17.5 -38.5t-25 -37.5t-40 -34t-52.5 -12q-21 0 -88 21q-61 21 -95 21q-27 0 -42.5 -12t-32.5 -43z"/>
<glyph glyph-name="Odieresis" horiz-adv-x="761" unicode="Ö" d="M278 190q0 -159 125 -159q70 0 125.5 79.5t82.5 186.5t27 209q0 155 -116 155q-58 0 -107 -50.5t-77.5 -126t-44 -153t-15.5 -141.5zM113 264q0 134 57 244q104 199 337 199q134 0 215 -71.5t81 -216.5q0 -130 -59 -243q-99 -191 -324 -191q-148 0 -227.5 75t-79.5 204z M337 806q0 30 21.5 52.5t57.5 22.5q37 0 58 -22t21 -53q0 -30 -21 -52t-58 -22q-36 0 -57.5 22t-21.5 52zM589 806q0 30 21.5 52.5t57.5 22.5q37 0 58 -22t21 -53q0 -30 -21 -52t-58 -22q-36 0 -57.5 22t-21.5 52z"/>
<glyph glyph-name="multiply" horiz-adv-x="600" unicode="×" d="M145 83l165 166l-165 166l58 63l167 -168l166 168l59 -63l-165 -166l165 -166l-59 -61l-166 167l-167 -167z"/>
<glyph glyph-name="Oslash" horiz-adv-x="761" unicode="Ø" d="M294 94q31 -63 107 -63q71 0 128 79.5t85 187t28 210.5q0 13 -4 33zM274 188q0 -7 2 -19t2 -15l345 448q-26 59 -100 59q-59 0 -108.5 -50.5t-79 -126t-45.5 -154t-16 -142.5zM112 260q0 136 58 248q104 199 337 199q95 0 168 -37l49 64l39 -32l-47 -60q88 -77 88 -223 q0 -130 -59 -243q-101 -191 -325 -191q-106 0 -179 39l-58 -75l-36 35l53 69q-88 73 -88 207z"/>
<glyph glyph-name="Ugrave" horiz-adv-x="776" unicode="Ù" d="M159 241l79 353q5 22 5 32q0 22 -24 23l-51 5l10 38h312l-10 -38l-44 -4q-20 -1 -28.5 -13.5t-15.5 -42.5l-80 -361q-10 -47 -10 -84q0 -118 105 -118q64 0 103 54t65 173l75 336q5 22 5 32q0 22 -24 23l-51 5l10 38h312l-10 -38l-44 -4q-20 -1 -28.5 -13.5t-15.5 -42.5 l-78 -341q-36 -159 -114 -215q-75 -53 -210 -53q-153 0 -217 70q-35 39 -35 109q0 35 9 77zM304 840q0 18 16 41t38 23q24 0 64 -30l172 -123l-14 -32l-203 64q-42 13 -57.5 24.5t-15.5 32.5z"/>
<glyph glyph-name="Uacute" horiz-adv-x="776" unicode="Ú" d="M159 241l79 353q5 22 5 32q0 22 -24 23l-51 5l10 38h312l-10 -38l-44 -4q-20 -1 -28.5 -13.5t-15.5 -42.5l-80 -361q-10 -47 -10 -84q0 -118 105 -118q64 0 103 54t65 173l75 336q5 22 5 32q0 22 -24 23l-51 5l10 38h312l-10 -38l-44 -4q-20 -1 -28.5 -13.5t-15.5 -42.5 l-78 -341q-36 -159 -114 -215q-75 -53 -210 -53q-153 0 -217 70q-35 39 -35 109q0 35 9 77zM519 751l172 123q40 30 64 30q22 0 38 -23t16 -41q0 -21 -15.5 -32.5t-57.5 -24.5l-203 -64z"/>
<glyph glyph-name="Ucircumflex" horiz-adv-x="776" unicode="Û" d="M159 241l79 353q5 22 5 32q0 22 -24 23l-51 5l10 38h312l-10 -38l-44 -4q-20 -1 -28.5 -13.5t-15.5 -42.5l-80 -361q-10 -47 -10 -84q0 -118 105 -118q64 0 103 54t65 173l75 336q5 22 5 32q0 22 -24 23l-51 5l10 38h312l-10 -38l-44 -4q-20 -1 -28.5 -13.5t-15.5 -42.5 l-78 -341q-36 -159 -114 -215q-75 -53 -210 -53q-153 0 -217 70q-35 39 -35 109q0 35 9 77zM351 755l172 124q36 26 52 26q19 0 45 -28l112 -122l-24 -30l-106 60q-26 15 -41 15q-11 0 -42 -13l-151 -62z"/>
<glyph glyph-name="Udieresis" horiz-adv-x="776" unicode="Ü" d="M159 241l79 353q5 22 5 32q0 22 -24 23l-51 5l10 38h312l-10 -38l-44 -4q-20 -1 -28.5 -13.5t-15.5 -42.5l-80 -361q-10 -47 -10 -84q0 -118 105 -118q64 0 103 54t65 173l75 336q5 22 5 32q0 22 -24 23l-51 5l10 38h312l-10 -38l-44 -4q-20 -1 -28.5 -13.5t-15.5 -42.5 l-78 -341q-36 -159 -114 -215q-75 -53 -210 -53q-153 0 -217 70q-35 39 -35 109q0 35 9 77zM343 806q0 30 21.5 52.5t57.5 22.5q37 0 58 -22t21 -53q0 -30 -21 -52t-58 -22q-36 0 -57.5 22t-21.5 52zM595 806q0 30 21.5 52.5t57.5 22.5q37 0 58 -22t21 -53q0 -30 -21 -52 t-58 -22q-36 0 -57.5 22t-21.5 52z"/>
<glyph glyph-name="Yacute" horiz-adv-x="622" unicode="Ý" d="M127 656l8 36h301l-8 -38l-55 -6q-19 -1 -19 -16q0 -3 2 -13l70 -272h2q117 167 178 268q7 11 7 19q0 14 -20 15l-53 5l8 38h252l-7 -38l-29 -3q-18 -2 -31 -8.5t-20.5 -13.5t-24.5 -26q-86 -96 -211 -280q-27 -38 -34 -72l-35 -153q-5 -22 -5 -32q0 -22 24 -23l64 -5 l-9 -38h-339l9 38l59 4q20 1 28.5 13.5t15.5 42.5l32 148q3 17 3 29q0 16 -5 36q-35 144 -83 298q-7 25 -15.5 33.5t-25.5 10.5zM472 751l172 123q40 30 64 30q22 0 38 -23t16 -41q0 -21 -15.5 -32.5t-57.5 -24.5l-203 -64z"/>
<glyph glyph-name="Thorn" horiz-adv-x="629" unicode="Þ" d="M327 261q-2 -12 -2 -15q0 -24 39 -24q87 0 129.5 53t42.5 126q0 47 -26.5 74t-72.5 27q-33 0 -45.5 -8.5t-17.5 -29.5zM40 0l9 38l45 4q20 1 28.5 13.5t15.5 42.5l112 496q5 22 5 32q0 22 -24 23l-51 5l10 38h311l-10 -38l-44 -4q-20 -1 -28.5 -13.5t-15.5 -42.5l-11 -46 h64q109 0 174.5 -42t64.5 -133q-3 -93 -81 -147q-72 -50 -208 -50h-96l-18 -78q-5 -20 -5 -30q0 -24 26 -25l65 -5l-8 -38h-330z"/>
<glyph glyph-name="germandbls" horiz-adv-x="628" unicode="ß" d="M-94 -168q0 23 18 41t42 18q10 0 18.5 -5.5t11 -9.5t9.5 -16q32 -56 47 -56q13 0 19 27l123 611h-89l14 48h86l7 22q70 230 300 230q105 0 160 -40.5t55 -100.5q0 -74 -66 -122q-130 0 -130 -87q0 -8 2 -16.5t6 -18t7.5 -16t10.5 -17t10 -15.5t11 -15.5t9 -12.5 q53 -73 53 -134t-46 -109t-138 -48q-57 0 -95 20t-38 48q-1 22 16 37.5t39 15.5q21 0 34 -20q36 -55 66 -55q18 0 30.5 13t12.5 35q0 6 -1 12t-2.5 11t-4.5 12t-5 11.5t-7 13t-7.5 12.5t-9.5 13.5t-9.5 13t-10.5 14.5t-11 15q-56 76 -56 130q0 62 42.5 104.5t99.5 45.5 q63 49 63 119q0 37 -24 61t-61 24q-113 0 -178 -270l-94 -398q-33 -140 -82 -204t-137 -66q-56 0 -88 20.5t-32 53.5z"/>
<glyph glyph-name="agrave" horiz-adv-x="596" unicode="à" d="M232 680q0 19 17.5 39.5t35.5 20.5q15 0 30.5 -10.5t43.5 -39.5l145 -149l-21 -30l-183 103q-33 18 -50.5 33t-17.5 33zM215 115q0 -47 29 -47q41 0 120 126q68 112 103 248q-20 14 -49 14q-40 0 -79 -38.5t-65.5 -93t-42.5 -112t-16 -97.5zM61 108q0 41 13 91t41.5 104 t68 98t98.5 72.5t127 28.5q43 0 71 -17l4 9h137l-101 -379q-4 -13 -4 -27q0 -20 15 -20q32 0 87 97l29 -16q-81 -161 -199 -161q-71 0 -71 69q0 24 9 57l25 88h-6q-21 -36 -35 -58t-40 -55.5t-49 -52.5t-55.5 -33.5t-66.5 -14.5q-50 0 -74 34.5t-24 85.5z"/>
<glyph glyph-name="aacute" horiz-adv-x="596" unicode="á" d="M215 115q0 -47 29 -47q41 0 120 126q68 112 103 248q-20 14 -49 14q-40 0 -79 -38.5t-65.5 -93t-42.5 -112t-16 -97.5zM61 108q0 41 13 91t41.5 104t68 98t98.5 72.5t127 28.5q43 0 71 -17l4 9h137l-101 -379q-4 -13 -4 -27q0 -20 15 -20q32 0 87 97l29 -16 q-81 -161 -199 -161q-71 0 -71 69q0 24 9 57l25 88h-6q-21 -36 -35 -58t-40 -55.5t-49 -52.5t-55.5 -33.5t-66.5 -14.5q-50 0 -74 34.5t-24 85.5zM344 541l145 149q28 29 43.5 39.5t30.5 10.5q18 0 35.5 -20.5t17.5 -39.5q0 -18 -17.5 -33t-50.5 -33l-183 -103z"/>
<glyph glyph-name="acircumflex" horiz-adv-x="596" unicode="â" d="M215 115q0 -47 29 -47q41 0 120 126q68 112 103 248q-20 14 -49 14q-40 0 -79 -38.5t-65.5 -93t-42.5 -112t-16 -97.5zM61 108q0 41 13 91t41.5 104t68 98t98.5 72.5t127 28.5q43 0 71 -17l4 9h137l-101 -379q-4 -13 -4 -27q0 -20 15 -20q32 0 87 97l29 -16 q-81 -161 -199 -161q-71 0 -71 69q0 24 9 57l25 88h-6q-21 -36 -35 -58t-40 -55.5t-49 -52.5t-55.5 -33.5t-66.5 -14.5q-50 0 -74 34.5t-24 85.5zM231 547l180 173q27 27 48 27q17 0 36 -28l114 -172l-29 -27l-113 96q-19 17 -30 17q-12 0 -38 -17l-145 -96z"/>
<glyph glyph-name="atilde" horiz-adv-x="596" unicode="ã" d="M215 115q0 -47 29 -47q41 0 120 126q68 112 103 248q-20 14 -49 14q-40 0 -79 -38.5t-65.5 -93t-42.5 -112t-16 -97.5zM61 108q0 41 13 91t41.5 104t68 98t98.5 72.5t127 28.5q43 0 71 -17l4 9h137l-101 -379q-4 -13 -4 -27q0 -20 15 -20q32 0 87 97l29 -16 q-81 -161 -199 -161q-71 0 -71 69q0 24 9 57l25 88h-6q-21 -36 -35 -58t-40 -55.5t-49 -52.5t-55.5 -33.5t-66.5 -14.5q-50 0 -74 34.5t-24 85.5zM227 567q8 43 39.5 82t85.5 39q28 0 94 -22q64 -20 89 -20h3q33 3 75 51l22 -13q-2 -3 -10.5 -20.5t-10.5 -21t-10 -18 t-11.5 -18t-11.5 -14t-15 -13.5t-16 -8.5t-19.5 -7t-22.5 -1.5q-16 0 -85 21q-63 21 -99 21q-27 0 -42.5 -12t-32.5 -43z"/>
<glyph glyph-name="adieresis" horiz-adv-x="596" unicode="ä" d="M215 115q0 -47 29 -47q41 0 120 126q68 112 103 248q-20 14 -49 14q-40 0 -79 -38.5t-65.5 -93t-42.5 -112t-16 -97.5zM61 108q0 41 13 91t41.5 104t68 98t98.5 72.5t127 28.5q43 0 71 -17l4 9h137l-101 -379q-4 -13 -4 -27q0 -20 15 -20q32 0 87 97l29 -16 q-81 -161 -199 -161q-71 0 -71 69q0 24 9 57l25 88h-6q-21 -36 -35 -58t-40 -55.5t-49 -52.5t-55.5 -33.5t-66.5 -14.5q-50 0 -74 34.5t-24 85.5zM239 635q0 30 21.5 52.5t57.5 22.5q37 0 58 -22t21 -53q0 -30 -21 -52t-58 -22q-36 0 -57.5 22t-21.5 52zM479 635 q0 30 21.5 52.5t57.5 22.5q37 0 58 -22t21 -53q0 -30 -21 -52t-58 -22q-36 0 -57.5 22t-21.5 52z"/>
<glyph glyph-name="aring" horiz-adv-x="596" unicode="å" d="M215 115q0 -47 29 -47q41 0 120 126q68 112 103 248q-20 14 -49 14q-40 0 -79 -38.5t-65.5 -93t-42.5 -112t-16 -97.5zM61 108q0 41 13 91t41.5 104t68 98t98.5 72.5t127 28.5q43 0 71 -17l4 9h137l-101 -379q-4 -13 -4 -27q0 -20 15 -20q32 0 87 97l29 -16 q-81 -161 -199 -161q-71 0 -71 69q0 24 9 57l25 88h-6q-21 -36 -35 -58t-40 -55.5t-49 -52.5t-55.5 -33.5t-66.5 -14.5q-50 0 -74 34.5t-24 85.5zM367 624q0 -27 15 -41t37 -14q29 0 49 26t20 72q0 24 -14 39.5t-37 15.5q-29 0 -49.5 -27t-20.5 -71zM299 627q0 59 36 97 t108 38q53 0 83 -28t30 -74q0 -64 -40.5 -97.5t-102.5 -33.5q-52 0 -83 26.5t-31 71.5z"/>
<glyph glyph-name="ae" horiz-adv-x="789" unicode="æ" d="M538 232q84 17 131.5 68t48.5 113q-2 43 -39 43q-44 0 -87 -69t-54 -155zM215 115q0 -47 29 -47q41 0 120 126q68 112 103 248q-20 14 -49 14q-40 0 -79 -38.5t-65.5 -93t-42.5 -112t-16 -97.5zM61 108q0 41 13 91t41.5 104t68 98t99 72.5t127.5 28.5q39 0 75 -17l29 24 h54l-20 -66l2 -2q65 61 145 61q67 0 108.5 -31.5t41.5 -84.5q0 -58 -46 -100q-70 -62 -265 -99v-24q0 -109 80 -109q43 0 80 30t80 92l30 -24q-91 -164 -252 -164q-63 0 -108.5 39.5t-45.5 133.5q0 8 2 26l-2 2q-25 -42 -44.5 -70t-50 -62t-67 -51.5t-76.5 -17.5 q-50 0 -74.5 34.5t-24.5 85.5z"/>
<glyph glyph-name="ccedilla" horiz-adv-x="456" unicode="ç" d="M73 155q0 47 12.5 95.5t38.5 93.5t62 80.5t87.5 56.5t110.5 21q68 0 108.5 -27t40.5 -70q0 -25 -29 -44t-58 -19q-30 0 -41 47q-10 39 -19.5 53t-24.5 14q-47 0 -91 -96t-44 -198q0 -108 71 -108q44 0 79.5 34t71.5 92l30 -21q-75 -148 -201 -167l-38 -48q13 -2 26 -6.5 t28 -13t24.5 -25.5t9.5 -39q0 -1 -0.5 -5t-0.5 -6q-3 -28 -21 -48.5t-44.5 -29.5t-49.5 -13t-44 -4q-23 0 -48 3l2 32q96 0 101 58v7q0 42 -60 48l-3 8l58 79q-65 5 -104.5 45.5t-39.5 120.5z"/>
<glyph glyph-name="egrave" horiz-adv-x="476" unicode="è" d="M192 680q0 19 17.5 39.5t35.5 20.5q15 0 30.5 -10.5t43.5 -39.5l145 -149l-21 -30l-183 103q-33 18 -50.5 33t-17.5 33zM226 232q84 17 131 67.5t47 112.5q0 44 -37 44q-44 0 -87 -69t-54 -155zM73 161q0 125 81 227q91 114 230 114q65 0 106.5 -32t41.5 -84 q0 -58 -46 -100q-69 -61 -264 -99v-24q0 -46 18.5 -77.5t59.5 -31.5q43 0 80 30t80 92l30 -24q-91 -164 -254 -164q-30 0 -56.5 8t-51.5 26.5t-40 54t-15 84.5z"/>
<glyph glyph-name="eacute" horiz-adv-x="476" unicode="é" d="M226 232q84 17 131 67.5t47 112.5q0 44 -37 44q-44 0 -87 -69t-54 -155zM73 161q0 125 81 227q91 114 230 114q65 0 106.5 -32t41.5 -84q0 -58 -46 -100q-69 -61 -264 -99v-24q0 -46 18.5 -77.5t59.5 -31.5q43 0 80 30t80 92l30 -24q-91 -164 -254 -164q-30 0 -56.5 8 t-51.5 26.5t-40 54t-15 84.5zM294 541l145 149q28 29 43.5 39.5t30.5 10.5q18 0 35.5 -20.5t17.5 -39.5q0 -18 -17.5 -33t-50.5 -33l-183 -103z"/>
<glyph glyph-name="ecircumflex" horiz-adv-x="476" unicode="ê" d="M226 232q84 17 131 67.5t47 112.5q0 44 -37 44q-44 0 -87 -69t-54 -155zM73 161q0 125 81 227q91 114 230 114q65 0 106.5 -32t41.5 -84q0 -58 -46 -100q-69 -61 -264 -99v-24q0 -46 18.5 -77.5t59.5 -31.5q43 0 80 30t80 92l30 -24q-91 -164 -254 -164q-30 0 -56.5 8 t-51.5 26.5t-40 54t-15 84.5zM181 547l180 173q27 27 48 27q17 0 36 -28l114 -172l-29 -27l-113 96q-19 17 -30 17q-12 0 -38 -17l-145 -96z"/>
<glyph glyph-name="edieresis" horiz-adv-x="476" unicode="ë" d="M226 232q84 17 131 67.5t47 112.5q0 44 -37 44q-44 0 -87 -69t-54 -155zM73 161q0 125 81 227q91 114 230 114q65 0 106.5 -32t41.5 -84q0 -58 -46 -100q-69 -61 -264 -99v-24q0 -46 18.5 -77.5t59.5 -31.5q43 0 80 30t80 92l30 -24q-91 -164 -254 -164q-30 0 -56.5 8 t-51.5 26.5t-40 54t-15 84.5zM179 635q0 30 21.5 52.5t57.5 22.5q37 0 58 -22t21 -53q0 -30 -21 -52t-58 -22q-36 0 -57.5 22t-21.5 52zM419 635q0 30 21.5 52.5t57.5 22.5q37 0 58 -22t21 -53q0 -30 -21 -52t-58 -22q-36 0 -57.5 22t-21.5 52z"/>
<glyph glyph-name="igrave" horiz-adv-x="339" unicode="ì" d="M104 680q0 19 17.5 39.5t35.5 20.5q15 0 30.5 -10.5t43.5 -39.5l145 -149l-21 -30l-183 103q-33 18 -50.5 33t-17.5 33zM108 107l77 285q3 12 3 20q0 21 -20 22l-58 6l8 33l230 29l6 -6l-103 -381q-5 -17 -5 -28q0 -19 16 -19t40 29.5t46 68.5l30 -17q-80 -161 -200 -161 q-77 0 -77 71q0 23 7 48z"/>
<glyph glyph-name="iacute" horiz-adv-x="339" unicode="í" d="M171 541l145 149q28 29 43.5 39.5t30.5 10.5q18 0 35.5 -20.5t17.5 -39.5q0 -18 -17.5 -33t-50.5 -33l-183 -103zM108 107l77 285q3 12 3 20q0 21 -20 22l-58 6l8 33l230 29l6 -6l-103 -381q-5 -17 -5 -28q0 -19 16 -19t40 29.5t46 68.5l30 -17q-80 -161 -200 -161 q-77 0 -77 71q0 23 7 48z"/>
<glyph glyph-name="icircumflex" horiz-adv-x="339" unicode="î" d="M108 107l77 285q3 12 3 20q0 21 -20 22l-58 6l8 33l230 29l6 -6l-103 -381q-5 -17 -5 -28q0 -19 16 -19t40 29.5t46 68.5l30 -17q-80 -161 -200 -161q-77 0 -77 71q0 23 7 48zM73 547l180 173q27 27 48 27q17 0 36 -28l114 -172l-29 -27l-113 96q-19 17 -30 17 q-12 0 -38 -17l-145 -96z"/>
<glyph glyph-name="idieresis" horiz-adv-x="339" unicode="ï" d="M81 635q0 30 21.5 52.5t57.5 22.5q37 0 58 -22t21 -53q0 -30 -21 -52t-58 -22q-36 0 -57.5 22t-21.5 52zM321 635q0 30 21.5 52.5t57.5 22.5q37 0 58 -22t21 -53q0 -30 -21 -52t-58 -22q-36 0 -57.5 22t-21.5 52zM108 107l77 285q3 12 3 20q0 21 -20 22l-58 6l8 33 l230 29l6 -6l-103 -381q-5 -17 -5 -28q0 -19 16 -19t40 29.5t46 68.5l30 -17q-80 -161 -200 -161q-77 0 -77 71q0 23 7 48z"/>
<glyph glyph-name="eth" horiz-adv-x="562" unicode="ð" d="M222 107q0 -73 59 -73q37 0 70 42t52.5 100.5t31 112.5t11.5 85q0 82 -57 82q-63 0 -115 -117q-52 -119 -52 -232zM77 174q0 105 58 197q82 131 256 131q21 0 34 -5v3q-15 39 -53 88l-137 -56l-29 40l133 54q-34 43 -92 90l1 11l57 15q69 -43 115 -83l146 59l27 -40 l-135 -55q133 -137 133 -300q0 -110 -62 -208q-80 -127 -245 -127q-105 0 -156 50t-51 136z"/>
<glyph glyph-name="ntilde" horiz-adv-x="635" unicode="ñ" d="M80 -12l103 403q4 12 4 22q0 20 -19 21l-60 6l8 33l233 29l5 -5l-68 -217h6q52 97 118 159.5t138 62.5q85 0 85 -84q0 -24 -10 -61l-75 -242q-5 -17 -5 -27q0 -20 16 -20q17 0 41 29.5t45 68.5l29 -18q-78 -160 -201 -160q-36 0 -55.5 18.5t-19.5 53.5q0 23 7 47l76 256 q6 22 6 32q0 27 -26 27q-33 0 -87.5 -72.5t-80.5 -136.5q-40 -102 -72 -213zM232 567q8 43 39.5 82t85.5 39q28 0 94 -22q64 -20 89 -20h3q33 3 75 51l22 -13q-2 -3 -10.5 -20.5t-10.5 -21t-10 -18t-11.5 -18t-11.5 -14t-15 -13.5t-16 -8.5t-19.5 -7t-22.5 -1.5 q-16 0 -85 21q-63 21 -99 21q-27 0 -42.5 -12t-32.5 -43z"/>
<glyph glyph-name="ograve" horiz-adv-x="562" unicode="ò" d="M215 680q0 19 17.5 39.5t35.5 20.5q15 0 30.5 -10.5t43.5 -39.5l145 -149l-21 -30l-183 103q-33 18 -50.5 33t-17.5 33zM222 107q0 -73 60 -73q37 0 69.5 42t52 100.5t31 112.5t11.5 85q0 82 -57 82q-62 0 -115 -117q-52 -119 -52 -232zM77 174q0 106 59 197 q84 131 245 131q42 0 77 -9t66 -30t49 -60.5t18 -94.5q0 -95 -62 -193q-80 -127 -245 -127q-104 0 -155.5 50.5t-51.5 135.5z"/>
<glyph glyph-name="oacute" horiz-adv-x="562" unicode="ó" d="M222 107q0 -73 60 -73q37 0 69.5 42t52 100.5t31 112.5t11.5 85q0 82 -57 82q-62 0 -115 -117q-52 -119 -52 -232zM77 174q0 106 59 197q84 131 245 131q42 0 77 -9t66 -30t49 -60.5t18 -94.5q0 -95 -62 -193q-80 -127 -245 -127q-104 0 -155.5 50.5t-51.5 135.5z M317 541l145 149q28 29 43.5 39.5t30.5 10.5q18 0 35.5 -20.5t17.5 -39.5q0 -18 -17.5 -33t-50.5 -33l-183 -103z"/>
<glyph glyph-name="ocircumflex" horiz-adv-x="562" unicode="ô" d="M222 107q0 -73 60 -73q37 0 69.5 42t52 100.5t31 112.5t11.5 85q0 82 -57 82q-62 0 -115 -117q-52 -119 -52 -232zM77 174q0 106 59 197q84 131 245 131q42 0 77 -9t66 -30t49 -60.5t18 -94.5q0 -95 -62 -193q-80 -127 -245 -127q-104 0 -155.5 50.5t-51.5 135.5z M194 547l180 173q27 27 48 27q17 0 36 -28l114 -172l-29 -27l-113 96q-19 17 -30 17q-12 0 -38 -17l-145 -96z"/>
<glyph glyph-name="otilde" horiz-adv-x="562" unicode="õ" d="M222 107q0 -73 60 -73q37 0 69.5 42t52 100.5t31 112.5t11.5 85q0 82 -57 82q-62 0 -115 -117q-52 -119 -52 -232zM77 174q0 106 59 197q84 131 245 131q42 0 77 -9t66 -30t49 -60.5t18 -94.5q0 -95 -62 -193q-80 -127 -245 -127q-104 0 -155.5 50.5t-51.5 135.5z M210 567q8 43 39.5 82t85.5 39q28 0 94 -22q64 -20 89 -20h3q33 3 75 51l22 -13q-2 -3 -10.5 -20.5t-10.5 -21t-10 -18t-11.5 -18t-11.5 -14t-15 -13.5t-16 -8.5t-19.5 -7t-22.5 -1.5q-16 0 -85 21q-63 21 -99 21q-27 0 -42.5 -12t-32.5 -43z"/>
<glyph glyph-name="odieresis" horiz-adv-x="562" unicode="ö" d="M222 107q0 -73 60 -73q37 0 69.5 42t52 100.5t31 112.5t11.5 85q0 82 -57 82q-62 0 -115 -117q-52 -119 -52 -232zM77 174q0 106 59 197q84 131 245 131q42 0 77 -9t66 -30t49 -60.5t18 -94.5q0 -95 -62 -193q-80 -127 -245 -127q-104 0 -155.5 50.5t-51.5 135.5z M222 635q0 30 21.5 52.5t57.5 22.5q37 0 58 -22t21 -53q0 -30 -21 -52t-58 -22q-36 0 -57.5 22t-21.5 52zM462 635q0 30 21.5 52.5t57.5 22.5q37 0 58 -22t21 -53q0 -30 -21 -52t-58 -22q-36 0 -57.5 22t-21.5 52z"/>
<glyph glyph-name="divide" horiz-adv-x="600" unicode="÷" d="M98 210v80h484v-80h-484zM272 424q0 28 19.5 48.5t48.5 20.5t49.5 -20t21.5 -48l-1 -1q0 -29 -20 -49.5t-50 -20.5q-29 0 -48.5 20.5t-19.5 49.5zM272 77q0 28 19.5 48.5t48.5 20.5t49.5 -20t21.5 -48l-1 -1q0 -29 -20 -49.5t-50 -20.5q-29 0 -48.5 20.5t-19.5 49.5z"/>
<glyph glyph-name="oslash" horiz-adv-x="562" unicode="ø" d="M234 50q16 -16 47 -16q41 0 76 42t55.5 100.5t32 112.5t11.5 85q0 10 -1 13zM212 107q0 -11 2 -13l224 343q-17 19 -50 19q-71 0 -124 -117q-52 -119 -52 -232zM77 174q0 105 58 197q82 131 246 131q52 0 90 -13l39 60l34 -24l-34 -52q81 -44 81 -161q0 -99 -62 -197 q-80 -127 -245 -127q-48 0 -84 12l-45 -69l-32 27l38 57q-84 45 -84 159z"/>
<glyph glyph-name="ugrave" horiz-adv-x="634" unicode="ù" d="M211 680q0 19 17.5 39.5t35.5 20.5q15 0 30.5 -10.5t43.5 -39.5l145 -149l-21 -30l-183 103q-33 18 -50.5 33t-17.5 33zM109 443l8 33l231 26l5 -5l-94 -369q-6 -20 -6 -34q0 -26 25 -26q33 0 83.5 71.5t81.5 145.5q25 56 67 205l142 12l-101 -387q-5 -17 -5 -26 q0 -21 17 -21q29 0 86 98l29 -18q-79 -160 -199 -160q-33 0 -51 18t-18 52q0 21 5 38l31 114h-4q-121 -222 -259 -222q-77 0 -77 79q0 26 10 66l67 258q4 13 4 24q0 21 -19 22z"/>
<glyph glyph-name="uacute" horiz-adv-x="634" unicode="ú" d="M109 443l8 33l231 26l5 -5l-94 -369q-6 -20 -6 -34q0 -26 25 -26q33 0 83.5 71.5t81.5 145.5q25 56 67 205l142 12l-101 -387q-5 -17 -5 -26q0 -21 17 -21q29 0 86 98l29 -18q-79 -160 -199 -160q-33 0 -51 18t-18 52q0 21 5 38l31 114h-4q-121 -222 -259 -222 q-77 0 -77 79q0 26 10 66l67 258q4 13 4 24q0 21 -19 22zM388 541l145 149q28 29 43.5 39.5t30.5 10.5q18 0 35.5 -20.5t17.5 -39.5q0 -18 -17.5 -33t-50.5 -33l-183 -103z"/>
<glyph glyph-name="ucircumflex" horiz-adv-x="634" unicode="û" d="M109 443l8 33l231 26l5 -5l-94 -369q-6 -20 -6 -34q0 -26 25 -26q33 0 83.5 71.5t81.5 145.5q25 56 67 205l142 12l-101 -387q-5 -17 -5 -26q0 -21 17 -21q29 0 86 98l29 -18q-79 -160 -199 -160q-33 0 -51 18t-18 52q0 21 5 38l31 114h-4q-121 -222 -259 -222 q-77 0 -77 79q0 26 10 66l67 258q4 13 4 24q0 21 -19 22zM225 547l180 173q27 27 48 27q17 0 36 -28l114 -172l-29 -27l-113 96q-19 17 -30 17q-12 0 -38 -17l-145 -96z"/>
<glyph glyph-name="udieresis" horiz-adv-x="634" unicode="ü" d="M109 443l8 33l231 26l5 -5l-94 -369q-6 -20 -6 -34q0 -26 25 -26q33 0 83.5 71.5t81.5 145.5q25 56 67 205l142 12l-101 -387q-5 -17 -5 -26q0 -21 17 -21q29 0 86 98l29 -18q-79 -160 -199 -160q-33 0 -51 18t-18 52q0 21 5 38l31 114h-4q-121 -222 -259 -222 q-77 0 -77 79q0 26 10 66l67 258q4 13 4 24q0 21 -19 22zM248 635q0 30 21.5 52.5t57.5 22.5q37 0 58 -22t21 -53q0 -30 -21 -52t-58 -22q-36 0 -57.5 22t-21.5 52zM488 635q0 30 21.5 52.5t57.5 22.5q37 0 58 -22t21 -53q0 -30 -21 -52t-58 -22q-36 0 -57.5 22t-21.5 52z "/>
<glyph glyph-name="yacute" horiz-adv-x="489" unicode="ý" d="M-14 -180q-2 29 19.5 54.5t48.5 26.5q15 0 24 -7t23 -26q25 -37 44 -37q27 0 44 57q11 37 11 102t-15 183t-29 190q-6 35 -13 48t-22 13h-2h-62v30l217 48l8 -4q11 -41 22.5 -178t12.5 -248h3q95 171 113 267q9 46 9 120v18q56 25 104 25q6 0 13.5 -18.5t7.5 -35.5 q0 -15 -8.5 -38.5t-29.5 -61t-35 -61.5t-44 -74q-35 -58 -84 -145t-55 -97q-39 -63 -58.5 -92t-49.5 -62.5t-59 -46t-67 -12.5q-41 0 -66 18.5t-25 43.5zM291 541l145 149q28 29 43.5 39.5t30.5 10.5q18 0 35.5 -20.5t17.5 -39.5q0 -18 -17.5 -33t-50.5 -33l-183 -103z"/>
<glyph glyph-name="thorn" horiz-adv-x="600" unicode="þ" d="M237 64q30 -30 75 -30q40 0 75 40t56 96t33 108.5t12 83.5v5q0 55 -37 55q-28 0 -64.5 -38t-71.5 -101q-49 -89 -78 -219zM29 -242l180 822q5 20 5 31q0 20 -17 21l-59 6l9 33l232 29l5 -5l-107 -409h4q116 216 249 216q107 0 112 -128v-6q0 -23 -7 -57.5t-20.5 -78 t-38.5 -86t-57.5 -78.5t-81 -58t-104.5 -22q-72 0 -107 21l-57 -239z"/>
<glyph glyph-name="OE" horiz-adv-x="1016" unicode="Œ" d="M276 255q0 -109 51.5 -159t131.5 -50q63 0 75 54l113 499q2 12 2 16q0 31 -53 31q-63 0 -117 -25t-90.5 -65.5t-62.5 -92.5t-38 -105t-12 -103zM111 287q0 24 2.5 48.5t13.5 66.5t30 78.5t56.5 77t87 69t127.5 47t174 18.5h517l-40 -185h-38l-5 55q-3 40 -28 62t-86 22 h-69q-26 0 -35 -5.5t-14 -27.5l-51 -226h92q46 0 66 17.5t45 73.5h38l-50 -229h-38v16q0 40 -15 57t-57 17h-92l-53 -234q-3 -12 -3 -20q0 -25 23 -32t86 -7q61 0 100 22.5t76 85.5l32 54h38l-59 -208h-509q-179 0 -270.5 75t-91.5 212z"/>
<glyph glyph-name="oe" horiz-adv-x="811" unicode="œ" d="M563 232q81 17 129 68t48 113q0 43 -38 43q-44 0 -86 -68.5t-53 -155.5zM221 107q0 -73 59 -73q37 0 70 42t52.5 100.5t31 112.5t11.5 85q0 82 -57 82q-62 0 -115 -117q-52 -119 -52 -232zM77 174q0 105 58 197q85 131 246 131q46 0 89.5 -20t67.5 -61q89 81 179 81 q66 0 108 -31.5t42 -84.5q0 -58 -46 -100q-69 -61 -262 -99v-24q0 -109 78 -109q41 0 78 30.5t80 91.5l30 -24q-91 -164 -244 -164q-89 0 -128 77q-31 -36 -79.5 -56.5t-93.5 -20.5q-101 0 -152 50.5t-51 135.5z"/>
<glyph glyph-name="Scaron" horiz-adv-x="551" unicode="Š" d="M66 70l23 177h37q10 -101 60 -158.5t112 -57.5q58 0 89 34t31 86q0 89 -103 148q-77 45 -117.5 90t-40.5 108q0 36 12.5 70t39.5 67t79.5 53t123.5 20q125 0 193 -54l-34 -161h-38q-2 84 -36 126.5t-89 42.5q-52 0 -81.5 -32.5t-29.5 -75.5q0 -40 30 -71t85 -62 q77 -43 114 -93t37 -117q0 -99 -66.5 -161.5t-196.5 -63.5q-67 0 -132.5 21t-101.5 64zM266 886l24 30l106 -60q26 -15 41 -15q11 0 42 13l151 62l17 -30l-172 -124q-36 -26 -52 -26q-19 0 -45 28z"/>
<glyph glyph-name="scaron" horiz-adv-x="417" unicode="š" d="M45 89q0 27 21.5 48t44.5 21q29 0 44 -30q26 -53 48.5 -73.5t47.5 -20.5q23 0 37.5 14.5t14.5 37.5q-3 49 -86 116q-87 70 -90 138v7q0 64 49 109.5t133 45.5q77 0 117.5 -28.5t40.5 -58.5q0 -28 -21 -43.5t-45 -15.5q-26 0 -39 26q-21 40 -37.5 57t-36.5 17 q-19 0 -33 -14t-14 -36q0 -28 20 -52.5t65 -58.5q91 -69 91 -150q0 -68 -47.5 -112.5t-144.5 -44.5q-86 0 -133 31.5t-47 69.5zM179 720l29 27l113 -96q19 -17 30 -17q12 0 38 17l145 96l23 -27l-180 -173q-27 -27 -48 -27q-17 0 -36 28z"/>
<glyph glyph-name="Ydieresis" horiz-adv-x="622" unicode="Ÿ" d="M127 656l8 36h301l-8 -38l-55 -6q-19 -1 -19 -16q0 -3 2 -13l70 -272h2q117 167 178 268q7 11 7 19q0 14 -20 15l-53 5l8 38h252l-7 -38l-29 -3q-18 -2 -31 -8.5t-20.5 -13.5t-24.5 -26q-86 -96 -211 -280q-27 -38 -34 -72l-35 -153q-5 -22 -5 -32q0 -22 24 -23l64 -5 l-9 -38h-339l9 38l59 4q20 1 28.5 13.5t15.5 42.5l32 148q3 17 3 29q0 16 -5 36q-35 144 -83 298q-7 25 -15.5 33.5t-25.5 10.5zM286 806q0 30 21.5 52.5t57.5 22.5q37 0 58 -22t21 -53q0 -30 -21 -52t-58 -22q-36 0 -57.5 22t-21.5 52zM538 806q0 30 21.5 52.5t57.5 22.5 q37 0 58 -22t21 -53q0 -30 -21 -52t-58 -22q-36 0 -57.5 22t-21.5 52z"/>
<glyph glyph-name="circumflex" horiz-adv-x="400" unicode="ˆ" d="M128 547l180 173q27 27 48 27q17 0 36 -28l114 -172l-29 -27l-113 96q-19 17 -30 17q-12 0 -38 -17l-145 -96z"/>
<glyph glyph-name="tilde" horiz-adv-x="400" unicode="˜" d="M129 567q8 43 39.5 82t85.5 39q28 0 94 -22q64 -20 89 -20h3q33 3 75 51l22 -13q-2 -3 -10.5 -20.5t-10.5 -21t-10 -18t-11.5 -18t-11.5 -14t-15 -13.5t-16 -8.5t-19.5 -7t-22.5 -1.5q-16 0 -85 21q-63 21 -99 21q-27 0 -42.5 -12t-32.5 -43z"/>
<glyph glyph-name="uni2002" horiz-adv-x="500" unicode=" "/>
<glyph glyph-name="uni2003" horiz-adv-x="1000" unicode=" "/>
<glyph glyph-name="uni2009" horiz-adv-x="200" unicode=" "/>
<glyph glyph-name="afii61664" horiz-adv-x="0" unicode="‌"/>
<glyph glyph-name="afii301" horiz-adv-x="0" unicode="‍"/>
<glyph glyph-name="endash" horiz-adv-x="500" unicode="–" d="M47 209l19 83h500l-19 -83h-500z"/>
<glyph glyph-name="emdash" horiz-adv-x="1000" unicode="—" d="M47 209l19 83h1000l-19 -83h-1000z"/>
<glyph glyph-name="quoteleft" horiz-adv-x="246" unicode="‘" d="M149 481q0 112 176 238l23 -27q-72 -72 -72 -128q0 -19 11.5 -46t11.5 -44q0 -32 -22 -53.5t-54 -21.5h-2q-35 0 -53.5 23.5t-18.5 58.5z"/>
<glyph glyph-name="quotesinglbase" horiz-adv-x="246" unicode="‚" d="M18 -126q72 72 72 128q0 19 -11.5 46t-11.5 44q0 32 22 53.5t54 21.5h2q35 0 53.5 -23.5t18.5 -58.5q0 -112 -176 -238z"/>
<glyph glyph-name="quotedblleft" horiz-adv-x="455" unicode="“" d="M149 481q0 112 176 238l23 -27q-72 -72 -72 -128q0 -19 11.5 -46t11.5 -44q0 -32 -22 -53.5t-54 -21.5h-2q-35 0 -53.5 23.5t-18.5 58.5zM358 481q0 112 176 238l23 -27q-72 -72 -72 -128q0 -19 11.5 -46t11.5 -44q0 -32 -22 -53.5t-54 -21.5h-2q-35 0 -53.5 23.5 t-18.5 58.5z"/>
<glyph glyph-name="quotedblright" horiz-adv-x="455" unicode="”" d="M130 414q72 72 72 128q0 19 -11.5 46t-11.5 44q0 32 22 53.5t54 21.5h2q35 0 53.5 -23.5t18.5 -58.5q0 -112 -176 -238zM339 414q72 72 72 128q0 19 -11.5 46t-11.5 44q0 32 22 53.5t54 21.5h2q35 0 53.5 -23.5t18.5 -58.5q0 -112 -176 -238z"/>
<glyph glyph-name="dagger" horiz-adv-x="514" unicode="†" d="M138 453q11 46 45 46q13 0 33.5 -3.5t54.5 -9.5t56 -10q1 17 3 90t6 91q12 50 76 50q62 0 62 -35q0 -5 -2 -15q-4 -18 -35 -90.5t-38 -90.5q26 4 61.5 10t57.5 9.5t34 3.5q28 0 28 -28q0 -11 -2 -18q-6 -27 -16 -36.5t-27 -9.5q-13 0 -34 3.5t-55 9.5t-57 10q7 -46 7 -68 q0 -19 -5 -46q-5 -22 -30 -97t-59 -177.5t-54 -166.5h-42q10 65 22 167t21 177t14 97q9 40 54 114q-25 -4 -61 -10t-57.5 -9.5t-32.5 -3.5q-30 0 -30 26q0 12 2 20z"/>
<glyph glyph-name="daggerdbl" horiz-adv-x="490" unicode="‡" d="M69 151q10 44 45 44q12 0 56 -8t79 -12v16v39q0 64 7 97q4 16 11.5 35.5t14 33t17.5 35.5t15 31q-37 -4 -82.5 -12t-57.5 -8q-31 0 -31 28q0 4 2 16q10 44 45 44q12 0 56 -8t79 -12v11q0 12 -0.5 43.5t-0.5 47.5q0 41 3 54q10 41 68 41h8h9q50 0 50 -30q0 -4 -2 -16 q-3 -12 -15.5 -40t-29 -62t-22.5 -49q37 4 82 12t57 8q31 0 31 -28q0 -4 -2 -16q-10 -44 -45 -44q-13 0 -56 8t-78 12q3 -66 3 -71q0 -35 -7 -64q-4 -21 -15.5 -48.5t-27 -61.5t-18.5 -42q37 4 82 12t57 8q31 0 31 -28q0 -4 -2 -16q-10 -44 -45 -44q-13 0 -56 8t-78 12 q-1 -25 -3 -66l-3 -61.5t-3 -43t-5 -34.5q-10 -41 -67 -41h-9h-8q-51 0 -51 31q0 3 2 15q5 19 79 200q-37 -4 -82.5 -12t-57.5 -8q-31 0 -31 28q0 4 2 16z"/>
<glyph glyph-name="ellipsis" horiz-adv-x="1000" unicode="…" d="M120 67q0 45 27.5 72t68.5 27t62.5 -22.5t21.5 -55.5q0 -45 -27 -72.5t-66 -27.5q-43 0 -65 22.5t-22 56.5zM453 67q0 45 27.5 72t68.5 27t62.5 -22.5t21.5 -55.5q0 -45 -27 -72.5t-66 -27.5q-43 0 -65 22.5t-22 56.5zM786 67q0 45 27.5 72t68.5 27t62.5 -22.5 t21.5 -55.5q0 -45 -27 -72.5t-66 -27.5q-43 0 -65 22.5t-22 56.5z"/>
<glyph glyph-name="perthousand" horiz-adv-x="1297" unicode="‰" d="M640 97q0 -69 46 -69q28 0 49.5 28t31.5 68t15 72t5 52q0 72 -44 72q-28 0 -49.5 -29t-32.5 -70t-16 -73.5t-5 -50.5zM531 127q0 39 16.5 90t55.5 89q55 54 144 54q149 0 149 -141q0 -73 -37 -137q-55 -94 -182 -94q-78 0 -112 39t-34 100zM250 417q0 -69 45 -69 q29 0 50 28t31.5 68t15 72t4.5 52q0 72 -43 72q-28 0 -49.5 -29t-32.5 -70t-16 -73.5t-5 -50.5zM141 447q0 39 16.5 90t55.5 89q55 54 144 54q57 0 110 -33q23 -14 78 -14h122q59 0 97 44l21 25l43 -36l-573 -697l-41 38l478 581h-193q6 -32 6 -49q0 -73 -38 -137 q-55 -94 -180 -94q-78 0 -112 39t-34 100zM1041 97q0 -69 46 -69q28 0 49.5 28t31.5 68t15 72t5 52q0 72 -44 72q-28 0 -49.5 -29t-32.5 -70t-16 -73.5t-5 -50.5zM932 127q0 39 16.5 90t55.5 89q55 54 144 54q149 0 149 -141q0 -73 -37 -137q-55 -94 -182 -94q-78 0 -112 39 t-34 100z"/>
<glyph glyph-name="minute" horiz-adv-x="304" unicode="′" d="M165 469l46 188q10 41 20 64q13 29 45 29q12 0 33 -8q40 -18 40 -51q0 -13 -4 -21q-14 -31 -33 -58l-110 -160z"/>
<glyph glyph-name="second" horiz-adv-x="515" unicode="″" d="M376 469l46 188q10 41 20 64q13 29 45 29q12 0 33 -8q40 -18 40 -51q0 -13 -4 -21q-14 -31 -33 -58l-110 -160zM165 469l46 188q10 41 20 64q13 29 45 29q12 0 33 -8q40 -18 40 -51q0 -13 -4 -21q-14 -31 -33 -58l-110 -160z"/>
<glyph glyph-name="guilsinglleft" horiz-adv-x="360" unicode="‹" d="M132 231q-7 11 -7 16q0 11 14 23l205 194l24 -21l-110 -171q-10 -18 -10 -28q0 -4 2 -12l47 -178l-28 -17z"/>
<glyph glyph-name="guilsinglright" horiz-adv-x="360" unicode="›" d="M93 58l110 171q10 18 10 28q0 4 -2 12l-47 178l28 17l137 -194q7 -10 7 -16q0 -11 -14 -23l-205 -194z"/>
<glyph glyph-name="fraction" horiz-adv-x="100" unicode="⁄" d="M-141 11l502 684l44 -34l-505 -688z"/>
<glyph glyph-name="Euro" d="M67 274l21 46h47q4 26 12 55h-56l20 46h50q19 53 46.5 97t69.5 82t102.5 59.5t135.5 21.5q83 0 148 -44l-34 -149h-38q0 87 -14 117t-73 30q-122 0 -191 -214h213l-20 -46h-206q-4 -14 -13 -55h194l-21 -46h-182q-12 -69 -12 -133q0 -54 22.5 -80.5t77.5 -26.5 q54 0 92.5 32.5t74.5 126.5h38l-43 -157q-52 -28 -88.5 -38t-87.5 -10q-226 0 -226 225q0 28 3 61h-62z" unicode="€"/>
<glyph glyph-name="trademark" horiz-adv-x="1100" unicode="™" d="M557 277v28l29 4q15 2 18.5 21t3.5 79v222q0 24 -15 27l-34 6v28h185q30 -84 46 -126l52 -134h5l51 134q7 21 22.5 63t23.5 63h184v-28l-33 -5q-19 -4 -19 -28v-288q0 -18 4 -25t18 -9l30 -4v-28h-211v28l28 5q13 3 16.5 9t3.5 24v278h-5l-125 -333h-52l-129 333h-5v-212 q0 -59 4 -78.5t21 -21.5l39 -4v-28h-156zM138 574v118h390v-118h-26q-9 48 -28 66t-54 18h-28v-314q0 -17 3 -24t14 -8l47 -7v-28h-246v28l46 7q18 2 18 32v314h-28q-35 0 -54 -18t-28 -66h-26z"/>
<glyph glyph-name="minus" horiz-adv-x="600" unicode="−" d="M118 210v80h484v-80h-484z"/>
</font>
</defs>
</svg>
