<?xml version="1.0" encoding="UTF-8" standalone="no"?>
<!DOCTYPE svg  PUBLIC '-//W3C//DTD SVG 1.1//EN'  'http://www.w3.org/Graphics/SVG/1.1/DTD/svg11.dtd'>
<svg xmlns="http://www.w3.org/2000/svg">
<defs>
<font id="Heuristica-Italic" horiz-adv-x="530">
<font-face slope="-13" underline-position="-100" font-weight="400" descent="-200" panose-1="2 2 6 3 5 7 5 9 2 4" units-per-em="1000" unicode-range="U+0020-2212" bbox="-166 -250 1205 891" x-height="490" underline-thickness="50" font-family="Heuristica" ascent="800" font-style="italic" cap-height="692"/>
<missing-glyph horiz-adv-x="1000"/>
<glyph glyph-name=".notdef" horiz-adv-x="1000"/>
<glyph glyph-name=".notdef" horiz-adv-x="1000"/>
<glyph glyph-name=".null" horiz-adv-x="0"/>
<glyph glyph-name="nonmarkingreturn" horiz-adv-x="333"/>
<glyph glyph-name="space" horiz-adv-x="225" unicode=" "/>
<glyph glyph-name="exclam" horiz-adv-x="240" unicode="!" d="M69 45q0 31 18 49.5t47 18.5q26 0 41.5 -16.5t15.5 -39.5q0 -31 -18 -50t-47 -19q-26 0 -41.5 16t-15.5 41zM150 209l55 435q4 31 19 47t52 16q49 0 49 -33q0 -12 -7 -35l-140 -430h-28z"/>
<glyph glyph-name="quotedbl" horiz-adv-x="402" unicode='&quot;' d="M376 469l12 221q2 27 14.5 39.5t40.5 12.5q46 0 46 -29q0 -8 -5 -23l-80 -221h-28zM206 469l12 221q2 27 14.5 39.5t40.5 12.5q46 0 46 -29q0 -8 -5 -23l-80 -221h-28z"/>
<glyph glyph-name="numbersign" d="M267 279h132l46 131h-132zM89 231l17 48h104l46 131h-105l17 48h105l74 210h56l-73 -210h132l74 210h55l-73 -210h102l-15 -48h-104l-46 -131h103l-15 -48h-105l-81 -231h-56l81 231h-132l-81 -231h-57l81 231h-104z" unicode="#"/>
<glyph glyph-name="dollar" d="M292 35h7q63 0 102 36.5t39 97.5q0 87 -89 129zM251 512q0 -40 20.5 -64t62.5 -45l54 230q-62 0 -99.5 -33t-37.5 -88zM113 170q20 0 28 -24q33 -99 109 -109l64 279q-143 59 -143 166q0 85 62 135.5t160 50.5h3l18 75h40l-17 -77q61 -5 105 -34.5t44 -70.5v-1 q-1 -20 -16 -32.5t-32 -12.5q-22 0 -28 26q-20 80 -81 90l-57 -245q73 -34 113.5 -77t40.5 -114q0 -87 -65.5 -141t-172.5 -54h-5l-23 -109h-42l25 111q-77 5 -127 39.5t-50 77.5q0 22 14.5 36.5t32.5 14.5z" unicode="$"/>
<glyph glyph-name="percent" horiz-adv-x="826" unicode="%" d="M572 98q0 -80 63 -80q33 0 58 28t37 68.5t17.5 74t5.5 55.5q0 80 -59 80q-31 0 -56 -28t-38.5 -67.5t-20.5 -74t-7 -56.5zM495 121q0 35 11 73t33 75t63 61t93 24q67 0 101 -38t34 -99q0 -27 -6 -55.5t-20.5 -60t-35.5 -56.5t-56 -41t-78 -16q-71 0 -105 39t-34 94z M210 424q0 -80 63 -80q33 0 58 28t37 68.5t17.5 74t5.5 55.5q0 80 -59 80q-31 0 -56 -28t-38.5 -67.5t-20.5 -74t-7 -56.5zM133 447q0 35 11 73t33 75t63 61t93 24q59 0 107 -36q16 -13 46 -13h179q42 3 85 46l25 25l30 -24l-605 -703l-31 28l510 594h-216q5 -19 5 -54 q0 -27 -6 -55.5t-20.5 -60t-35.5 -56.5t-56 -41t-78 -16q-71 0 -105 39t-34 94z"/>
<glyph glyph-name="ampersand" horiz-adv-x="725" unicode="&amp;" d="M322 524q0 -67 36 -123q54 26 89.5 68t35.5 95q0 33 -18 57t-54 24q-35 0 -62 -33.5t-27 -87.5zM190 172q0 -53 38 -94t99 -41q81 0 148 62q-104 108 -182 240q-34 -14 -68.5 -56.5t-34.5 -110.5zM95 162q0 35 13 66t29 50t45.5 39t46.5 28.5t48 23.5q-15 25 -25 61.5 t-10 62.5q0 85 51.5 136t123.5 51q61 0 102.5 -34t41.5 -94q0 -34 -14 -61.5t-44 -49t-57.5 -35t-72.5 -31.5q58 -104 162 -216q104 108 118 258q34 17 65 17q8 0 12 -1q8 -23 8 -45q0 -26 -15 -58q-52 -96 -166 -197q3 -3 22 -20.5t27 -24.5t27 -21.5t32 -22t32 -15.5 t37 -11l-4 -25l-50 2q-103 4 -182 80q-105 -87 -212 -87q-92 0 -141.5 51.5t-49.5 122.5z"/>
<glyph glyph-name="quotesingle" horiz-adv-x="216" unicode="&apos;" d="M196 469l12 221q2 27 14.5 39.5t40.5 12.5q46 0 46 -29q0 -8 -5 -23l-80 -221h-28z"/>
<glyph glyph-name="parenleft" horiz-adv-x="350" unicode="(" d="M160 301q40 181 122.5 286t201.5 105h9l-5 -25q-78 -13 -147.5 -100.5t-109.5 -260.5q-23 -99 -23 -179q0 -103 32 -163t69 -69l-6 -23q-76 6 -119 79t-43 190q0 77 19 160z"/>
<glyph glyph-name="parenright" horiz-adv-x="350" unicode=")" d="M-11 -128l5 23q78 13 147.5 101.5t109.5 261.5q23 99 23 179q0 103 -32 162t-69 68l6 25q76 -6 119 -79t43 -190q0 -77 -19 -160q-40 -181 -122.5 -286t-201.5 -105h-9z"/>
<glyph glyph-name="asterisk" horiz-adv-x="412" unicode="*" d="M146 441q-5 12 -5 20q0 19 22 26l120 41q9 3 9 8.5t-10 9.5l-86 31q-20 7 -20 25q0 12 9 25q14 20 29 20q9 0 17 -8l68 -70q6 -6 10.5 -3.5t4.5 12.5l-2 98q0 31 41 31q32 0 32 -19q0 -3 -4 -13l-44 -97q-4 -10 0 -13t13 4l91 71q11 8 20 8q15 0 25 -19q7 -13 7 -23 q0 -17 -19 -23l-119 -39q-19 -7 -13 -15q2 -2 6 -3l96 -39q14 -6 14 -20q0 -13 -12 -28q-15 -18 -27 -18q-10 0 -19 11l-63 71q-7 7 -12 3.5t-5 -12.5l2 -105q1 -18 -9.5 -25.5t-30.5 -7.5q-33 0 -33 23q0 9 4 17l44 98q5 10 1 13.5t-15 -4.5l-84 -71q-15 -12 -27 -12 q-16 0 -26 21z"/>
<glyph glyph-name="plus" horiz-adv-x="570" unicode="+" d="M93 221v58h208v211h68v-211h208v-58h-208v-221h-68v221h-208z"/>
<glyph glyph-name="comma" horiz-adv-x="265" unicode="," d="M46 -116q66 64 71 115v8q0 18 -11 42q-12 29 -12 40q0 21 16 37t40 16h3q25 0 40 -21t15 -47q0 -32 -12 -61t-39.5 -59t-42.5 -44t-51 -44z"/>
<glyph glyph-name="hyphen" horiz-adv-x="392" unicode="-" d="M117 216l14 70h245l-14 -70h-245z"/>
<glyph glyph-name="period" horiz-adv-x="265" unicode="." d="M82 45q0 31 18 49.5t47 18.5q26 0 41.5 -16.5t15.5 -39.5q0 -31 -18 -50t-47 -19q-26 0 -41.5 16t-15.5 41z"/>
<glyph glyph-name="slash" horiz-adv-x="270" unicode="/" d="M35 -15l270 722h71l-270 -722h-71z"/>
<glyph glyph-name="zero" d="M185 162q0 -139 94 -139q57 0 95 58.5t67 158.5q22 73 33.5 151.5t11.5 114.5q0 66 -19.5 102.5t-68.5 36.5q-50 0 -91.5 -55t-70.5 -146q-51 -154 -51 -282zM95 204q0 79 19.5 161.5t53.5 146.5q91 168 229 168q179 0 179 -219q0 -63 -17.5 -146.5t-51.5 -153.5 q-41 -85 -96 -129t-132 -44q-67 0 -110 32.5t-58.5 78.5t-15.5 105z" unicode="0"/>
<glyph glyph-name="one" d="M109 0l6 29l91 7q26 2 33 36l113 506q2 12 2 15q0 17 -14 18l-97 10l8 24l205 35l8 -6l-136 -602q-2 -10 -2 -14q0 -22 23 -24l89 -5l-6 -29h-323z" unicode="1"/>
<glyph glyph-name="two" d="M33 10q22 63 73.5 121.5t159.5 132.5q109 74 158 135t49 131q0 115 -94 115q-87 0 -134 -133q-8 -25 -29 -25q-18 0 -33.5 13.5t-15.5 34.5q0 48 61.5 96.5t152.5 48.5q86 0 139 -42t53 -122q0 -44 -14 -78.5t-52 -67t-62 -48.5t-85 -51l-15 -9q-164 -95 -210 -188h250 q33 0 50 10.5t42 46.5l30 -6l-54 -125h-409z" unicode="2"/>
<glyph glyph-name="three" d="M54 111q0 23 16 39t35 16q21 0 30 -31q29 -112 130 -112q58 0 105 48.5t47 151.5q0 20 -4.5 40t-15.5 40.5t-33 33.5t-53 13q-25 0 -56.5 -5t-34.5 -5q-19 0 -19 22q0 14 6.5 25.5t15.5 11.5q5 0 38 -5.5t59 -5.5q60 0 100.5 45t40.5 109q0 40 -20 71.5t-73 31.5 q-77 0 -118 -105q-11 -27 -31 -27q-15 0 -29.5 12.5t-14.5 33.5q0 44 58.5 82.5t139.5 38.5q45 0 84.5 -12t70.5 -47t31 -90q0 -74 -54 -113t-123 -44v-3q53 -7 96 -46.5t43 -111.5q0 -109 -75.5 -167t-183.5 -58q-97 0 -152.5 40t-55.5 83z" unicode="3"/>
<glyph glyph-name="four" d="M151 233h210l73 340l-2 2q-129 -138 -281 -342zM67 206q232 290 402 462h68l-91 -435h98l-10 -46h-98l-25 -120q-2 -12 -2 -15q0 -19 22 -20l50 -3l-7 -29h-264l8 29l74 5q28 2 34 33l25 120h-275z" unicode="4"/>
<glyph glyph-name="five" d="M59 108q0 23 16.5 39.5t36.5 16.5t28 -29q30 -112 131 -112q64 0 112 58.5t48 148.5q0 70 -32 110.5t-87 40.5q-77 0 -132 -66l-24 12l73 333l10 8h341l5 -11l-42 -63h-248q-14 0 -21 -4.5t-11 -19.5l-54 -187l2 -2q57 46 134 46q88 0 139 -49t51 -136q0 -108 -78 -181 t-193 -73q-96 0 -150.5 38t-54.5 82z" unicode="5"/>
<glyph glyph-name="six" d="M184 168q0 -25 4 -47t15 -46t35 -38t58 -14q62 0 107 60.5t45 163.5q0 56 -29.5 90t-80.5 34q-72 0 -113 -54t-41 -149zM91 207q0 105 34.5 210.5t87.5 167.5q82 95 200 95q89 0 131 -35t42 -73q0 -20 -17.5 -33t-35.5 -13q-24 0 -29 28q-19 91 -94 91q-71 0 -126 -80.5 t-85 -226.5h2q76 82 167 82q87 0 132 -49.5t45 -131.5q0 -61 -26 -116.5t-84.5 -95t-137.5 -39.5q-109 0 -157.5 61t-48.5 158z" unicode="6"/>
<glyph glyph-name="seven" d="M165 530l42 138h420l8 -11q-19 -45 -45.5 -88t-43 -64.5t-62 -75.5t-61.5 -74q-58 -69 -91.5 -143.5t-51.5 -182.5q-4 -24 -15.5 -32.5t-38.5 -8.5q-48 0 -48 37q0 58 47 139.5t167 218.5q118 133 146 211h-241q-37 0 -55.5 -9t-30.5 -29l-16 -26h-30z" unicode="7"/>
<glyph glyph-name="eight" d="M267 477q0 -42 22 -69t70 -27q51 0 86.5 49.5t35.5 123.5q0 39 -23 65t-67 26q-60 0 -92 -53.5t-32 -114.5zM177 151q0 -60 31.5 -94t87.5 -34q67 0 105.5 57t38.5 141q0 57 -30 89.5t-82 32.5q-66 0 -108.5 -56.5t-42.5 -135.5zM81 159q0 88 52.5 145t126.5 66v4 q-82 35 -82 126q0 86 61.5 133t147.5 47q95 0 139 -45t44 -105q0 -68 -40 -109t-99 -53v-3q40 -14 72.5 -55t32.5 -103q0 -97 -63 -158t-181 -61q-105 0 -158 49.5t-53 121.5z" unicode="8"/>
<glyph glyph-name="nine" d="M226 452q0 -60 29 -98t95 -38q57 0 91.5 39t34.5 104q0 87 -25 136.5t-90 49.5q-57 0 -96 -51t-39 -142zM86 96q0 25 15.5 40.5t33.5 15.5q21 0 29 -30q26 -99 102 -99q85 0 140 115q44 93 60 200h-2q-72 -72 -154 -72q-76 0 -126.5 48t-50.5 125q0 109 67.5 175 t162.5 66q208 0 208 -254q0 -85 -27 -179.5t-80 -160.5q-78 -98 -201 -98q-79 0 -128 35t-49 73z" unicode="9"/>
<glyph glyph-name="colon" horiz-adv-x="265" unicode=":" d="M82 45q0 31 18 49.5t47 18.5q26 0 41.5 -16.5t15.5 -39.5q0 -31 -18 -50t-47 -19q-26 0 -41.5 16t-15.5 41zM161 422q0 31 18 49.5t47 18.5q26 0 41.5 -16.5t15.5 -39.5q0 -31 -18 -50t-47 -19q-26 0 -41.5 16t-15.5 41z"/>
<glyph glyph-name="semicolon" horiz-adv-x="265" unicode=";" d="M46 -116q66 64 71 115v8q0 18 -11 42q-12 29 -12 40q0 21 16 37t40 16h3q25 0 40 -21t15 -47q0 -32 -12 -61t-39.5 -59t-42.5 -44t-51 -44zM161 422q0 31 18 49.5t47 18.5q26 0 41.5 -16.5t15.5 -39.5q0 -31 -18 -50t-47 -19q-26 0 -41.5 16t-15.5 41z"/>
<glyph glyph-name="less" horiz-adv-x="570" unicode="&lt;" d="M86 207v81l478 209v-69l-419 -180l419 -180v-67z"/>
<glyph glyph-name="equal" horiz-adv-x="570" unicode="=" d="M93 331v58h484v-58h-484zM93 111v58h484v-58h-484z"/>
<glyph glyph-name="greater" horiz-adv-x="570" unicode="&gt;" d="M86 1v67l419 180l-419 180v69l478 -209v-81z"/>
<glyph glyph-name="question" horiz-adv-x="425" unicode="?" d="M150 45q0 31 18 49.5t47 18.5q26 0 41.5 -16.5t15.5 -39.5q0 -31 -18 -50t-47 -19q-26 0 -41.5 16t-15.5 41zM160 285q0 63 104 123q68 40 101 90.5t33 100.5q0 33 -15 53t-44 20q-59 0 -100 -104q-7 -19 -31 -19q-14 0 -29 12t-15 32q0 37 47 75.5t123 38.5 q72 0 114.5 -35t42.5 -92q0 -59 -30.5 -92t-97.5 -67q-56 -28 -85 -55.5t-29 -63.5q0 -30 18 -44t46 -14q7 0 43 3l6 -17q-43 -31 -98 -31q-42 0 -73 21.5t-31 64.5z"/>
<glyph glyph-name="at" horiz-adv-x="794" unicode="@" d="M382 270q0 -51 34 -51q49 0 108.5 95.5t75.5 175.5q-21 14 -47 14q-37 0 -70.5 -27.5t-54.5 -66.5t-33.5 -77.5t-12.5 -62.5zM123 303q0 122 58.5 216t149 141t195.5 47q139 0 222.5 -84t83.5 -209q0 -101 -67.5 -171.5t-157.5 -70.5q-70 0 -70 63q0 32 14 74l-2 1 q-27 -47 -79 -92.5t-102 -45.5h-2q-27 1 -46.5 20t-19.5 63q0 24 9 57.5t29 72.5t48 71.5t71.5 54.5t94.5 22q30 0 55 -13l4 8h65l-66 -258q-4 -13 -4 -26q0 -34 38 -34q51 0 94.5 61.5t43.5 137.5v6q0 116 -72.5 183.5t-181.5 67.5q-97 0 -173 -52t-115 -133t-39 -174 q0 -50 14.5 -96.5t46 -90t91 -70t139.5 -26.5q96 0 169 31l8 -25q-82 -45 -205 -45q-64 0 -124 20t-109 57.5t-78.5 100t-29.5 140.5z"/>
<glyph glyph-name="A" horiz-adv-x="624" unicode="A" d="M263 305h199l-35 294h-2q-120 -216 -162 -294zM-23 0l6 29l33 4q24 2 40.5 15t39.5 51q3 5 171 298l168 295h71l74 -602q4 -33 11 -44.5t29 -13.5l38 -3l-6 -29h-246l6 29l53 5q26 3 26 28q0 1 -0.5 5t-0.5 6l-23 194h-224q-29 -53 -103 -196q-5 -13 -5 -20q0 -16 18 -17 l55 -5l-6 -29h-225z"/>
<glyph glyph-name="B" horiz-adv-x="632" unicode="B" d="M306 390h65q90 0 139 37q59 47 59 118q0 53 -34 82.5t-97 29.5q-49 0 -61.5 -6t-17.5 -29zM242 99q-3 -12 -3 -22q0 -21 21 -31.5t76 -10.5q94 0 141 52t47 126q0 142 -186 142h-39zM38 0l6 29l56 6q18 2 27.5 12.5t14.5 35.5l118 526q3 13 3 23q0 24 -24 25l-59 6l6 29 h241h13q114 0 168 -33q63 -37 63 -118q0 -62 -47.5 -108.5t-141.5 -57.5l-1 -3q64 -12 107.5 -52.5t43.5 -112.5q0 -36 -12 -68.5t-41.5 -65.5t-90 -53t-146.5 -20h-304z"/>
<glyph glyph-name="C" horiz-adv-x="661" unicode="C" d="M114 275q0 140 68 250q49 80 137 131t218 51q57 0 119 -13.5t102 -39.5l-36 -150h-30v16q0 77 -38 114.5t-125 37.5q-151 0 -236 -142q-35 -58 -53.5 -134t-18.5 -147q0 -112 54.5 -170.5t144.5 -58.5q85 0 133.5 40t95.5 126h30l-49 -159q-84 -42 -203 -42 q-72 0 -127.5 17.5t-90 46t-56.5 67.5t-30.5 78t-8.5 81z"/>
<glyph glyph-name="D" horiz-adv-x="763" unicode="D" d="M239 86q-2 -10 -2 -13q0 -22 21.5 -30t62.5 -8q118 0 190.5 40t118.5 116q65 107 65 242q0 29 -3 54t-16.5 57.5t-36.5 55.5t-67 39.5t-103 17.5q-66 0 -84.5 -6t-24.5 -31zM40 0l6 29l56 6q18 1 27 12t14 36l119 526q3 13 3 23q0 25 -24 26l-59 5l6 29h269 q174 0 259 -72q42 -35 64 -90.5t22 -118.5q0 -129 -67 -230q-120 -181 -388 -181h-307z"/>
<glyph glyph-name="E" horiz-adv-x="596" unicode="E" d="M38 0l6 29l56 6q18 1 26.5 11.5t14.5 36.5l120 528q3 14 3 23q0 24 -25 25l-60 4l7 29h506l-38 -167h-30q4 40 4 54q0 42 -24 60t-94 18h-121q-13 0 -18.5 -5.5t-9.5 -23.5l-57 -249h131q44 0 66.5 8t33.5 23.5t25 53.5h30l-46 -209h-30q1 10 1 27q0 34 -17 46.5 t-71 12.5h-131l-51 -219q-7 -29 -7 -46q0 -18 12 -28q17 -13 112 -13q96 0 139 26t80 115h30l-51 -176h-522z"/>
<glyph glyph-name="F" horiz-adv-x="571" unicode="F" d="M38 0l6 29l56 5q17 1 26.5 12t14.5 34l120 532q3 12 3 20q0 24 -25 25l-59 6l6 29h509l-38 -165h-30q4 40 4 53q0 42 -24 59.5t-94 17.5h-123q-14 0 -19.5 -5.5t-9.5 -24.5l-60 -262h132q63 0 84 15.5t41 70.5h30l-46 -210h-30q1 10 1 27q0 34 -17 46.5t-71 12.5h-132 l-56 -247q-3 -12 -3 -20q0 -25 26 -26l75 -5l-6 -29h-291z"/>
<glyph glyph-name="G" horiz-adv-x="709" unicode="G" d="M114 285q0 157 95 278q113 144 334 144q132 0 224 -50l-36 -156h-30q1 10 1 28q0 65 -35 104t-125 39q-69 0 -124.5 -26t-91 -66.5t-59 -94t-33.5 -105t-10 -102.5q0 -128 57.5 -193t152.5 -65q70 0 94 13.5t30 40.5l37 151q4 13 4 25q0 21 -21 23l-75 7l6 29h263l-6 -29 l-44 -4q-20 -2 -31 -51l-47 -202q-103 -38 -212 -38q-147 0 -233 74q-85 74 -85 226z"/>
<glyph glyph-name="H" horiz-adv-x="775" unicode="H" d="M40 0l6 29l55 6q18 1 27 11.5t15 36.5l120 526q3 12 3 22q0 27 -25 28l-59 4l7 29h274l-7 -29l-55 -5q-18 -1 -27 -12t-15 -37l-53 -230h334l52 230q3 12 3 22q0 27 -25 28l-59 4l7 29h274l-7 -29l-55 -5q-18 -1 -27 -12t-15 -37l-120 -526q-3 -13 -3 -23q0 -26 25 -27 l59 -4l-6 -29h-274l6 29l55 6q18 1 27 11.5t15 36.5l59 258h-334l-58 -258q-3 -14 -3 -23q0 -26 25 -27l59 -4l-6 -29h-274z"/>
<glyph glyph-name="I" horiz-adv-x="345" unicode="I" d="M40 0l6 29l55 6q18 1 27.5 12.5t14.5 35.5l120 526q3 12 3 21q0 28 -25 29l-59 4l7 29h274l-7 -29l-55 -5q-18 -1 -27 -13t-15 -36l-120 -526q-3 -12 -3 -22q0 -27 25 -28l59 -4l-6 -29h-274z"/>
<glyph glyph-name="J" horiz-adv-x="352" unicode="J" d="M-43 -92q79 8 125 50q47 44 80 186l109 468q3 12 3 20q0 25 -26 26l-59 5l7 29h275l-7 -29l-55 -4q-18 -1 -27.5 -12t-14.5 -35l-117 -503q-32 -137 -105 -189q-56 -39 -155 -39q-11 0 -33 2v25z"/>
<glyph glyph-name="K" horiz-adv-x="650" unicode="K" d="M40 0l6 29l55 6q18 1 27.5 12.5t14.5 35.5l120 526q3 12 3 21q0 28 -25 29l-59 4l7 29h274l-7 -29l-55 -5q-18 -1 -27 -13t-15 -36l-54 -237l2 -2q229 194 298 257q15 15 15 23t-14 10l-38 3l4 29h249l-4 -29q-57 -4 -86 -15.5t-76 -44.5q-106 -74 -265 -208 q86 -179 177 -294q32 -39 55 -56.5t62 -20.5l-7 -29l-49 1q-58 2 -95 21t-73 67q-61 83 -156 277h-2l-63 -278q-3 -12 -3 -22q0 -27 25 -28l59 -4l-6 -29h-274z"/>
<glyph glyph-name="L" horiz-adv-x="565" unicode="L" d="M40 0l6 29l55 6q18 2 27 12t15 36l120 526q3 13 3 22q0 26 -25 27l-59 5l7 29h279l-7 -29l-60 -4q-18 -1 -27.5 -12.5t-15.5 -37.5l-111 -487q-7 -29 -7 -46q0 -18 12 -28q17 -13 112 -13q89 0 130.5 26t78.5 115h30l-51 -176h-512z"/>
<glyph glyph-name="M" horiz-adv-x="920" unicode="M" d="M31 0l5 29l31 3q24 2 37 11t22 32q18 50 35 124l94 410q3 13 3 22q0 25 -25 26l-59 6l7 29h194q14 -75 57 -267l56 -277h3l177 270q120 183 173 274h196l-7 -29l-55 -4q-18 -1 -27 -12.5t-15 -37.5l-120 -526q-3 -13 -3 -22q0 -25 25 -26l59 -6l-6 -29h-272l6 29l55 6 q18 1 27 11.5t15 36.5l123 523h-3l-389 -594h-28l-120 594h-2l-92 -407q-16 -72 -21 -124v-7q0 -18 11 -26t35 -10l39 -3l-5 -29h-236z"/>
<glyph glyph-name="N" horiz-adv-x="763" unicode="N" d="M31 0l5 29l31 3q45 4 59 43q18 50 35 124l94 410q3 13 3 22q0 25 -25 26l-59 6l7 29h190q84 -187 256 -561h4l82 362q16 72 21 124v7q0 19 -10 25.5t-36 9.5l-39 4l5 29h236l-5 -29l-31 -3q-45 -4 -59 -43q-18 -50 -35 -124l-112 -493h-65q-184 406 -278 609h-3l-94 -410 q-16 -72 -21 -124v-7q0 -18 11 -26t35 -10l39 -3l-5 -29h-236z"/>
<glyph glyph-name="O" horiz-adv-x="753" unicode="O" d="M219 230q0 -102 48 -156t131 -54q162 0 239 200q47 122 47 246q0 103 -47.5 154.5t-132.5 51.5q-142 0 -223 -168q-62 -131 -62 -274zM114 270q0 136 69 253q111 184 317 184q131 0 210 -73t79 -220q0 -125 -63 -239q-48 -87 -122.5 -138.5t-196.5 -51.5 q-144 0 -218.5 78t-74.5 207z"/>
<glyph glyph-name="P" horiz-adv-x="614" unicode="P" d="M301 357q-3 -12 -3 -21q0 -12 12.5 -16.5t50.5 -4.5q103 0 159 53t56 158q0 131 -150 131q-36 0 -47.5 -7t-16.5 -28zM40 0l6 29l55 6q18 1 27 11.5t15 36.5l120 526q3 13 3 22q0 26 -25 27l-59 5l7 29h234q114 0 177 -36q81 -46 81 -148q0 -56 -26.5 -104t-74.5 -77 q-77 -47 -222 -47h-74l-45 -197q-3 -14 -3 -22q0 -25 25 -26l69 -6l-6 -29h-284z"/>
<glyph glyph-name="Q" horiz-adv-x="753" unicode="Q" d="M219 230q0 -102 48 -156t131 -54q162 0 239 200q47 122 47 246q0 103 -47.5 154.5t-132.5 51.5q-142 0 -223 -168q-62 -131 -62 -274zM114 270q0 136 69 253q111 184 317 184q131 0 210 -73t79 -220q0 -125 -63 -239q-90 -163 -258 -186q24 -38 66 -80q79 -79 159 -79h3 l3 -17q-27 -16 -75 -16q-92 0 -170 66q-66 55 -103 126q-117 15 -177 90t-60 191z"/>
<glyph glyph-name="R" horiz-adv-x="640" unicode="R" d="M302 361h64q98 0 152 46t54 134q0 61 -35 88.5t-90 27.5q-53 0 -66.5 -7t-19.5 -31zM40 0l6 29l55 6q18 2 27 12t15 36l120 526q3 13 3 22q0 26 -25 27l-59 5l7 29h270q218 0 218 -161q0 -73 -56.5 -123t-149.5 -63v-2q30 -8 49.5 -22.5t28 -36.5t11.5 -43t3 -52v-19v-13 q0 -68 14 -93q18 -29 80 -35l-9 -29h-78q-90 0 -101 77q-5 41 -5 97v39q0 38 -2 51q-6 34 -32 49q-19 13 -76 13h-60l-55 -243q-3 -14 -3 -23q0 -25 25 -26l59 -5l-6 -29h-274z"/>
<glyph glyph-name="S" horiz-adv-x="533" unicode="S" d="M69 67l26 153h29v-14q0 -89 47.5 -137.5t118.5 -48.5t111 43.5t40 101.5q0 57 -31.5 93t-96.5 69q-69 33 -107 75t-38 107q0 34 12 67t37 63.5t72 49t109 18.5q114 0 179 -51l-36 -140h-29q2 24 2 35q0 121 -123 121q-64 0 -101.5 -36t-37.5 -91q0 -22 9 -41.5 t18.5 -31.5t32 -27t32.5 -20.5t37 -19.5q78 -40 114 -86.5t36 -112.5q0 -43 -13 -80t-40.5 -69.5t-78.5 -51.5t-121 -20q-59 0 -120 22.5t-89 59.5z"/>
<glyph glyph-name="T" horiz-adv-x="606" unicode="T" d="M137 525l38 167h568l-38 -167h-30q4 40 4 52q0 43 -24.5 61.5t-93.5 18.5h-63l-130 -576q-3 -12 -3 -21q0 -26 29 -27l73 -4l-7 -29h-308l7 29l65 4q22 1 32.5 12.5t15.5 35.5l130 576h-69q-73 0 -107.5 -27.5t-58.5 -104.5h-30z"/>
<glyph glyph-name="U" horiz-adv-x="794" unicode="U" d="M177 256l84 353q3 13 3 22q0 26 -25 27l-59 5l7 29h274l-7 -29l-55 -4q-18 -1 -27 -12.5t-15 -37.5l-79 -340q-13 -56 -13 -101q0 -148 150 -148q96 0 144 62.5t75 177.5l81 349q3 13 3 22q0 26 -25 27l-59 5l7 29h274l-7 -29l-55 -5q-18 -1 -27 -12t-15 -37l-85 -362 q-16 -68 -41.5 -116.5t-54 -76.5t-67 -44t-73 -20.5t-80.5 -4.5q-244 0 -244 185q0 36 11 86z"/>
<glyph glyph-name="V" horiz-adv-x="637" unicode="V" d="M131 663l5 29h250l-5 -29l-64 -6q-18 -3 -18 -21q0 -1 0.5 -5.5t0.5 -6.5q12 -130 30 -258l35 -266h2l143 249q123 214 153 278q6 12 6 19q0 10 -18 12l-55 5l5 29h220l-5 -29q-41 -3 -58 -11t-33 -33q-60 -93 -166 -274l-203 -345h-69l-42 320q-6 50 -18.5 147.5 t-18.5 143.5q-4 26 -11.5 35.5t-25.5 11.5z"/>
<glyph glyph-name="W" horiz-adv-x="946" unicode="W" d="M121 663l6 29h253l-7 -29l-65 -6q-21 -1 -21 -25v-7l33 -503h5l271 552h70l51 -552h4l120 251q86 179 114 249q5 13 5 20q0 13 -14 14l-65 7l5 29h224l-5 -29q-46 -4 -61 -13.5t-36 -46.5q-27 -46 -125 -246l-174 -357h-70l-52 551h-5l-274 -551h-70l-44 616 q-2 23 -7.5 32t-21.5 10z"/>
<glyph glyph-name="X" horiz-adv-x="632" unicode="X" d="M-1 0l6 29q49 5 68.5 12t42.5 32q62 66 236 276q-19 43 -58.5 140t-55.5 131q-11 25 -28 32t-65 11l6 29h260l-6 -29l-52 -4q-21 -1 -21 -18q0 -9 4 -18q62 -152 82 -199h2q82 94 166 204q8 11 8 18q0 12 -17 13l-43 4l6 29h230l-6 -29q-68 -5 -96 -29q-97 -89 -232 -251 q124 -279 135 -303q14 -31 32 -39t71 -12l-6 -29h-270l5 29l52 5q21 1 21 18q0 9 -4 18q-13 33 -30 72t-37.5 87.5t-32.5 75.5h-4q-116 -143 -185 -242q-5 -6 -5 -14q0 -13 19 -14l57 -6l-6 -29h-249z"/>
<glyph glyph-name="Y" horiz-adv-x="591" unicode="Y" d="M131 663l6 29h249l-6 -29l-55 -5q-20 -3 -20 -18q0 -7 1 -11l91 -307h3q150 203 211 308q5 10 5 15q0 13 -20 14l-52 4l6 29h229l-6 -29q-42 -3 -60 -12t-45 -39q-93 -106 -230 -305q-20 -27 -28 -60l-38 -169q-2 -7 -2 -18q0 -22 25 -25l76 -6l-6 -29h-310l6 29l72 7 q19 2 27.5 11.5t13.5 30.5l38 168q4 20 4 28q0 9 -4 25q-77 258 -98 318q-10 29 -22.5 35.5t-60.5 10.5z"/>
<glyph glyph-name="Z" horiz-adv-x="622" unicode="Z" d="M15 13q244 268 583 644h-195q-85 0 -120 -24.5t-65 -109.5h-30l37 169h508l5 -13q-323 -354 -584 -644h203q121 0 168 25t86 116h30l-51 -176h-571z"/>
<glyph glyph-name="bracketleft" horiz-adv-x="330" unicode="[" d="M104 -128l186 820h159l-5 -27q-67 -4 -84 -12.5t-25 -42.5l-150 -656q-3 -15 -3 -24q0 -17 16.5 -22.5t69.5 -8.5l-5 -27h-159z"/>
<glyph glyph-name="backslash" horiz-adv-x="390" unicode="\" d="M124 707h71l211 -722h-71z"/>
<glyph glyph-name="bracketright" horiz-adv-x="330" unicode="]" d="M14 -128l5 27q68 4 84.5 12.5t24.5 42.5l150 656q4 20 4 25q0 16 -17 21.5t-70 8.5l5 27h159l-186 -820h-159z"/>
<glyph glyph-name="asciicircum" horiz-adv-x="570" unicode="^" d="M118 228l196 440h77l191 -440h-76l-154 367l-158 -367h-76z"/>
<glyph glyph-name="underscore" horiz-adv-x="500" unicode="_" d="M0 -75h500v-50h-500v50z"/>
<glyph glyph-name="grave" horiz-adv-x="400" unicode="`" d="M181 680q0 14 13.5 28.5t25.5 14.5q24 0 64 -41l119 -120l-15 -20l-151 84q-56 30 -56 54z"/>
<glyph glyph-name="a" horiz-adv-x="561" unicode="a" d="M165 110q0 -70 44 -70q65 0 165 152q72 108 107 253q-24 22 -61 22q-55 0 -105.5 -40t-81.5 -97.5t-49.5 -117t-18.5 -102.5zM66 107q0 41 13.5 91.5t42.5 104.5t69 98t99.5 72.5t127.5 28.5q43 0 73 -21l5 13h84l-106 -399q-6 -19 -6 -34q0 -21 16 -21q19 0 45 35t45 71 l24 -14q-28 -63 -70.5 -103.5t-95.5 -40.5q-54 0 -54 55q0 26 10 57l34 114h-2q-129 -226 -258 -226q-48 0 -72 34.5t-24 84.5z"/>
<glyph glyph-name="b" horiz-adv-x="559" unicode="b" d="M205 109q0 -38 22 -62t60 -24q51 0 93.5 43t65.5 103t35.5 113t12.5 85q0 83 -54 83q-43 0 -93.5 -49.5t-88.5 -116.5q-53 -96 -53 -175zM82 0l147 639q4 16 4 28q0 11 -5.5 15t-18.5 6l-57 7l6 23l179 24l5 -5l-111 -441h2q56 99 124 152.5t128 53.5q54 0 80.5 -34 t26.5 -92q0 -41 -16 -101.5t-50 -120.5q-41 -73 -105 -119.5t-146 -46.5q-43 0 -78 19.5t-48 50.5l-31 -58h-36z"/>
<glyph glyph-name="c" horiz-adv-x="441" unicode="c" d="M81 148q0 84 34.5 164t102.5 135t153 55q56 0 92.5 -25.5t36.5 -63.5q0 -23 -22 -39.5t-42 -16.5q-26 0 -29 30q-8 80 -60 80q-44 0 -83.5 -48t-61.5 -116.5t-22 -134.5q0 -61 19 -96t69 -35q74 0 160 117l24 -19q-88 -147 -228 -147q-60 0 -101.5 38t-41.5 122z"/>
<glyph glyph-name="d" horiz-adv-x="587" unicode="d" d="M171 112q0 -72 50 -72q37 0 82 44t85 109q73 118 99 254q-22 20 -69 20q-56 0 -105.5 -40t-79 -97.5t-46 -116t-16.5 -101.5zM72 120q0 38 12.5 86t40.5 100.5t66.5 96t96.5 71.5t124 28q52 0 84 -17l2 2l38 161q4 15 4 24q0 16 -22 17l-60 6l6 23l178 24l5 -5l-158 -642 q-6 -28 -6 -35q0 -20 16 -20q19 0 45 35t45 71l24 -14q-28 -63 -70 -103.5t-93 -40.5h-2q-53 0 -53 58q0 23 9 53l33 119h-2q-127 -230 -263 -230q-100 0 -100 132z"/>
<glyph glyph-name="e" horiz-adv-x="453" unicode="e" d="M182 226q119 25 174.5 74.5t55.5 107.5q0 26 -16 42.5t-42 16.5q-58 0 -108.5 -73.5t-63.5 -167.5zM80 152q0 134 83 236q92 114 219 114q59 0 91.5 -29t32.5 -71q0 -54 -42 -96q-78 -72 -284 -114q-1 -7 -1 -16q0 -139 91 -139q27 0 51.5 10.5t46.5 30t35.5 35 t31.5 38.5l23 -20q-88 -143 -229 -143q-25 0 -48 6.5t-47.5 22.5t-39 50.5t-14.5 84.5z"/>
<glyph glyph-name="f" horiz-adv-x="315" unicode="f" d="M-72 -184q0 19 14 34.5t31 15.5q12 0 27 -22q32 -49 53 -49q19 0 32 68l116 589h-89l11 38h87l10 37q25 96 65 146q54 69 140 69q45 0 79.5 -23t34.5 -55q0 -18 -16.5 -31t-32.5 -13q-18 0 -27 17q-17 37 -32 53.5t-35 16.5q-21 0 -36.5 -24t-29.5 -80l-28 -113h130 l-10 -38h-126l-93 -421q-33 -150 -72 -211.5t-112 -61.5q-36 0 -63 17t-28 41z"/>
<glyph glyph-name="g" horiz-adv-x="499" unicode="g" d="M214 301q0 -38 22 -62t61 -24q55 0 89 48.5t34 119.5q0 46 -25 65t-55 19q-44 0 -74 -29.5t-41 -65t-11 -71.5zM122 -87q0 -54 42 -87t108 -33q59 0 98 29t39 84q0 93 -181 119q-38 -6 -72 -34.5t-34 -77.5zM30 -96q0 57 46.5 91.5t107.5 45.5v2q-71 33 -71 75 q0 37 85 72l6 3v2q-30 11 -57 42.5t-27 80.5q0 29 11 59t33.5 59t66.5 47.5t102 18.5q78 0 124 -30l145 40l6 -9l-33 -63l-84 -12q21 -27 21 -69q0 -79 -57 -129t-159 -50q-34 0 -54 3q-44 -11 -44 -39q0 -20 27 -33t94 -29q175 -42 175 -157q0 -79 -69 -123t-175 -44 q-97 0 -158.5 40t-61.5 106z"/>
<glyph glyph-name="h" horiz-adv-x="607" unicode="h" d="M92 -12l146 651q4 16 4 28q0 11 -5.5 15t-18.5 6l-57 7l6 23l180 24l5 -5l-112 -458h3q50 95 123.5 159t141.5 64q81 0 81 -81q0 -28 -11 -64l-79 -262q-7 -23 -7 -34q0 -21 17 -21q19 0 45 35t45 71l24 -14q-28 -63 -69 -103.5t-90 -40.5q-60 0 -60 59q0 20 8 49l82 284 q5 17 5 29q0 41 -37 41q-40 0 -87 -42.5t-79.5 -93t-49.5 -94.5q-26 -66 -67 -220z"/>
<glyph glyph-name="i" horiz-adv-x="317" unicode="i" d="M120 86l84 313q5 18 5 26q0 19 -26 20l-57 5l6 24l182 28l5 -5l-109 -402q-6 -19 -6 -34q0 -21 16 -21q19 0 45 35t45 71l24 -14q-28 -63 -69.5 -103.5t-92.5 -40.5q-58 0 -58 58q0 19 6 40zM244 649q0 26 17.5 46t47.5 20q23 0 38.5 -14t15.5 -41q0 -30 -17.5 -48.5 t-46.5 -18.5q-24 0 -39.5 14.5t-15.5 41.5z"/>
<glyph glyph-name="j" horiz-adv-x="309" unicode="j" d="M-60 -184q0 19 14 34.5t31 15.5q13 0 26 -20q36 -53 57 -53q16 0 23 31l122 571q5 22 5 31q0 18 -20 19l-62 5l6 24l179 28l5 -5l-113 -500q-31 -137 -71 -189q-40 -50 -107 -50q-39 0 -66.5 16.5t-28.5 41.5zM246 649q0 26 17.5 46t47.5 20q23 0 38.5 -14t15.5 -41 q0 -30 -17.5 -48.5t-46.5 -18.5q-24 0 -39.5 14.5t-15.5 41.5z"/>
<glyph glyph-name="k" horiz-adv-x="545" unicode="k" d="M255 267q75 91 155 161q88 74 140 74t52 -49q0 -20 -14.5 -37t-34.5 -17q-14 0 -28 8q-31 19 -49 19q-40 0 -142 -117q28 -101 75 -195q19 -40 31 -55.5t25 -15.5q34 0 80 99l25 -13q-50 -141 -138 -141q-35 0 -59 22.5t-47 72.5q-46 101 -71 184zM92 -12l155 651 q4 16 4 28q0 11 -5.5 15t-18.5 6l-57 7l6 23l179 24l5 -5l-176 -737z"/>
<glyph glyph-name="l" horiz-adv-x="306" unicode="l" d="M116 86l137 553q5 20 5 28q0 18 -25 21l-57 7l6 23l179 24l5 -5l-161 -643q-5 -22 -5 -33q0 -21 15 -21q17 0 45 34t47 72l24 -14q-26 -61 -69.5 -102.5t-93.5 -41.5q-57 0 -57 59q0 21 5 39z"/>
<glyph glyph-name="m" horiz-adv-x="912" unicode="m" d="M98 -12l103 409q5 22 5 30q0 17 -19 18l-61 5l6 24l181 28l5 -5l-63 -207h3q53 97 120 154.5t134 57.5q74 0 74 -74q0 -30 -14 -75l-20 -63h4q55 99 121 155.5t132 56.5q83 0 83 -82q0 -26 -10 -63l-77 -262q-6 -19 -6 -34q0 -21 16 -21q19 0 45 35t45 71l24 -14 q-28 -63 -70 -103.5t-93 -40.5q-59 0 -59 58q0 14 7 40l86 294q5 18 5 29q0 41 -39 41t-83.5 -41t-76 -90t-52.5 -98q-25 -58 -71 -221l-87 -12l26 98l74 280q6 26 6 42q0 42 -36 42q-56 0 -120 -79t-95 -158q-19 -49 -66 -213z"/>
<glyph glyph-name="n" horiz-adv-x="618" unicode="n" d="M98 -12l105 409q6 24 6 29q0 18 -21 19l-62 5l6 24l183 28l5 -5l-65 -218h3q48 93 119.5 158t140.5 65q81 0 81 -81q0 -31 -10 -64l-78 -262q-6 -19 -6 -34q0 -21 16 -21q19 0 45 35t45 71l24 -14q-28 -63 -70 -103.5t-95 -40.5q-57 0 -57 57q0 19 6 41l86 293q4 13 4 29 q0 42 -37 42q-38 0 -83 -41.5t-77.5 -92t-53.5 -98.5q-31 -74 -72 -218z"/>
<glyph glyph-name="o" horiz-adv-x="537" unicode="o" d="M181 129q0 -106 90 -106q39 0 72 28.5t54 70t36 90.5t21 87.5t6 62.5q0 105 -83 105q-47 0 -86 -37t-62 -92t-35.5 -110.5t-12.5 -98.5zM84 169q0 30 7.5 68t28 86t52 87t85.5 65.5t121 26.5q33 0 62.5 -8.5t57 -27t43.5 -54.5t16 -85q0 -112 -63 -211 q-81 -128 -226 -128q-91 0 -137.5 49t-46.5 132z"/>
<glyph glyph-name="p" horiz-adv-x="590" unicode="p" d="M211 53q35 -30 88 -30q57 0 103 42t70.5 101.5t37 112.5t12.5 88q0 83 -54 83q-40 0 -89.5 -48t-88.5 -116q-49 -87 -79 -233zM57 -242l140 639q5 20 5 29q0 18 -20 19l-62 5l6 24l181 28l5 -5l-57 -211h3q55 103 123.5 159.5t128.5 56.5q111 0 111 -134q0 -27 -8.5 -69 t-31.5 -97.5t-56 -102t-90 -79t-126 -32.5q-72 0 -108 22l-55 -240z"/>
<glyph glyph-name="q" horiz-adv-x="559" unicode="q" d="M172 123q0 -83 48 -83q63 0 152 116q85 114 122 290q-29 21 -70 21q-58 0 -108.5 -39.5t-80.5 -96.5t-46.5 -112.5t-16.5 -95.5zM73 107q0 43 12 93.5t40 104.5t67 97.5t99.5 71.5t131.5 28q59 0 98 -22l43 45h38l-178 -747l-93 -20l99 432h-3q-55 -92 -125.5 -147 t-133.5 -55q-41 0 -68 29t-27 90z"/>
<glyph glyph-name="r" horiz-adv-x="402" unicode="r" d="M104 -12l92 409q5 20 5 29q0 18 -20 19l-62 5l6 24l172 28l5 -5l-45 -166h2q40 80 88 125.5t91 45.5q23 0 34.5 -11.5t10.5 -32.5q0 -22 -14.5 -42t-32.5 -20q-16 0 -35.5 12.5t-34.5 12.5q-29 0 -63 -59.5t-61 -157.5q-9 -32 -27 -105.5t-25 -98.5z"/>
<glyph glyph-name="s" horiz-adv-x="389" unicode="s" d="M54 83q0 21 15 37.5t37 16.5q23 0 32 -30q12 -39 37 -61.5t53 -22.5q32 0 52 20t20 55q0 62 -69 117q-88 71 -88 140q0 63 44 105t118 42q61 0 94 -25t33 -53q0 -21 -15.5 -33.5t-32.5 -12.5q-20 0 -28 20q-31 69 -80 69q-27 0 -44.5 -20t-17.5 -45q0 -52 71 -110 q50 -41 71 -76t21 -77q0 -64 -47 -107.5t-126 -43.5q-67 0 -108.5 30t-41.5 65z"/>
<glyph glyph-name="t" horiz-adv-x="341" unicode="t" d="M125 86l90 366h-83l11 38h81l13 49l97 77l12 -7l-34 -119h127l-11 -38h-125l-89 -364q-3 -13 -3 -25q0 -23 18 -23q21 0 52 34.5t53 71.5l22 -17q-33 -62 -80.5 -101.5t-103.5 -39.5q-53 0 -53 57q0 19 6 41z"/>
<glyph glyph-name="u" horiz-adv-x="618" unicode="u" d="M126 450l6 24l182 28l5 -5l-96 -369q-7 -27 -7 -47q0 -41 32 -41q57 0 116 72t98 162q29 68 71 216l89 12l-107 -408q-5 -20 -5 -31q0 -23 18 -23q30 0 92 106l24 -15q-29 -61 -72.5 -102t-94.5 -41q-54 0 -54 56q0 25 8 52l33 114h-2q-48 -93 -120 -157.5t-141 -64.5 q-77 0 -77 79q0 26 10 66l69 264q5 20 5 29q0 18 -20 19z"/>
<glyph glyph-name="v" horiz-adv-x="510" unicode="v" d="M119 450l6 24l177 28l5 -5l-87 -387q-3 -15 -3 -26q0 -44 35 -44h2q40 0 90 50t86.5 125t40.5 141q0 83 -12 125q34 21 73 21q4 0 11.5 -11t13.5 -30t6 -37q-1 -47 -33.5 -120.5t-83.5 -142.5q-128 -173 -242 -173q-35 0 -55 20.5t-20 61.5q0 22 6 49l61 278q4 16 4 29 q0 18 -19 19z"/>
<glyph glyph-name="w" horiz-adv-x="785" unicode="w" d="M122 450l5 24l179 28l5 -5l-88 -376q-5 -23 -5 -35q0 -46 36 -46q54 0 128 112q54 82 113 310q5 17 7 25l86 6l-70 -315q-10 -44 -10 -78q0 -60 43 -60q39 0 86.5 52t81 130t33.5 144q0 73 -12 115q34 21 72 21q4 0 11.5 -10.5t13.5 -29.5t6 -38q-1 -45 -32 -119 t-80 -145q-118 -172 -223 -172q-43 0 -63.5 26.5t-20.5 70.5q0 25 16 107l-2 2q-46 -92 -108.5 -149t-123.5 -57q-35 0 -56 21t-21 64q0 23 6 51l63 273q5 22 5 29q0 18 -20 19z"/>
<glyph glyph-name="x" horiz-adv-x="516" unicode="x" d="M31 39q0 19 12 34.5t31 15.5q10 0 40 -15q16 -9 29 -9q30 0 104 125l28 48l-36 145q-7 31 -13.5 40.5t-18.5 9.5h-4l-75 -5l-3 24l165 50l6 -4l40 -168h2l44 68q65 104 133 104q51 0 51 -43q0 -20 -13 -34t-30 -14q-12 0 -32 8q-15 8 -28 8q-35 0 -116 -144l32 -131 q17 -69 26 -90.5t23 -21.5q10 0 20 7.5t22 26t17.5 28.5t19.5 36l26 -14q-15 -31 -25.5 -48.5t-28 -41t-39.5 -35t-48 -11.5q-36 0 -54.5 29t-34.5 94l-18 78h-2l-40 -66q-19 -30 -25.5 -41t-24 -34.5t-29.5 -32.5t-30.5 -18t-38.5 -9q-29 0 -46.5 14.5t-17.5 36.5z"/>
<glyph glyph-name="y" horiz-adv-x="468" unicode="y" d="M-5 -187q0 22 16 40.5t35 19.5q17 0 35 -24q23 -31 41 -31q15 0 32.5 19.5t31.5 51.5q24 58 24 124q0 116 -33 350q-6 41 -12 54.5t-21 13.5h-2l-68 -2l-3 25l168 48l8 -4q26 -137 40 -437h3q122 210 141 278q13 47 13 122v16q37 25 78 25q4 0 8 -6.5t7 -20t3 -29.5 q0 -8 -3 -19.5t-11 -28t-15 -30t-20.5 -36.5t-21.5 -36.5t-25 -41t-24 -39.5q-28 -45 -57.5 -96t-55 -95t-29.5 -51q-33 -57 -48.5 -82.5t-38 -57.5t-39 -44.5t-38 -21.5t-46.5 -9q-32 0 -52.5 17t-20.5 38z"/>
<glyph glyph-name="z" horiz-adv-x="468" unicode="z" d="M39 18q0 30 24 54q22 23 351 354h-176q-17 0 -29.5 -4.5t-24.5 -19.5t-18.5 -25.5t-22.5 -39.5l-25 11q30 95 67 142h325l8 -14q-123 -120 -346 -353q25 -3 94 -28q77 -29 113 -29q21 0 39.5 20t28 40.5t26.5 61.5l28 -7q-24 -94 -51 -143.5t-71 -49.5q-46 0 -147 40 q-24 9 -49.5 21.5t-39.5 18.5t-21 6q-13 0 -13 -18v-44q0 -11 -16.5 -17.5t-30.5 -6.5q-23 0 -23 30z"/>
<glyph glyph-name="braceleft" horiz-adv-x="340" unicode="{" d="M135 -36q0 45 45 143q34 77 34 107q0 52 -76 55l8 26q32 1 54 11t33.5 24t17.5 37.5t7 42.5t2 47v8q2 41 6.5 71.5t16.5 61.5t31.5 50t51.5 31.5t75 12.5h17l-7 -25q-83 -6 -106 -64q-12 -34 -14 -108q-3 -100 -14 -131q-22 -60 -105 -79v-6q70 -14 70 -70 q0 -39 -47 -140q-38 -86 -37 -116q3 -51 79 -56l-8 -25h-11q-51 0 -87 21.5t-36 70.5z"/>
<glyph glyph-name="bar" horiz-adv-x="270" unicode="|" d="M165 -250v1000h68v-1000h-68z"/>
<glyph glyph-name="braceright" horiz-adv-x="340" unicode="}" d="M15 -128l7 25q83 6 106 64q11 30 14 108q3 100 14 131q22 60 105 79v6q-70 14 -70 70q0 39 47 140q38 81 37 116q-3 51 -79 56l8 25h10q50 0 86.5 -21.5t36.5 -70.5q0 -41 -45 -143q-34 -77 -34 -107q0 -52 76 -55l-8 -26q-31 -1 -52.5 -11.5t-32.5 -20.5t-18 -37.5 t-7.5 -38.5t-2.5 -47q-1 -10 -1 -15q-3 -53 -10 -88.5t-25 -70t-54.5 -51.5t-91.5 -17h-16z"/>
<glyph glyph-name="asciitilde" horiz-adv-x="570" unicode="~" d="M133 201q23 49 52 77.5t78 28.5q34 0 93 -23q65 -23 84 -23q25 0 39.5 11.5t37.5 45.5l40 -25q-46 -101 -120 -101q-28 0 -95 23q-61 23 -90 23q-27 0 -44 -14.5t-34 -47.5z"/>
<glyph glyph-name="uni00A0" horiz-adv-x="225" unicode=" "/>
<glyph glyph-name="exclamdown" horiz-adv-x="240" unicode="¡" d="M151 433q0 31 18 50t47 19q26 0 41.5 -16t15.5 -41q0 -31 -18 -49.5t-47 -18.5q-26 0 -41.5 16.5t-15.5 39.5zM24 -149l140 430h28l-55 -435q-4 -31 -19 -47t-52 -16q-49 0 -49 33q0 12 7 35z"/>
<glyph glyph-name="cent" d="M224 277v-6q0 -113 81 -133l96 425q-54 0 -96 -51t-61 -114.5t-20 -120.5zM409 599l15 70l41 -1l-14 -69q57 -2 102 -29.5t45 -68.5v-1q0 -21 -17.5 -33t-36.5 -12h-2q-22 0 -27 25q-9 38 -29.5 60t-42.5 23l-99 -434q97 0 170 91l22 -19q-73 -112 -202 -114l-24 -108 h-41l24 108q-26 1 -52.5 10.5t-52.5 29t-42.5 57t-16.5 87.5q0 124 78 224t202 104z" unicode="¢"/>
<glyph glyph-name="sterling" d="M44 5l23 40q69 24 115.5 53.5t61.5 76.5q8 24 8 52q0 31 -8 64h-122l9 38h107q-25 75 -25 142v6q2 86 56.5 144.5t154.5 58.5q74 0 117 -31.5t43 -65.5q0 -25 -16 -37t-35 -12t-25 25q-25 86 -102 86q-48 0 -77 -35t-31 -91v-13q0 -22 3.5 -47t8 -41.5t12.5 -46t11 -42.5 h148l-9 -38h-135v-13q0 -23 -4 -46q-16 -92 -131 -156l1 -4h217q12 0 22.5 3t17.5 5.5t15 10t11 10.5t10.5 12.5t8.5 11.5l26 -10l-64 -115h-420z" unicode="£"/>
<glyph glyph-name="currency" d="M181 334q0 -74 42.5 -123t107.5 -49t107.5 49t42.5 123t-42.5 123t-107.5 49t-107.5 -49t-42.5 -123zM108 101q-17 14 -17 28q0 18 25 37l39 30q-46 59 -46 138t46 138l-39 30q-25 19 -25 37q0 14 17 28q12 11 26 11q18 0 36 -26l27 -39q49 46 134 46t134 -46l27 39 q18 26 36 26q14 0 26 -11q17 -14 17 -28q0 -18 -25 -37l-39 -30q46 -59 46 -138t-46 -138l39 -30q25 -19 25 -37q0 -14 -17 -28q-12 -11 -26 -11q-18 0 -36 26l-27 39q-49 -46 -134 -46t-134 46l-27 -39q-18 -26 -36 -26q-14 0 -26 11z" unicode="¤"/>
<glyph glyph-name="yen" d="M107 187l10 36h150l16 88h-149l10 36h130l-67 251q-10 38 -30 39l-35 2l7 29h220l-6 -29l-42 -2q-25 -1 -25 -18q0 -6 1 -10l60 -262h2q26 38 89.5 128.5t85.5 125.5q11 17 11 25t-13 9l-51 4l6 29h193l-6 -29l-21 -1q-37 -1 -73 -50l-181 -241h139l-9 -36h-156l-21 -88 h163l-9 -36h-162l-27 -124q-1 -3 -1 -8q0 -18 26 -21l60 -5l-6 -29h-264l6 29l60 5q27 2 33 29l28 124h-152z" unicode="¥"/>
<glyph glyph-name="brokenbar" horiz-adv-x="270" unicode="¦" d="M165 325v350h68v-350h-68zM165 -175v350h68v-350h-68z"/>
<glyph glyph-name="section" d="M181 403q0 -85 103 -158q126 -87 139 -160q66 50 67 122v3q0 94 -101 165q-121 84 -131 151q-32 -17 -54.5 -49.5t-22.5 -73.5zM138 25q16 0 27 -26q33 -79 103 -79q35 0 60.5 24.5t26.5 64.5v7q0 17 -3.5 31.5t-14 35t-34.5 43.5t-60 47q-122 80 -122 182v5 q1 62 38.5 117t96.5 95q6 48 50 91.5t125 43.5q65 0 101 -25.5t36 -55.5q-1 -20 -16 -30t-32 -10q-15 0 -26 25q-27 61 -84 61q-35 0 -61 -24.5t-27 -60.5q0 -70 99 -133q67 -43 97 -87.5t30 -104.5v-3q-2 -112 -122 -220q-7 -69 -54 -111.5t-128 -42.5q-69 0 -111.5 28.5 t-42.5 62.5q0 24 15.5 36.5t32.5 12.5z" unicode="§"/>
<glyph glyph-name="dieresis" horiz-adv-x="400" unicode="¨" d="M207 621q0 27 17 44t42 17q22 0 35 -14.5t13 -34.5q0 -26 -16 -43.5t-42 -17.5q-23 0 -36 13.5t-13 35.5zM415 621q0 27 17 44t42 17q22 0 35 -14.5t13 -34.5q0 -26 -16 -43.5t-42 -17.5q-23 0 -36 13.5t-13 35.5z"/>
<glyph glyph-name="copyright" horiz-adv-x="836" unicode="©" d="M300 348q0 93 54.5 147.5t156.5 54.5q85 0 133 -31v-98h-20q-9 48 -33.5 74.5t-81.5 26.5q-65 0 -96.5 -47t-31.5 -118q0 -34 6.5 -64t21 -57t41.5 -43t64 -16q48 0 76 24.5t42 78.5h20l-11 -100q-42 -31 -137 -31q-105 0 -154.5 54t-49.5 145zM190 346q0 -133 87 -224.5 t213 -91.5t213 91.5t87 224.5t-87 224.5t-213 91.5t-213 -91.5t-87 -224.5zM126 346q0 150 106.5 255.5t257.5 105.5t257.5 -105.5t106.5 -255.5t-106.5 -255.5t-257.5 -105.5t-257.5 105.5t-106.5 255.5z"/>
<glyph glyph-name="ordfeminine" horiz-adv-x="425" unicode="ª" d="M191 342q0 -35 30 -35q22 0 50.5 25.5t53.5 63.5q45 67 72 153q-10 13 -42 13q-46 0 -85.5 -41t-59 -91t-19.5 -88zM112 341q0 33 15.5 74t43 81t74.5 67t102 27q33 0 55 -13l3 8h73l-70 -241q-5 -18 -5 -26q0 -11 9 -11q22 0 63 64l20 -12q-21 -42 -54 -68t-70 -26 q-39 0 -39 39q0 13 4 26l20 68h-3q-87 -133 -174 -133q-34 0 -50.5 21.5t-16.5 54.5z"/>
<glyph glyph-name="guillemotleft" horiz-adv-x="462" unicode="«" d="M117 223q-3 6 -3 12q0 12 7 19l169 181l20 -17l-102 -163q-6 -11 -6 -21q0 -8 2 -13l55 -165l-23 -15zM312 223q-3 6 -3 12q0 12 7 19l169 181l20 -17l-102 -163q-6 -11 -6 -21q0 -8 2 -13l55 -165l-23 -15z"/>
<glyph glyph-name="logicalnot" horiz-adv-x="570" unicode="¬" d="M93 331v58h484v-287h-68v229h-416z"/>
<glyph glyph-name="uni00AD" horiz-adv-x="392" unicode="­" d="M117 216l14 70h245l-14 -70h-245z"/>
<glyph glyph-name="registered" horiz-adv-x="836" unicode="®" d="M441 362h38q86 0 86 76q0 74 -79 74q-29 0 -37 -4.5t-8 -16.5v-129zM325 159v20l31 4q20 2 20 28v275q0 15 -4 21.5t-16 8.5l-31 4v20h180q130 0 130 -94q0 -40 -26.5 -64t-70.5 -31v-2q41 -10 56 -32.5t22 -63.5q7 -39 27 -62q10 -10 35 -17v-15h-44q-58 0 -73 43 q-7 21 -14.5 57t-11.5 45q-14 30 -60 30h-34v-123q0 -26 22 -28l30 -4v-20h-168zM190 346q0 -133 87 -224.5t213 -91.5t213 91.5t87 224.5t-87 224.5t-213 91.5t-213 -91.5t-87 -224.5zM126 346q0 150 106.5 255.5t257.5 105.5t257.5 -105.5t106.5 -255.5t-106.5 -255.5 t-257.5 -105.5t-257.5 105.5t-106.5 255.5z"/>
<glyph glyph-name="macron" horiz-adv-x="400" unicode="¯" d="M228 597l18 59h278l-18 -59h-278z"/>
<glyph glyph-name="degree" horiz-adv-x="400" unicode="°" d="M243 542q0 -38 24 -64t58 -26q33 0 57.5 26t24.5 64t-24.5 64t-58.5 26q-33 0 -57.5 -26t-23.5 -64zM187 542q-1 56 40 97t98 41q56 0 97 -41t41 -97q0 -57 -41 -97.5t-97 -40.5q-57 0 -97.5 40.5t-40.5 97.5z"/>
<glyph glyph-name="plusminus" horiz-adv-x="570" unicode="±" d="M93 0v58h484v-58h-484zM93 311v58h209v187h68v-187h207v-58h-207v-197h-68v197h-209z"/>
<glyph glyph-name="twosuperior" horiz-adv-x="370" unicode="²" d="M70 281q14 37 54.5 78t90.5 67q136 71 136 161q0 65 -53 65q-26 0 -46.5 -20t-32.5 -59q-6 -21 -28 -21q-14 0 -26 10t-12 22q0 32 41 64t106 32q66 0 100 -30t34 -79t-37 -80t-114 -65q-48 -21 -83 -48.5t-44 -46.5h155q22 0 33.5 7t26.5 26l22 -7l-36 -85h-280z"/>
<glyph glyph-name="threesuperior" horiz-adv-x="370" unicode="³" d="M94 344q0 14 11.5 26.5t29.5 12.5q16 0 25 -26q21 -64 73 -64q37 0 59 30t22 77q0 70 -61 70q-10 0 -31 -3.5t-24 -3.5q-13 0 -13 16q0 13 5 21.5t12 8.5q3 0 25.5 -4t35.5 -4q40 0 61.5 29t21.5 66q0 27 -14 41.5t-37 14.5q-28 0 -44 -16.5t-33 -48.5q-10 -19 -28 -19 q-13 0 -23.5 10t-10.5 21q0 29 38 55t99 26q63 0 97 -27t34 -72q0 -40 -30 -65t-78 -29v-2q43 -8 62 -35.5t19 -60.5q0 -53 -42.5 -88.5t-128.5 -35.5q-60 0 -96 25t-36 54z"/>
<glyph glyph-name="acute" horiz-adv-x="400" unicode="´" d="M249 562l119 120q40 41 64 41q12 0 25.5 -14.5t13.5 -28.5q0 -24 -56 -54l-151 -84z"/>
<glyph glyph-name="uni00B5" horiz-adv-x="618" unicode="µ" d="M49 -187l154 584q5 20 5 29q0 18 -20 19l-62 5l6 24l182 28l5 -5l-96 -369q-7 -27 -7 -47q0 -41 32 -41q57 0 116 72t98 162q29 68 71 216l89 12l-107 -408q-5 -20 -5 -31q0 -23 18 -23q30 0 92 106l24 -15q-29 -61 -72.5 -102t-94.5 -41q-54 0 -54 56q0 25 8 52l33 114 h-2q-47 -92 -118.5 -157t-135.5 -65q-30 0 -54 23l-8 -32q-6 -21 -6 -48q0 -16 4 -40q11 -51 11 -61q0 -24 -29 -43t-54 -19q-26 0 -26 26q0 8 3 19z"/>
<glyph glyph-name="paragraph" horiz-adv-x="560" unicode="¶" d="M237 -101l5 26l76 9q16 2 24 10.5t12 29.5l150 718h168l-5 -26l-70 -9q-16 -2 -23.5 -9t-11.5 -28l-151 -721h-174zM144 437q0 104 78.5 179.5t192.5 75.5h12l-92 -442h-11q-79 0 -129.5 53t-50.5 134z"/>
<glyph glyph-name="periodcentered" horiz-adv-x="265" unicode="·" d="M124 244q0 31 18 49.5t47 18.5q26 0 41.5 -16.5t15.5 -39.5q0 -31 -18 -50t-47 -19q-26 0 -41.5 16t-15.5 41z"/>
<glyph glyph-name="cedilla" horiz-adv-x="400" unicode="¸" d="M97 -220l4 24q18 -2 26 -2q72 0 72 51q0 21 -15 36t-40 16l-3 9l60 86h45l-44 -60q31 -4 52.5 -26.5t21.5 -53.5q0 -5 -2 -17q-7 -33 -38.5 -53t-72.5 -20t-66 10z"/>
<glyph glyph-name="onesuperior" horiz-adv-x="370" unicode="¹" d="M125 272l5 23l51 4q27 1 31 23l62 289q4 18 -14 20l-55 9l3 19l150 21l3 -4l-76 -354q0 -2 -0.5 -4t-0.5 -3q0 -15 23 -16l48 -4l-5 -23h-225z"/>
<glyph glyph-name="ordmasculine" horiz-adv-x="389" unicode="º" d="M199 359q0 -32 15 -49t41 -17q56 0 93 82q29 65 29 119q0 68 -55 68q-53 0 -88 -71t-35 -132zM121 383q0 68 40 125q55 82 157 82q57 0 97 -28t40 -95q0 -61 -39 -120q-57 -82 -162 -82q-64 0 -98.5 32.5t-34.5 85.5z"/>
<glyph glyph-name="guillemotright" horiz-adv-x="462" unicode="»" d="M64 58l102 163q6 11 6 21q0 8 -2 13l-55 165l23 15l119 -182q3 -6 3 -12q0 -12 -7 -19l-169 -181zM259 58l102 163q6 11 6 21q0 8 -2 13l-55 165l23 15l119 -182q3 -6 3 -12q0 -12 -7 -19l-169 -181z"/>
<glyph glyph-name="onequarter" horiz-adv-x="890" unicode="¼" d="M132 272l5 23l51 4q27 1 31 23l62 289q4 18 -14 20l-55 9l3 19l150 21l3 -4l-76 -354q0 -2 -0.5 -4t-0.5 -3q0 -15 23 -16l48 -4l-5 -23h-225zM232 6l536 692l34 -27l-537 -695zM576 137h126l43 192h-6q-73 -73 -163 -192zM515 120q121 150 251 281h62l-56 -264h68 l-10 -33h-65l-11 -54q-1 -3 -1 -7q0 -15 18 -17l33 -3l-5 -23h-193l5 23l46 3q23 2 27 24l11 54h-171z"/>
<glyph glyph-name="onehalf" horiz-adv-x="890" unicode="½" d="M483 9q14 37 54.5 78t90.5 67q136 71 136 161q0 65 -53 65q-26 0 -46.5 -20t-32.5 -59q-6 -21 -28 -21q-14 0 -26 10t-12 22q0 32 41 64t106 32q66 0 100 -30t34 -79t-37 -80t-114 -65q-48 -21 -83 -48.5t-44 -46.5h155q22 0 33.5 7t26.5 26l22 -7l-36 -85h-280zM106 272 l5 23l51 4q27 1 31 23l62 289q4 18 -14 20l-55 9l3 19l150 21l3 -4l-76 -354q0 -2 -0.5 -4t-0.5 -3q0 -15 23 -16l48 -4l-5 -23h-225zM180 6l536 692l34 -27l-537 -695z"/>
<glyph glyph-name="threequarters" horiz-adv-x="890" unicode="¾" d="M140 344q0 14 11.5 26.5t29.5 12.5q16 0 25 -26q21 -64 73 -64q37 0 59 30t22 77q0 70 -61 70q-10 0 -31 -3.5t-24 -3.5q-13 0 -13 16q0 13 5 21.5t12 8.5q4 0 26 -4t35 -4q40 0 61.5 29t21.5 66q0 27 -14 41.5t-37 14.5q-28 0 -44 -16.5t-33 -48.5q-10 -19 -28 -19 q-13 0 -23.5 10t-10.5 21q0 29 38 55t99 26q63 0 97 -27t34 -72q0 -40 -30 -65t-78 -29v-2q43 -8 62 -35.5t19 -60.5q0 -53 -42.5 -88.5t-128.5 -35.5q-60 0 -96 25t-36 54zM255 6l536 692l34 -27l-537 -695zM587 137h126l43 192h-6q-73 -73 -163 -192zM526 120 q121 150 251 281h62l-56 -264h68l-10 -33h-65l-11 -54q-1 -3 -1 -7q0 -15 18 -17l33 -3l-5 -23h-193l5 23l46 3q23 2 27 24l11 54h-171z"/>
<glyph glyph-name="questiondown" horiz-adv-x="425" unicode="¿" d="M257 433q0 31 18 50t47 19q26 0 41.5 -16t15.5 -41q0 -31 -18 -49.5t-47 -18.5q-26 0 -41.5 16.5t-15.5 39.5zM38 -90q0 59 30.5 92t97.5 67q56 28 85 55.5t29 63.5q0 30 -18 44t-46 14q-7 0 -43 -3l-6 17q43 31 98 31q42 0 73 -21.5t31 -64.5q0 -63 -104 -123 q-68 -40 -101 -90.5t-33 -100.5q0 -33 15 -53t44 -20q59 0 100 104q7 19 31 19q14 0 29 -12t15 -32q0 -37 -47 -75.5t-123 -38.5q-72 0 -114.5 35t-42.5 92z"/>
<glyph glyph-name="Agrave" horiz-adv-x="624" unicode="À" d="M263 305h199l-35 294h-2q-120 -216 -162 -294zM-23 0l6 29l33 4q24 2 40.5 15t39.5 51q3 5 171 298l168 295h71l74 -602q4 -33 11 -44.5t29 -13.5l38 -3l-6 -29h-246l6 29l53 5q26 3 26 28q0 1 -0.5 5t-0.5 6l-23 194h-224q-29 -53 -103 -196q-5 -13 -5 -20q0 -16 18 -17 l55 -5l-6 -29h-225zM307 841q0 14 11 32t28 18q16 0 58 -28l145 -99l-11 -22l-170 56q-24 7 -34.5 11.5t-18.5 12.5t-8 19z"/>
<glyph glyph-name="Aacute" horiz-adv-x="624" unicode="Á" d="M263 305h199l-35 294h-2q-120 -216 -162 -294zM-23 0l6 29l33 4q24 2 40.5 15t39.5 51q3 5 171 298l168 295h71l74 -602q4 -33 11 -44.5t29 -13.5l38 -3l-6 -29h-246l6 29l53 5q26 3 26 28q0 1 -0.5 5t-0.5 6l-23 194h-224q-29 -53 -103 -196q-5 -13 -5 -20q0 -16 18 -17 l55 -5l-6 -29h-225zM390 764l145 99q42 28 58 28q17 0 28 -18t11 -32q0 -16 -13 -24t-48 -19l-170 -56z"/>
<glyph glyph-name="Acircumflex" horiz-adv-x="624" unicode="Â" d="M263 305h199l-35 294h-2q-120 -216 -162 -294zM-23 0l6 29l33 4q24 2 40.5 15t39.5 51q3 5 171 298l168 295h71l74 -602q4 -33 11 -44.5t29 -13.5l38 -3l-6 -29h-246l6 29l53 5q26 3 26 28q0 1 -0.5 5t-0.5 6l-23 194h-224q-29 -53 -103 -196q-5 -13 -5 -20q0 -16 18 -17 l55 -5l-6 -29h-225zM315 742l140 111q28 23 42 23q13 0 33 -25l91 -110l-18 -19l-90 59q-21 16 -32 16q-10 0 -36 -14l-117 -61z"/>
<glyph glyph-name="Atilde" horiz-adv-x="624" unicode="Ã" d="M263 305h199l-35 294h-2q-120 -216 -162 -294zM-23 0l6 29l33 4q24 2 40.5 15t39.5 51q3 5 171 298l168 295h71l74 -602q4 -33 11 -44.5t29 -13.5l38 -3l-6 -29h-246l6 29l53 5q26 3 26 28q0 1 -0.5 5t-0.5 6l-23 194h-224q-29 -53 -103 -196q-5 -13 -5 -20q0 -16 18 -17 l55 -5l-6 -29h-225zM299 736q11 22 18 33.5t21 29.5t32 26.5t41 8.5q28 0 79 -19q59 -19 76 -19q20 0 33 9t35 37l20 -11q-25 -49 -47.5 -72t-56.5 -23q-19 0 -80 19q-55 19 -80 19q-24 0 -39.5 -11.5t-32.5 -39.5z"/>
<glyph glyph-name="Adieresis" horiz-adv-x="624" unicode="Ä" d="M263 305h199l-35 294h-2q-120 -216 -162 -294zM-23 0l6 29l33 4q24 2 40.5 15t39.5 51q3 5 171 298l168 295h71l74 -602q4 -33 11 -44.5t29 -13.5l38 -3l-6 -29h-246l6 29l53 5q26 3 26 28q0 1 -0.5 5t-0.5 6l-23 194h-224q-29 -53 -103 -196q-5 -13 -5 -20q0 -16 18 -17 l55 -5l-6 -29h-225zM320 787q0 27 17 44t42 17q22 0 35 -14.5t13 -34.5q0 -26 -16 -43.5t-42 -17.5q-23 0 -36 13.5t-13 35.5zM528 787q0 27 17 44t42 17q22 0 35 -14.5t13 -34.5q0 -26 -16 -43.5t-42 -17.5q-23 0 -36 13.5t-13 35.5z"/>
<glyph glyph-name="Aring" horiz-adv-x="624" unicode="Å" d="M426 745q0 -26 11.5 -39.5t29.5 -13.5q25 0 40 19t18 36t3 33q0 22 -11.5 35t-28.5 13q-32 0 -47 -28.5t-15 -54.5zM263 305h199l-35 294h-2q-134 -241 -162 -294zM-23 0l6 29l33 4q24 2 40.5 15t39.5 51q3 5 171 298l156 269q-54 21 -54 79q0 16 5 33t16.5 37t38 33 t62.5 13q39 0 66.5 -24t27.5 -67q0 -45 -22 -71t-54 -34l71 -575q4 -33 11 -44.5t29 -13.5l38 -3l-6 -29h-246l6 29l53 5q26 3 26 28q0 1 -0.5 5t-0.5 6l-23 194h-224q-29 -53 -103 -196q-5 -13 -5 -20q0 -16 18 -17l55 -5l-6 -29h-225z"/>
<glyph glyph-name="AE" horiz-adv-x="880" unicode="Æ" d="M343 379h149l63 275h-5zM-53 0l8 29l34 3q20 2 33.5 12t31.5 32q120 146 398 523q25 33 25 47q0 11 -13 11l-67 6l9 29h570l-38 -167h-30q4 40 4 54q0 42 -24 60t-94 18h-121q-13 0 -18.5 -5.5t-9.5 -23.5l-57 -249h131q44 0 66.5 8t33.5 23.5t25 53.5h30l-46 -209h-30 q1 10 1 27q0 34 -17 46.5t-71 12.5h-131l-51 -219q-7 -29 -7 -46q0 -18 12 -28q17 -13 112 -13q96 0 139 26t80 115h30l-51 -176h-522l6 29l56 6q18 1 26.5 11.5t14.5 36.5l58 258h-167q-116 -155 -189 -270q-9 -13 -9 -22q0 -13 16 -15l59 -5l-8 -29h-238z"/>
<glyph glyph-name="Ccedilla" horiz-adv-x="661" unicode="Ç" d="M114 275q0 140 68 250q49 80 137 131t218 51q57 0 119 -13.5t102 -39.5l-36 -150h-30v16q0 77 -38 114.5t-125 37.5q-151 0 -236 -142q-35 -58 -53.5 -134t-18.5 -147q0 -112 54.5 -170.5t144.5 -58.5q85 0 133.5 40t95.5 126h30l-49 -159q-84 -42 -203 -42h-7l-33 -45 q31 -4 52.5 -26.5t21.5 -53.5q0 -5 -2 -17q-7 -33 -38.5 -53t-72.5 -20t-66 10l4 24q18 -2 26 -2q72 0 72 51q0 21 -15 36t-40 16l-3 9l51 74q-60 5 -106.5 25.5t-75.5 48.5t-48 64.5t-26 73t-7 75.5z"/>
<glyph glyph-name="Egrave" horiz-adv-x="596" unicode="È" d="M38 0l6 29l56 6q18 1 26.5 11.5t14.5 36.5l120 528q3 14 3 23q0 24 -25 25l-60 4l7 29h506l-38 -167h-30q4 40 4 54q0 42 -24 60t-94 18h-121q-13 0 -18.5 -5.5t-9.5 -23.5l-57 -249h131q44 0 66.5 8t33.5 23.5t25 53.5h30l-46 -209h-30q1 10 1 27q0 34 -17 46.5 t-71 12.5h-131l-51 -219q-7 -29 -7 -46q0 -18 12 -28q17 -13 112 -13q96 0 139 26t80 115h30l-51 -176h-522zM313 841q0 14 11 32t28 18q16 0 58 -28l145 -99l-11 -22l-170 56q-24 7 -34.5 11.5t-18.5 12.5t-8 19z"/>
<glyph glyph-name="Eacute" horiz-adv-x="596" unicode="É" d="M38 0l6 29l56 6q18 1 26.5 11.5t14.5 36.5l120 528q3 14 3 23q0 24 -25 25l-60 4l7 29h506l-38 -167h-30q4 40 4 54q0 42 -24 60t-94 18h-121q-13 0 -18.5 -5.5t-9.5 -23.5l-57 -249h131q44 0 66.5 8t33.5 23.5t25 53.5h30l-46 -209h-30q1 10 1 27q0 34 -17 46.5 t-71 12.5h-131l-51 -219q-7 -29 -7 -46q0 -18 12 -28q17 -13 112 -13q96 0 139 26t80 115h30l-51 -176h-522zM399 764l145 99q42 28 58 28q17 0 28 -18t11 -32q0 -16 -13 -24t-48 -19l-170 -56z"/>
<glyph glyph-name="Ecircumflex" horiz-adv-x="596" unicode="Ê" d="M38 0l6 29l56 6q18 1 26.5 11.5t14.5 36.5l120 528q3 14 3 23q0 24 -25 25l-60 4l7 29h506l-38 -167h-30q4 40 4 54q0 42 -24 60t-94 18h-121q-13 0 -18.5 -5.5t-9.5 -23.5l-57 -249h131q44 0 66.5 8t33.5 23.5t25 53.5h30l-46 -209h-30q1 10 1 27q0 34 -17 46.5 t-71 12.5h-131l-51 -219q-7 -29 -7 -46q0 -18 12 -28q17 -13 112 -13q96 0 139 26t80 115h30l-51 -176h-522zM307 742l140 111q28 23 42 23q13 0 33 -25l91 -110l-18 -19l-90 59q-21 16 -32 16q-10 0 -36 -14l-117 -61z"/>
<glyph glyph-name="Edieresis" horiz-adv-x="596" unicode="Ë" d="M38 0l6 29l56 6q18 1 26.5 11.5t14.5 36.5l120 528q3 14 3 23q0 24 -25 25l-60 4l7 29h506l-38 -167h-30q4 40 4 54q0 42 -24 60t-94 18h-121q-13 0 -18.5 -5.5t-9.5 -23.5l-57 -249h131q44 0 66.5 8t33.5 23.5t25 53.5h30l-46 -209h-30q1 10 1 27q0 34 -17 46.5 t-71 12.5h-131l-51 -219q-7 -29 -7 -46q0 -18 12 -28q17 -13 112 -13q96 0 139 26t80 115h30l-51 -176h-522zM306 787q0 27 17 44t42 17q22 0 35 -14.5t13 -34.5q0 -26 -16 -43.5t-42 -17.5q-23 0 -36 13.5t-13 35.5zM514 787q0 27 17 44t42 17q22 0 35 -14.5t13 -34.5 q0 -26 -16 -43.5t-42 -17.5q-23 0 -36 13.5t-13 35.5z"/>
<glyph glyph-name="Igrave" horiz-adv-x="345" unicode="Ì" d="M40 0l6 29l55 6q18 1 27.5 12.5t14.5 35.5l120 526q3 12 3 21q0 28 -25 29l-59 4l7 29h274l-7 -29l-55 -5q-18 -1 -27 -13t-15 -36l-120 -526q-3 -12 -3 -22q0 -27 25 -28l59 -4l-6 -29h-274zM182 841q0 14 11 32t28 18q16 0 58 -28l145 -99l-11 -22l-170 56 q-24 7 -34.5 11.5t-18.5 12.5t-8 19z"/>
<glyph glyph-name="Iacute" horiz-adv-x="345" unicode="Í" d="M40 0l6 29l55 6q18 1 27.5 12.5t14.5 35.5l120 526q3 12 3 21q0 28 -25 29l-59 4l7 29h274l-7 -29l-55 -5q-18 -1 -27 -13t-15 -36l-120 -526q-3 -12 -3 -22q0 -27 25 -28l59 -4l-6 -29h-274zM244 764l145 99q42 28 58 28q17 0 28 -18t11 -32q0 -16 -13 -24t-48 -19 l-170 -56z"/>
<glyph glyph-name="Icircumflex" horiz-adv-x="345" unicode="Î" d="M40 0l6 29l55 6q18 1 27.5 12.5t14.5 35.5l120 526q3 12 3 21q0 28 -25 29l-59 4l7 29h274l-7 -29l-55 -5q-18 -1 -27 -13t-15 -36l-120 -526q-3 -12 -3 -22q0 -27 25 -28l59 -4l-6 -29h-274zM182 742l140 111q28 23 42 23q13 0 33 -25l91 -110l-18 -19l-90 59 q-21 16 -32 16q-10 0 -36 -14l-117 -61z"/>
<glyph glyph-name="Idieresis" horiz-adv-x="345" unicode="Ï" d="M40 0l6 29l55 6q18 1 27.5 12.5t14.5 35.5l120 526q3 12 3 21q0 28 -25 29l-59 4l7 29h274l-7 -29l-55 -5q-18 -1 -27 -13t-15 -36l-120 -526q-3 -12 -3 -22q0 -27 25 -28l59 -4l-6 -29h-274zM181 787q0 27 17 44t42 17q22 0 35 -14.5t13 -34.5q0 -26 -16 -43.5 t-42 -17.5q-23 0 -36 13.5t-13 35.5zM389 787q0 27 17 44t42 17q22 0 35 -14.5t13 -34.5q0 -26 -16 -43.5t-42 -17.5q-23 0 -36 13.5t-13 35.5z"/>
<glyph glyph-name="Eth" horiz-adv-x="770" unicode="Ð" d="M246 86q-2 -10 -2 -13q0 -22 21.5 -30t62.5 -8q118 0 190.5 40t118.5 116q65 107 65 242q0 29 -3 54t-16.5 57.5t-36.5 55.5t-67 39.5t-103 17.5q-63 0 -83 -6t-26 -31l-54 -241h137l-11 -38h-135zM47 0l6 29l56 6q18 1 27 12t14 36l58 258h-107l10 38h106l52 230 q3 13 3 23q0 25 -24 26l-59 5l6 29h269q174 0 259 -72q42 -35 64 -90.5t22 -118.5q0 -129 -67 -230q-120 -181 -388 -181h-307z"/>
<glyph glyph-name="Ntilde" horiz-adv-x="763" unicode="Ñ" d="M31 0l5 29l31 3q45 4 59 43q18 50 35 124l94 410q3 13 3 22q0 25 -25 26l-59 6l7 29h190q84 -187 256 -561h4l82 362q16 72 21 124v7q0 19 -10 25.5t-36 9.5l-39 4l5 29h236l-5 -29l-31 -3q-45 -4 -59 -43q-18 -50 -35 -124l-112 -493h-65q-184 406 -278 609h-3l-94 -410 q-16 -72 -21 -124v-7q0 -18 11 -26t35 -10l39 -3l-5 -29h-236zM369 736q11 22 18 33.5t21 29.5t32 26.5t41 8.5q28 0 79 -19q59 -19 76 -19q20 0 33 9t35 37l20 -11q-25 -49 -47.5 -72t-56.5 -23q-19 0 -80 19q-55 19 -80 19q-24 0 -39.5 -11.5t-32.5 -39.5z"/>
<glyph glyph-name="Ograve" horiz-adv-x="753" unicode="Ò" d="M219 230q0 -102 48 -156t131 -54q162 0 239 200q47 122 47 246q0 103 -47.5 154.5t-132.5 51.5q-142 0 -223 -168q-62 -131 -62 -274zM114 270q0 136 69 253q111 184 317 184q131 0 210 -73t79 -220q0 -125 -63 -239q-48 -87 -122.5 -138.5t-196.5 -51.5 q-144 0 -218.5 78t-74.5 207zM377 841q0 14 11 32t28 18q16 0 58 -28l145 -99l-11 -22l-170 56q-24 7 -34.5 11.5t-18.5 12.5t-8 19z"/>
<glyph glyph-name="Oacute" horiz-adv-x="753" unicode="Ó" d="M219 230q0 -102 48 -156t131 -54q162 0 239 200q47 122 47 246q0 103 -47.5 154.5t-132.5 51.5q-142 0 -223 -168q-62 -131 -62 -274zM114 270q0 136 69 253q111 184 317 184q131 0 210 -73t79 -220q0 -125 -63 -239q-48 -87 -122.5 -138.5t-196.5 -51.5 q-144 0 -218.5 78t-74.5 207zM450 764l145 99q42 28 58 28q17 0 28 -18t11 -32q0 -16 -13 -24t-48 -19l-170 -56z"/>
<glyph glyph-name="Ocircumflex" horiz-adv-x="753" unicode="Ô" d="M219 230q0 -102 48 -156t131 -54q162 0 239 200q47 122 47 246q0 103 -47.5 154.5t-132.5 51.5q-142 0 -223 -168q-62 -131 -62 -274zM114 270q0 136 69 253q111 184 317 184q131 0 210 -73t79 -220q0 -125 -63 -239q-48 -87 -122.5 -138.5t-196.5 -51.5 q-144 0 -218.5 78t-74.5 207zM374 742l140 111q28 23 42 23q13 0 33 -25l91 -110l-18 -19l-90 59q-21 16 -32 16q-10 0 -36 -14l-117 -61z"/>
<glyph glyph-name="Otilde" horiz-adv-x="753" unicode="Õ" d="M219 230q0 -102 48 -156t131 -54q162 0 239 200q47 122 47 246q0 103 -47.5 154.5t-132.5 51.5q-142 0 -223 -168q-62 -131 -62 -274zM114 270q0 136 69 253q111 184 317 184q131 0 210 -73t79 -220q0 -125 -63 -239q-48 -87 -122.5 -138.5t-196.5 -51.5 q-144 0 -218.5 78t-74.5 207zM352 736q11 22 18 33.5t21 29.5t32 26.5t41 8.5q28 0 79 -19q59 -19 76 -19q20 0 33 9t35 37l20 -11q-25 -49 -47.5 -72t-56.5 -23q-19 0 -80 19q-55 19 -80 19q-24 0 -39.5 -11.5t-32.5 -39.5z"/>
<glyph glyph-name="Odieresis" horiz-adv-x="753" unicode="Ö" d="M219 230q0 -102 48 -156t131 -54q162 0 239 200q47 122 47 246q0 103 -47.5 154.5t-132.5 51.5q-142 0 -223 -168q-62 -131 -62 -274zM114 270q0 136 69 253q111 184 317 184q131 0 210 -73t79 -220q0 -125 -63 -239q-48 -87 -122.5 -138.5t-196.5 -51.5 q-144 0 -218.5 78t-74.5 207zM385 787q0 27 17 44t42 17q22 0 35 -14.5t13 -34.5q0 -26 -16 -43.5t-42 -17.5q-23 0 -36 13.5t-13 35.5zM593 787q0 27 17 44t42 17q22 0 35 -14.5t13 -34.5q0 -26 -16 -43.5t-42 -17.5q-23 0 -36 13.5t-13 35.5z"/>
<glyph glyph-name="multiply" horiz-adv-x="570" unicode="×" d="M123 66l179 184l-179 182l41 46l181 -184l180 184l42 -46l-179 -182l179 -184l-42 -44l-180 184l-181 -184z"/>
<glyph glyph-name="Oslash" horiz-adv-x="753" unicode="Ø" d="M263 79q47 -59 135 -59q162 0 239 200q47 122 47 246q0 70 -23 116zM219 230q0 -68 22 -113l396 502q-46 53 -133 53q-142 0 -223 -168q-62 -131 -62 -274zM114 270q0 136 69 253q111 184 317 184q103 0 172 -44l58 73l32 -26l-57 -72q84 -74 84 -224q0 -125 -63 -239 q-48 -87 -122.5 -138.5t-196.5 -51.5q-110 0 -180 48l-62 -78l-30 28l59 75q-80 75 -80 212z"/>
<glyph glyph-name="Ugrave" horiz-adv-x="794" unicode="Ù" d="M177 256l84 353q3 13 3 22q0 26 -25 27l-59 5l7 29h274l-7 -29l-55 -4q-18 -1 -27 -12.5t-15 -37.5l-79 -340q-13 -56 -13 -101q0 -148 150 -148q96 0 144 62.5t75 177.5l81 349q3 13 3 22q0 26 -25 27l-59 5l7 29h274l-7 -29l-55 -5q-18 -1 -27 -12t-15 -37l-85 -362 q-16 -68 -41.5 -116.5t-54 -76.5t-67 -44t-73 -20.5t-80.5 -4.5q-244 0 -244 185q0 36 11 86zM362 841q0 14 11 32t28 18q16 0 58 -28l145 -99l-11 -22l-170 56q-24 7 -34.5 11.5t-18.5 12.5t-8 19z"/>
<glyph glyph-name="Uacute" horiz-adv-x="794" unicode="Ú" d="M177 256l84 353q3 13 3 22q0 26 -25 27l-59 5l7 29h274l-7 -29l-55 -4q-18 -1 -27 -12.5t-15 -37.5l-79 -340q-13 -56 -13 -101q0 -148 150 -148q96 0 144 62.5t75 177.5l81 349q3 13 3 22q0 26 -25 27l-59 5l7 29h274l-7 -29l-55 -5q-18 -1 -27 -12t-15 -37l-85 -362 q-16 -68 -41.5 -116.5t-54 -76.5t-67 -44t-73 -20.5t-80.5 -4.5q-244 0 -244 185q0 36 11 86zM510 764l145 99q42 28 58 28q17 0 28 -18t11 -32q0 -16 -13 -24t-48 -19l-170 -56z"/>
<glyph glyph-name="Ucircumflex" horiz-adv-x="794" unicode="Û" d="M177 256l84 353q3 13 3 22q0 26 -25 27l-59 5l7 29h274l-7 -29l-55 -4q-18 -1 -27 -12.5t-15 -37.5l-79 -340q-13 -56 -13 -101q0 -148 150 -148q96 0 144 62.5t75 177.5l81 349q3 13 3 22q0 26 -25 27l-59 5l7 29h274l-7 -29l-55 -5q-18 -1 -27 -12t-15 -37l-85 -362 q-16 -68 -41.5 -116.5t-54 -76.5t-67 -44t-73 -20.5t-80.5 -4.5q-244 0 -244 185q0 36 11 86zM404 742l140 111q28 23 42 23q13 0 33 -25l91 -110l-18 -19l-90 59q-21 16 -32 16q-10 0 -36 -14l-117 -61z"/>
<glyph glyph-name="Udieresis" horiz-adv-x="794" unicode="Ü" d="M177 256l84 353q3 13 3 22q0 26 -25 27l-59 5l7 29h274l-7 -29l-55 -4q-18 -1 -27 -12.5t-15 -37.5l-79 -340q-13 -56 -13 -101q0 -148 150 -148q96 0 144 62.5t75 177.5l81 349q3 13 3 22q0 26 -25 27l-59 5l7 29h274l-7 -29l-55 -5q-18 -1 -27 -12t-15 -37l-85 -362 q-16 -68 -41.5 -116.5t-54 -76.5t-67 -44t-73 -20.5t-80.5 -4.5q-244 0 -244 185q0 36 11 86zM410 787q0 27 17 44t42 17q22 0 35 -14.5t13 -34.5q0 -26 -16 -43.5t-42 -17.5q-23 0 -36 13.5t-13 35.5zM618 787q0 27 17 44t42 17q22 0 35 -14.5t13 -34.5q0 -26 -16 -43.5 t-42 -17.5q-23 0 -36 13.5t-13 35.5z"/>
<glyph glyph-name="Yacute" horiz-adv-x="591" unicode="Ý" d="M131 663l6 29h249l-6 -29l-55 -5q-20 -3 -20 -18q0 -7 1 -11l91 -307h3q150 203 211 308q5 10 5 15q0 13 -20 14l-52 4l6 29h229l-6 -29q-42 -3 -60 -12t-45 -39q-93 -106 -230 -305q-20 -27 -28 -60l-38 -169q-2 -7 -2 -18q0 -22 25 -25l76 -6l-6 -29h-310l6 29l72 7 q19 2 27.5 11.5t13.5 30.5l38 168q4 20 4 28q0 9 -4 25q-77 258 -98 318q-10 29 -22.5 35.5t-60.5 10.5zM459 764l145 99q42 28 58 28q17 0 28 -18t11 -32q0 -16 -13 -24t-48 -19l-170 -56z"/>
<glyph glyph-name="Thorn" horiz-adv-x="604" unicode="Þ" d="M278 251q-2 -8 -2 -11q0 -23 68 -23q89 0 145.5 44.5t56.5 132.5q0 55 -33.5 86.5t-98.5 31.5q-48 0 -64 -7.5t-21 -28.5zM40 0l6 29l55 6q18 2 27 12.5t15 35.5l120 526q3 13 3 22q0 25 -25 26l-59 6l7 29h274l-7 -29l-55 -5q-18 -1 -27 -12t-15 -37l-14 -62h74 q103 0 167.5 -38.5t64.5 -124.5q0 -42 -14 -76t-39.5 -55t-55 -36t-65 -22t-65 -10t-60.5 -3h-91l-22 -99q-3 -12 -3 -21q0 -26 27 -27l59 -6l-6 -29h-276z"/>
<glyph glyph-name="germandbls" horiz-adv-x="577" unicode="ß" d="M-72 -184q0 19 14 34.5t31 15.5q12 0 27 -22q32 -49 54 -49q18 0 23 30l123 627h-88l11 38h87l7 22q12 41 30.5 76.5t49.5 72.5t80.5 59t111.5 22h4q82 0 127 -37.5t45 -98.5q0 -69 -73 -135h-6q-72 0 -101.5 -25.5t-29.5 -58.5q0 -9 2 -18t7 -19t9 -17t12 -18t11.5 -16 t13 -16.5t11.5 -13.5q57 -72 57 -132q0 -63 -43 -106t-117 -43q-44 0 -79 18t-36 40q-1 18 12.5 31.5t28.5 13.5q16 0 27 -17q33 -49 76 -49q24 0 41 18t17 50q0 50 -66 129q-60 71 -60 128q0 61 41.5 99.5t102.5 41.5q58 49 58 120q0 47 -28.5 71.5t-62.5 24.5 q-77 0 -123.5 -78t-81.5 -234l-82 -364q-34 -150 -73 -211.5t-111 -61.5q-36 0 -63 17t-28 41z"/>
<glyph glyph-name="agrave" horiz-adv-x="561" unicode="à" d="M272 680q0 14 13.5 28.5t25.5 14.5q24 0 64 -41l119 -120l-15 -20l-151 84q-56 30 -56 54zM165 110q0 -70 44 -70q65 0 165 152q72 108 107 253q-24 22 -61 22q-55 0 -105.5 -40t-81.5 -97.5t-49.5 -117t-18.5 -102.5zM66 107q0 41 13.5 91.5t42.5 104.5t69 98t99.5 72.5 t127.5 28.5q43 0 73 -21l5 13h84l-106 -399q-6 -19 -6 -34q0 -21 16 -21q19 0 45 35t45 71l24 -14q-28 -63 -70.5 -103.5t-95.5 -40.5q-54 0 -54 55q0 26 10 57l34 114h-2q-129 -226 -258 -226q-48 0 -72 34.5t-24 84.5z"/>
<glyph glyph-name="aacute" horiz-adv-x="561" unicode="á" d="M165 110q0 -70 44 -70q65 0 165 152q72 108 107 253q-24 22 -61 22q-55 0 -105.5 -40t-81.5 -97.5t-49.5 -117t-18.5 -102.5zM66 107q0 41 13.5 91.5t42.5 104.5t69 98t99.5 72.5t127.5 28.5q43 0 73 -21l5 13h84l-106 -399q-6 -19 -6 -34q0 -21 16 -21q19 0 45 35t45 71 l24 -14q-28 -63 -70.5 -103.5t-95.5 -40.5q-54 0 -54 55q0 26 10 57l34 114h-2q-129 -226 -258 -226q-48 0 -72 34.5t-24 84.5zM370 562l119 120q40 41 64 41q12 0 25.5 -14.5t13.5 -28.5q0 -24 -56 -54l-151 -84z"/>
<glyph glyph-name="acircumflex" horiz-adv-x="561" unicode="â" d="M165 110q0 -70 44 -70q65 0 165 152q72 108 107 253q-24 22 -61 22q-55 0 -105.5 -40t-81.5 -97.5t-49.5 -117t-18.5 -102.5zM66 107q0 41 13.5 91.5t42.5 104.5t69 98t99.5 72.5t127.5 28.5q43 0 73 -21l5 13h84l-106 -399q-6 -19 -6 -34q0 -21 16 -21q19 0 45 35t45 71 l24 -14q-28 -63 -70.5 -103.5t-95.5 -40.5q-54 0 -54 55q0 26 10 57l34 114h-2q-129 -226 -258 -226q-48 0 -72 34.5t-24 84.5zM279 567l138 129q28 24 40 24t30 -24l89 -129l-23 -21l-85 75q-19 15 -28 15q-10 0 -32 -15l-115 -75z"/>
<glyph glyph-name="atilde" horiz-adv-x="561" unicode="ã" d="M165 110q0 -70 44 -70q65 0 165 152q72 108 107 253q-24 22 -61 22q-55 0 -105.5 -40t-81.5 -97.5t-49.5 -117t-18.5 -102.5zM66 107q0 41 13.5 91.5t42.5 104.5t69 98t99.5 72.5t127.5 28.5q43 0 73 -21l5 13h84l-106 -399q-6 -19 -6 -34q0 -21 16 -21q19 0 45 35t45 71 l24 -14q-28 -63 -70.5 -103.5t-95.5 -40.5q-54 0 -54 55q0 26 10 57l34 114h-2q-129 -226 -258 -226q-48 0 -72 34.5t-24 84.5zM229 576q11 22 18 33.5t21 29.5t32 26.5t41 8.5q28 0 79 -19q59 -19 76 -19q20 0 33 9t35 37l20 -11q-25 -49 -47.5 -72t-56.5 -23q-19 0 -80 19 q-55 19 -80 19q-24 0 -39.5 -11.5t-32.5 -39.5z"/>
<glyph glyph-name="adieresis" horiz-adv-x="561" unicode="ä" d="M165 110q0 -70 44 -70q65 0 165 152q72 108 107 253q-24 22 -61 22q-55 0 -105.5 -40t-81.5 -97.5t-49.5 -117t-18.5 -102.5zM66 107q0 41 13.5 91.5t42.5 104.5t69 98t99.5 72.5t127.5 28.5q43 0 73 -21l5 13h84l-106 -399q-6 -19 -6 -34q0 -21 16 -21q19 0 45 35t45 71 l24 -14q-28 -63 -70.5 -103.5t-95.5 -40.5q-54 0 -54 55q0 26 10 57l34 114h-2q-129 -226 -258 -226q-48 0 -72 34.5t-24 84.5zM264 621q0 27 17 44t42 17q22 0 35 -14.5t13 -34.5q0 -26 -16 -43.5t-42 -17.5q-23 0 -36 13.5t-13 35.5zM472 621q0 27 17 44t42 17 q22 0 35 -14.5t13 -34.5q0 -26 -16 -43.5t-42 -17.5q-23 0 -36 13.5t-13 35.5z"/>
<glyph glyph-name="aring" horiz-adv-x="561" unicode="å" d="M165 110q0 -70 44 -70q65 0 165 152q72 108 107 253q-24 22 -61 22q-55 0 -105.5 -40t-81.5 -97.5t-49.5 -117t-18.5 -102.5zM66 107q0 41 13.5 91.5t42.5 104.5t69 98t99.5 72.5t127.5 28.5q43 0 73 -21l5 13h84l-106 -399q-6 -19 -6 -34q0 -21 16 -21q19 0 45 35t45 71 l24 -14q-28 -63 -70.5 -103.5t-95.5 -40.5q-54 0 -54 55q0 26 10 57l34 114h-2q-129 -226 -258 -226q-48 0 -72 34.5t-24 84.5zM359 636q0 -26 11.5 -39.5t29.5 -13.5q25 0 40 19t18 36t3 33q0 22 -11.5 35t-28.5 13q-32 0 -47 -28.5t-15 -54.5zM302 636q0 16 5 33t16.5 37 t37.5 33t62 13q40 0 67.5 -24t27.5 -67q0 -44 -28 -77.5t-92 -33.5q-42 0 -69 22.5t-27 63.5z"/>
<glyph glyph-name="ae" horiz-adv-x="779" unicode="æ" d="M509 226q118 25 173.5 74.5t55.5 106.5q0 27 -15.5 43.5t-42.5 16.5q-58 0 -108 -73.5t-63 -167.5zM168 110q0 -70 41 -70q35 0 81.5 45.5t89.5 114.5q68 109 101 236q-24 19 -64 19q-70 0 -130 -64.5t-89.5 -143t-29.5 -137.5zM69 107q0 38 13 86t41.5 100.5t68 96 t100 72t129.5 28.5q39 0 78 -17l35 41h37l-25 -74l2 -2q71 64 157 64q61 0 94 -29t33 -71q0 -48 -44 -92q-78 -74 -281 -118q0 -2 -0.5 -7.5t-0.5 -8.5q0 -139 90 -139q35 0 69 20.5t53 42t42 52.5l23 -21q-88 -143 -229 -143q-26 0 -48.5 6.5t-46 22.5t-37.5 50.5t-14 84.5 q0 3 4 43h-2q-30 -51 -63.5 -93.5t-84 -78t-98.5 -35.5q-47 0 -71 34.5t-24 84.5z"/>
<glyph glyph-name="ccedilla" horiz-adv-x="441" unicode="ç" d="M81 148q0 84 34.5 164t102.5 135t153 55q56 0 92.5 -25.5t36.5 -63.5q0 -23 -22 -39.5t-42 -16.5q-26 0 -29 30q-8 80 -60 80q-44 0 -83.5 -48t-61.5 -116.5t-22 -134.5q0 -61 19 -96t69 -35q74 0 160 117l24 -19q-73 -123 -185 -143l-38 -52q31 -4 52.5 -26.5 t21.5 -53.5q0 -5 -2 -17q-7 -33 -38.5 -53t-72.5 -20t-66 10l4 24q18 -2 26 -2q72 0 72 51q0 21 -15 36t-40 16l-3 9l52 74q-59 1 -99 39t-40 121z"/>
<glyph glyph-name="egrave" horiz-adv-x="453" unicode="è" d="M193 680q0 14 13.5 28.5t25.5 14.5q24 0 64 -41l119 -120l-15 -20l-151 84q-56 30 -56 54zM182 226q119 25 174.5 74.5t55.5 107.5q0 26 -16 42.5t-42 16.5q-58 0 -108.5 -73.5t-63.5 -167.5zM80 152q0 134 83 236q92 114 219 114q59 0 91.5 -29t32.5 -71q0 -54 -42 -96 q-78 -72 -284 -114q-1 -7 -1 -16q0 -139 91 -139q27 0 51.5 10.5t46.5 30t35.5 35t31.5 38.5l23 -20q-88 -143 -229 -143q-25 0 -48 6.5t-47.5 22.5t-39 50.5t-14.5 84.5z"/>
<glyph glyph-name="eacute" horiz-adv-x="453" unicode="é" d="M182 226q119 25 174.5 74.5t55.5 107.5q0 26 -16 42.5t-42 16.5q-58 0 -108.5 -73.5t-63.5 -167.5zM80 152q0 134 83 236q92 114 219 114q59 0 91.5 -29t32.5 -71q0 -54 -42 -96q-78 -72 -284 -114q-1 -7 -1 -16q0 -139 91 -139q27 0 51.5 10.5t46.5 30t35.5 35 t31.5 38.5l23 -20q-88 -143 -229 -143q-25 0 -48 6.5t-47.5 22.5t-39 50.5t-14.5 84.5zM296 562l119 120q40 41 64 41q12 0 25.5 -14.5t13.5 -28.5q0 -24 -56 -54l-151 -84z"/>
<glyph glyph-name="ecircumflex" horiz-adv-x="453" unicode="ê" d="M182 226q119 25 174.5 74.5t55.5 107.5q0 26 -16 42.5t-42 16.5q-58 0 -108.5 -73.5t-63.5 -167.5zM80 152q0 134 83 236q92 114 219 114q59 0 91.5 -29t32.5 -71q0 -54 -42 -96q-78 -72 -284 -114q-1 -7 -1 -16q0 -139 91 -139q27 0 51.5 10.5t46.5 30t35.5 35 t31.5 38.5l23 -20q-88 -143 -229 -143q-25 0 -48 6.5t-47.5 22.5t-39 50.5t-14.5 84.5zM213 567l138 129q28 24 40 24t30 -24l89 -129l-23 -21l-85 75q-19 15 -28 15q-10 0 -32 -15l-115 -75z"/>
<glyph glyph-name="edieresis" horiz-adv-x="453" unicode="ë" d="M182 226q119 25 174.5 74.5t55.5 107.5q0 26 -16 42.5t-42 16.5q-58 0 -108.5 -73.5t-63.5 -167.5zM80 152q0 134 83 236q92 114 219 114q59 0 91.5 -29t32.5 -71q0 -54 -42 -96q-78 -72 -284 -114q-1 -7 -1 -16q0 -139 91 -139q27 0 51.5 10.5t46.5 30t35.5 35 t31.5 38.5l23 -20q-88 -143 -229 -143q-25 0 -48 6.5t-47.5 22.5t-39 50.5t-14.5 84.5zM210 621q0 27 17 44t42 17q22 0 35 -14.5t13 -34.5q0 -26 -16 -43.5t-42 -17.5q-23 0 -36 13.5t-13 35.5zM418 621q0 27 17 44t42 17q22 0 35 -14.5t13 -34.5q0 -26 -16 -43.5 t-42 -17.5q-23 0 -36 13.5t-13 35.5z"/>
<glyph glyph-name="igrave" horiz-adv-x="317" unicode="ì" d="M130 680q0 14 13.5 28.5t25.5 14.5q24 0 64 -41l119 -120l-15 -20l-151 84q-56 30 -56 54zM120 86l84 313q5 18 5 26q0 19 -26 20l-57 5l6 24l182 28l5 -5l-109 -402q-6 -19 -6 -34q0 -21 16 -21q19 0 45 35t45 71l24 -14q-28 -63 -69.5 -103.5t-92.5 -40.5q-58 0 -58 58 q0 19 6 40z"/>
<glyph glyph-name="iacute" horiz-adv-x="317" unicode="í" d="M193 562l119 120q40 41 64 41q12 0 25.5 -14.5t13.5 -28.5q0 -24 -56 -54l-151 -84zM120 86l84 313q5 18 5 26q0 19 -26 20l-57 5l6 24l182 28l5 -5l-109 -402q-6 -19 -6 -34q0 -21 16 -21q19 0 45 35t45 71l24 -14q-28 -63 -69.5 -103.5t-92.5 -40.5q-58 0 -58 58 q0 19 6 40z"/>
<glyph glyph-name="icircumflex" horiz-adv-x="317" unicode="î" d="M120 86l84 313q5 18 5 26q0 19 -26 20l-57 5l6 24l182 28l5 -5l-109 -402q-6 -19 -6 -34q0 -21 16 -21q19 0 45 35t45 71l24 -14q-28 -63 -69.5 -103.5t-92.5 -40.5q-58 0 -58 58q0 19 6 40zM121 567l138 129q28 24 40 24t30 -24l89 -129l-23 -21l-85 75q-19 15 -28 15 q-10 0 -32 -15l-115 -75z"/>
<glyph glyph-name="idieresis" horiz-adv-x="317" unicode="ï" d="M118 621q0 27 17 44t42 17q22 0 35 -14.5t13 -34.5q0 -26 -16 -43.5t-42 -17.5q-23 0 -36 13.5t-13 35.5zM326 621q0 27 17 44t42 17q22 0 35 -14.5t13 -34.5q0 -26 -16 -43.5t-42 -17.5q-23 0 -36 13.5t-13 35.5zM120 86l84 313q5 18 5 26q0 19 -26 20l-57 5l6 24 l182 28l5 -5l-109 -402q-6 -19 -6 -34q0 -21 16 -21q19 0 45 35t45 71l24 -14q-28 -63 -69.5 -103.5t-92.5 -40.5q-58 0 -58 58q0 19 6 40z"/>
<glyph glyph-name="eth" horiz-adv-x="537" unicode="ð" d="M179 125q0 -50 23.5 -76t67.5 -26q39 0 72 28.5t54 70.5t36 91t21 89t6 65q0 51 -19.5 75.5t-62.5 24.5q-48 0 -87.5 -37t-62.5 -92.5t-35.5 -111.5t-12.5 -101zM82 169q0 29 8 67t29.5 86t53.5 87t87.5 66t123.5 27q12 0 35 -7v3q-16 38 -63 96l-134 -60l-23 32l132 59 q-47 55 -92 94v6l38 17q52 -36 110 -92l128 57l23 -32l-122 -54q48 -50 70 -84q36 -54 53 -101.5t17 -110.5q0 -35 -8.5 -76.5t-30.5 -88.5t-54.5 -84.5t-86 -62.5t-118.5 -25q-86 0 -131 49t-45 132z"/>
<glyph glyph-name="ntilde" horiz-adv-x="618" unicode="ñ" d="M98 -12l105 409q6 24 6 29q0 18 -21 19l-62 5l6 24l183 28l5 -5l-65 -218h3q48 93 119.5 158t140.5 65q81 0 81 -81q0 -31 -10 -64l-78 -262q-6 -19 -6 -34q0 -21 16 -21q19 0 45 35t45 71l24 -14q-28 -63 -70 -103.5t-95 -40.5q-57 0 -57 57q0 19 6 41l86 293q4 13 4 29 q0 42 -37 42q-38 0 -83 -41.5t-77.5 -92t-53.5 -98.5q-31 -74 -72 -218zM239 576q11 22 18 33.5t21 29.5t32 26.5t41 8.5q28 0 79 -19q59 -19 76 -19q20 0 33 9t35 37l20 -11q-25 -49 -47.5 -72t-56.5 -23q-19 0 -80 19q-55 19 -80 19q-24 0 -39.5 -11.5t-32.5 -39.5z"/>
<glyph glyph-name="ograve" horiz-adv-x="537" unicode="ò" d="M235 680q0 14 13.5 28.5t25.5 14.5q24 0 64 -41l119 -120l-15 -20l-151 84q-56 30 -56 54zM181 129q0 -106 90 -106q39 0 72 28.5t54 70t36 90.5t21 87.5t6 62.5q0 105 -83 105q-47 0 -86 -37t-62 -92t-35.5 -110.5t-12.5 -98.5zM84 169q0 30 7.5 68t28 86t52 87 t85.5 65.5t121 26.5q33 0 62.5 -8.5t57 -27t43.5 -54.5t16 -85q0 -112 -63 -211q-81 -128 -226 -128q-91 0 -137.5 49t-46.5 132z"/>
<glyph glyph-name="oacute" horiz-adv-x="537" unicode="ó" d="M181 129q0 -106 90 -106q39 0 72 28.5t54 70t36 90.5t21 87.5t6 62.5q0 105 -83 105q-47 0 -86 -37t-62 -92t-35.5 -110.5t-12.5 -98.5zM84 169q0 30 7.5 68t28 86t52 87t85.5 65.5t121 26.5q33 0 62.5 -8.5t57 -27t43.5 -54.5t16 -85q0 -112 -63 -211 q-81 -128 -226 -128q-91 0 -137.5 49t-46.5 132zM318 562l119 120q40 41 64 41q12 0 25.5 -14.5t13.5 -28.5q0 -24 -56 -54l-151 -84z"/>
<glyph glyph-name="ocircumflex" horiz-adv-x="537" unicode="ô" d="M181 129q0 -106 90 -106q39 0 72 28.5t54 70t36 90.5t21 87.5t6 62.5q0 105 -83 105q-47 0 -86 -37t-62 -92t-35.5 -110.5t-12.5 -98.5zM84 169q0 30 7.5 68t28 86t52 87t85.5 65.5t121 26.5q33 0 62.5 -8.5t57 -27t43.5 -54.5t16 -85q0 -112 -63 -211 q-81 -128 -226 -128q-91 0 -137.5 49t-46.5 132zM239 567l138 129q28 24 40 24t30 -24l89 -129l-23 -21l-85 75q-19 15 -28 15q-10 0 -32 -15l-115 -75z"/>
<glyph glyph-name="otilde" horiz-adv-x="537" unicode="õ" d="M181 129q0 -106 90 -106q39 0 72 28.5t54 70t36 90.5t21 87.5t6 62.5q0 105 -83 105q-47 0 -86 -37t-62 -92t-35.5 -110.5t-12.5 -98.5zM84 169q0 30 7.5 68t28 86t52 87t85.5 65.5t121 26.5q33 0 62.5 -8.5t57 -27t43.5 -54.5t16 -85q0 -112 -63 -211 q-81 -128 -226 -128q-91 0 -137.5 49t-46.5 132zM205 576q11 22 18 33.5t21 29.5t32 26.5t41 8.5q28 0 79 -19q59 -19 76 -19q20 0 33 9t35 37l20 -11q-25 -49 -47.5 -72t-56.5 -23q-19 0 -80 19q-55 19 -80 19q-24 0 -39.5 -11.5t-32.5 -39.5z"/>
<glyph glyph-name="odieresis" horiz-adv-x="537" unicode="ö" d="M181 129q0 -106 90 -106q39 0 72 28.5t54 70t36 90.5t21 87.5t6 62.5q0 105 -83 105q-47 0 -86 -37t-62 -92t-35.5 -110.5t-12.5 -98.5zM84 169q0 30 7.5 68t28 86t52 87t85.5 65.5t121 26.5q33 0 62.5 -8.5t57 -27t43.5 -54.5t16 -85q0 -112 -63 -211 q-81 -128 -226 -128q-91 0 -137.5 49t-46.5 132zM252 621q0 27 17 44t42 17q22 0 35 -14.5t13 -34.5q0 -26 -16 -43.5t-42 -17.5q-23 0 -36 13.5t-13 35.5zM460 621q0 27 17 44t42 17q22 0 35 -14.5t13 -34.5q0 -26 -16 -43.5t-42 -17.5q-23 0 -36 13.5t-13 35.5z"/>
<glyph glyph-name="divide" horiz-adv-x="570" unicode="÷" d="M93 221v58h484v-58h-484zM275 416q0 24 17.5 41t42.5 17q24 0 40.5 -17t16.5 -41q0 -25 -16.5 -42.5t-40.5 -17.5q-25 0 -42.5 17t-17.5 43zM275 86q0 24 17.5 41t42.5 17q24 0 40.5 -17t16.5 -41q0 -25 -16.5 -42.5t-40.5 -17.5q-25 0 -42.5 17t-17.5 43z"/>
<glyph glyph-name="oslash" horiz-adv-x="537" unicode="ø" d="M194 60q22 -37 77 -37q40 0 74.5 28.5t55.5 70t36 90.5t21.5 87.5t6.5 62.5q0 14 -4 34zM176 129q0 -3 3 -27l266 336q-21 29 -68 29q-48 0 -88.5 -37t-64 -92t-36 -110t-12.5 -99zM84 169q0 30 7.5 68t28 86t52 87t85.5 65.5t121 26.5q58 0 99 -23l40 50l29 -25l-38 -48 q49 -44 49 -129q0 -112 -63 -211q-81 -128 -226 -128q-67 0 -109 28l-44 -55l-27 27l41 51q-45 48 -45 130z"/>
<glyph glyph-name="ugrave" horiz-adv-x="618" unicode="ù" d="M250 680q0 14 13.5 28.5t25.5 14.5q24 0 64 -41l119 -120l-15 -20l-151 84q-56 30 -56 54zM126 450l6 24l182 28l5 -5l-96 -369q-7 -27 -7 -47q0 -41 32 -41q57 0 116 72t98 162q29 68 71 216l89 12l-107 -408q-5 -20 -5 -31q0 -23 18 -23q30 0 92 106l24 -15 q-29 -61 -72.5 -102t-94.5 -41q-54 0 -54 56q0 25 8 52l33 114h-2q-48 -93 -120 -157.5t-141 -64.5q-77 0 -77 79q0 26 10 66l69 264q5 20 5 29q0 18 -20 19z"/>
<glyph glyph-name="uacute" horiz-adv-x="618" unicode="ú" d="M126 450l6 24l182 28l5 -5l-96 -369q-7 -27 -7 -47q0 -41 32 -41q57 0 116 72t98 162q29 68 71 216l89 12l-107 -408q-5 -20 -5 -31q0 -23 18 -23q30 0 92 106l24 -15q-29 -61 -72.5 -102t-94.5 -41q-54 0 -54 56q0 25 8 52l33 114h-2q-48 -93 -120 -157.5t-141 -64.5 q-77 0 -77 79q0 26 10 66l69 264q5 20 5 29q0 18 -20 19zM363 562l119 120q40 41 64 41q12 0 25.5 -14.5t13.5 -28.5q0 -24 -56 -54l-151 -84z"/>
<glyph glyph-name="ucircumflex" horiz-adv-x="618" unicode="û" d="M126 450l6 24l182 28l5 -5l-96 -369q-7 -27 -7 -47q0 -41 32 -41q57 0 116 72t98 162q29 68 71 216l89 12l-107 -408q-5 -20 -5 -31q0 -23 18 -23q30 0 92 106l24 -15q-29 -61 -72.5 -102t-94.5 -41q-54 0 -54 56q0 25 8 52l33 114h-2q-48 -93 -120 -157.5t-141 -64.5 q-77 0 -77 79q0 26 10 66l69 264q5 20 5 29q0 18 -20 19zM271 567l138 129q28 24 40 24t30 -24l89 -129l-23 -21l-85 75q-19 15 -28 15t-32 -15l-115 -75z"/>
<glyph glyph-name="udieresis" horiz-adv-x="618" unicode="ü" d="M126 450l6 24l182 28l5 -5l-96 -369q-7 -27 -7 -47q0 -41 32 -41q57 0 116 72t98 162q29 68 71 216l89 12l-107 -408q-5 -20 -5 -31q0 -23 18 -23q30 0 92 106l24 -15q-29 -61 -72.5 -102t-94.5 -41q-54 0 -54 56q0 25 8 52l33 114h-2q-48 -93 -120 -157.5t-141 -64.5 q-77 0 -77 79q0 26 10 66l69 264q5 20 5 29q0 18 -20 19zM280 621q0 27 17 44t42 17q22 0 35 -14.5t13 -34.5q0 -26 -16 -43.5t-42 -17.5q-23 0 -36 13.5t-13 35.5zM488 621q0 27 17 44t42 17q22 0 35 -14.5t13 -34.5q0 -26 -16 -43.5t-42 -17.5q-23 0 -36 13.5t-13 35.5z "/>
<glyph glyph-name="yacute" horiz-adv-x="468" unicode="ý" d="M-5 -187q0 22 16 40.5t35 19.5q17 0 35 -24q23 -31 41 -31q15 0 32.5 19.5t31.5 51.5q24 58 24 124q0 116 -33 350q-6 41 -12 54.5t-21 13.5h-2l-68 -2l-3 25l168 48l8 -4q26 -137 40 -437h3q122 210 141 278q13 47 13 122v16q37 25 78 25q4 0 8 -6.5t7 -20t3 -29.5 q0 -8 -3 -19.5t-11 -28t-15 -30t-20.5 -36.5t-21.5 -36.5t-25 -41t-24 -39.5q-28 -45 -57.5 -96t-55 -95t-29.5 -51q-33 -57 -48.5 -82.5t-38 -57.5t-39 -44.5t-38 -21.5t-46.5 -9q-32 0 -52.5 17t-20.5 38zM303 562l119 120q40 41 64 41q12 0 25.5 -14.5t13.5 -28.5 q0 -24 -56 -54l-151 -84z"/>
<glyph glyph-name="thorn" horiz-adv-x="584" unicode="þ" d="M205 53q35 -30 88 -30q57 0 103 42t70.5 101.5t37 112.5t12.5 88q0 83 -54 83q-40 0 -89.5 -48t-88.5 -116q-49 -87 -79 -233zM51 -242l183 837q4 20 4 26q0 21 -22 22l-62 5l6 24l181 28l5 -5l-97 -409h3q55 103 123.5 159.5t128.5 56.5q111 0 111 -134q0 -27 -8.5 -69 t-31.5 -97.5t-56 -102t-90 -79t-126 -32.5q-72 0 -108 22l-55 -240z"/>
<glyph glyph-name="OE" horiz-adv-x="1020" unicode="Œ" d="M222 274q0 -124 66 -181.5t173 -57.5q53 0 75.5 12t32.5 56l112 492q4 22 4 27q0 21 -21 28t-81 7q-74 0 -135 -22.5t-102 -60.5t-69.5 -87.5t-41.5 -103t-13 -109.5zM114 293q0 109 64 210q57 90 150.5 138.5t251.5 50.5h536l-38 -167h-30q4 40 4 54q0 42 -24 60t-94 18 h-121q-13 0 -18.5 -5.5t-9.5 -23.5l-57 -249h131q44 0 66.5 8t33.5 23.5t25 53.5h30l-46 -209h-30q1 10 1 27q0 34 -17 46.5t-71 12.5h-131l-51 -219q-7 -29 -7 -46q0 -18 12 -28q17 -13 112 -13q96 0 139 26t80 115h30l-51 -176h-512q-180 0 -269 71.5t-89 221.5z"/>
<glyph glyph-name="oe" horiz-adv-x="806" unicode="œ" d="M535 226q119 25 174.5 74.5t55.5 107.5q0 26 -16 42.5t-42 16.5q-58 0 -108.5 -73.5t-63.5 -167.5zM181 129q0 -106 90 -106q39 0 72 28.5t54 70t36 90.5t21 87.5t6 62.5q0 105 -83 105q-47 0 -86 -37t-62 -92t-35.5 -110.5t-12.5 -98.5zM84 169q0 30 7.5 68t28 86t52 87 t85.5 65.5t121 26.5q48 0 93 -25t63 -80q90 105 201 105q59 0 91.5 -29t32.5 -71q0 -54 -42 -96q-78 -72 -284 -114q-1 -7 -1 -16q0 -139 91 -139q27 0 51.5 10.5t46.5 30t35.5 35t31.5 38.5l23 -20q-88 -143 -229 -143q-38 0 -74.5 20t-52.5 71q-79 -91 -189 -91 q-90 0 -136 49t-46 132z"/>
<glyph glyph-name="Scaron" horiz-adv-x="533" unicode="Š" d="M69 67l26 153h29v-14q0 -89 47.5 -137.5t118.5 -48.5t111 43.5t40 101.5q0 57 -31.5 93t-96.5 69q-69 33 -107 75t-38 107q0 34 12 67t37 63.5t72 49t109 18.5q114 0 179 -51l-36 -140h-29q2 24 2 35q0 121 -123 121q-64 0 -101.5 -36t-37.5 -91q0 -22 9 -41.5 t18.5 -31.5t32 -27t32.5 -20.5t37 -19.5q78 -40 114 -86.5t36 -112.5q0 -43 -13 -80t-40.5 -69.5t-78.5 -51.5t-121 -20q-59 0 -120 22.5t-89 59.5zM290 869l18 19l90 -60q23 -15 32 -15q10 0 36 14l117 61l13 -20l-140 -111q-28 -23 -42 -23q-13 0 -33 25z"/>
<glyph glyph-name="scaron" horiz-adv-x="389" unicode="š" d="M54 83q0 21 15 37.5t37 16.5q23 0 32 -30q12 -39 37 -61.5t53 -22.5q32 0 52 20t20 55q0 62 -69 117q-88 71 -88 140q0 63 44 105t118 42q61 0 94 -25t33 -53q0 -21 -15.5 -33.5t-32.5 -12.5q-20 0 -28 20q-31 69 -80 69q-27 0 -44.5 -20t-17.5 -45q0 -52 71 -110 q50 -41 71 -76t21 -77q0 -64 -47 -107.5t-126 -43.5q-67 0 -108.5 30t-41.5 65zM195 710l23 21l85 -75q19 -15 28 -15t32 15l115 75l14 -21l-138 -129q-28 -24 -40 -24t-30 24z"/>
<glyph glyph-name="Ydieresis" horiz-adv-x="591" unicode="Ÿ" d="M131 663l6 29h249l-6 -29l-55 -5q-20 -3 -20 -18q0 -7 1 -11l91 -307h3q150 203 211 308q5 10 5 15q0 13 -20 14l-52 4l6 29h229l-6 -29q-42 -3 -60 -12t-45 -39q-93 -106 -230 -305q-20 -27 -28 -60l-38 -169q-2 -7 -2 -18q0 -22 25 -25l76 -6l-6 -29h-310l6 29l72 7 q19 2 27.5 11.5t13.5 30.5l38 168q4 20 4 28q0 9 -4 25q-77 258 -98 318q-10 29 -22.5 35.5t-60.5 10.5zM304 787q0 27 17 44t42 17q22 0 35 -14.5t13 -34.5q0 -26 -16 -43.5t-42 -17.5q-23 0 -36 13.5t-13 35.5zM512 787q0 27 17 44t42 17q22 0 35 -14.5t13 -34.5 q0 -26 -16 -43.5t-42 -17.5q-23 0 -36 13.5t-13 35.5z"/>
<glyph glyph-name="circumflex" horiz-adv-x="400" unicode="ˆ" d="M222 567l138 129q28 24 40 24t30 -24l89 -129l-23 -21l-85 75q-19 15 -28 15t-32 -15l-115 -75z"/>
<glyph glyph-name="tilde" horiz-adv-x="400" unicode="˜" d="M172 576q11 22 18 33.5t21 29.5t32 26.5t41 8.5q28 0 79 -19q59 -19 76 -19q20 0 33 9t35 37l20 -11q-25 -49 -47.5 -72t-56.5 -23q-19 0 -80 19q-55 19 -80 19q-24 0 -39.5 -11.5t-32.5 -39.5z"/>
<glyph glyph-name="uni2002" horiz-adv-x="500" unicode=" "/>
<glyph glyph-name="uni2003" horiz-adv-x="1000" unicode=" "/>
<glyph glyph-name="uni2009" horiz-adv-x="200" unicode=" "/>
<glyph glyph-name="afii61664" horiz-adv-x="0" unicode="‌"/>
<glyph glyph-name="afii301" horiz-adv-x="0" unicode="‍"/>
<glyph glyph-name="endash" horiz-adv-x="500" unicode="–" d="M47 221l12 58h500l-12 -58h-500z"/>
<glyph glyph-name="emdash" horiz-adv-x="1000" unicode="—" d="M47 221l12 58h1000l-12 -58h-1000z"/>
<glyph glyph-name="quoteleft" horiz-adv-x="216" unicode="‘" d="M165 552q0 24 10 49.5t19.5 41t35.5 41t34 32t38 32.5l16 -17q-62 -60 -67 -108v-8q0 -15 10 -39q12 -29 12 -38q0 -20 -15.5 -35t-37.5 -15h-3q-23 0 -37.5 20t-14.5 44z"/>
<glyph glyph-name="quotesinglbase" horiz-adv-x="216" unicode="‚" d="M28 -92q62 60 67 108v8q0 15 -10 39q-12 29 -12 38q0 20 15.5 35t37.5 15h3q23 0 37.5 -20t14.5 -44t-10 -49.5t-19.5 -41t-35.5 -41t-34 -32t-38 -32.5z"/>
<glyph glyph-name="quotedblleft" horiz-adv-x="402" unicode="“" d="M169 552q0 24 10 49.5t19.5 41t35.5 41t34 32t38 32.5l16 -17q-62 -60 -67 -108v-8q0 -15 10 -39q12 -29 12 -38q0 -20 -15.5 -35t-37.5 -15h-3q-23 0 -37.5 20t-14.5 44zM355 552q0 24 10 49.5t19.5 41t35.5 41t34 32t38 32.5l16 -17q-62 -60 -67 -108v-8q0 -15 10 -39 q12 -29 12 -38q0 -20 -15.5 -35t-37.5 -15h-3q-23 0 -37.5 20t-14.5 44z"/>
<glyph glyph-name="quotedblright" horiz-adv-x="402" unicode="”" d="M142 501q62 60 67 108v8q0 15 -10 39q-12 29 -12 38q0 20 15.5 35t37.5 15h3q23 0 37.5 -20t14.5 -44t-10 -49.5t-19.5 -41t-35.5 -41t-34 -32t-38 -32.5zM328 501q62 60 67 108v8q0 15 -10 39q-12 29 -12 38q0 20 15.5 35t37.5 15h3q23 0 37.5 -20t14.5 -44t-10 -49.5 t-19.5 -41t-35.5 -41t-34 -32t-38 -32.5z"/>
<glyph glyph-name="dagger" horiz-adv-x="500" unicode="†" d="M138 463q7 35 34 35q12 0 62 -8t94 -11q3 42 5.5 91t4 74.5t4.5 36.5q7 36 56 36q43 0 43 -26q0 -6 -1 -10q-3 -12 -12 -37t-27.5 -74.5t-32.5 -90.5q47 3 100 11t64 8q22 0 22 -20q0 -3 -2 -15q-7 -35 -34 -35q-11 0 -61 8t-95 11q5 -62 5 -75q0 -28 -6 -56 q-3 -14 -20.5 -72.5t-48 -162.5t-56.5 -206h-28q17 104 30 206t20 162.5t9 72.5q8 37 55 131q-46 -3 -99.5 -11t-64.5 -8q-22 0 -22 20q0 3 2 15z"/>
<glyph glyph-name="daggerdbl" horiz-adv-x="490" unicode="‡" d="M75 146q7 33 34 33q10 0 62.5 -8t84.5 -9q5 53 7 100t5 65q4 19 10 35.5t19.5 48.5t20.5 50q-32 -1 -87.5 -9t-65.5 -8q-22 0 -22 19q0 4 2 14q6 33 34 33q10 0 62.5 -8t83.5 -9q3 36 5 79t3.5 70t4.5 40q7 35 50 35h6h6q37 0 37 -26q0 -6 -1 -9q-3 -13 -13 -40t-26 -70 t-28 -79q32 1 88 9t66 8q21 0 21 -20q0 -8 -1 -13q-7 -33 -34 -33q-10 0 -62.5 8t-84.5 9v-23v-43q0 -39 -6 -68q-3 -16 -9 -33t-19.5 -53.5t-27.5 -78.5q32 1 87.5 9t65.5 8q22 0 22 -19q0 -4 -2 -14q-6 -33 -33 -33q-10 0 -62.5 8t-84.5 9q-4 -44 -7.5 -93.5t-5.5 -78.5 t-5 -42q-7 -35 -50 -35h-6h-6q-37 0 -37 26q0 6 1 9q3 13 13 42t27.5 78t31.5 94q-32 -1 -87.5 -9t-65.5 -8q-22 0 -22 21q0 7 1 12z"/>
<glyph glyph-name="ellipsis" horiz-adv-x="1000" unicode="…" d="M120 45q0 31 18 49.5t47 18.5q26 0 41.5 -16.5t15.5 -39.5q0 -31 -18 -50t-47 -19q-26 0 -41.5 16t-15.5 41zM453 45q0 31 18 49.5t47 18.5q26 0 41.5 -16.5t15.5 -39.5q0 -31 -18 -50t-47 -19q-26 0 -41.5 16t-15.5 41zM786 45q0 31 18 49.5t47 18.5q26 0 41.5 -16.5 t15.5 -39.5q0 -31 -18 -50t-47 -19q-26 0 -41.5 16t-15.5 41z"/>
<glyph glyph-name="perthousand" horiz-adv-x="1200" unicode="‰" d="M572 98q0 -80 63 -80q33 0 58 28t37 68.5t17.5 74t5.5 55.5q0 80 -59 80q-31 0 -56 -28t-38.5 -67.5t-20.5 -74t-7 -56.5zM495 121q0 35 11 73t33 75t63 61t93 24q67 0 101 -38t34 -99q0 -27 -6 -55.5t-20.5 -60t-35.5 -56.5t-56 -41t-78 -16q-71 0 -105 39t-34 94z M210 424q0 -80 63 -80q33 0 58 28t37 68.5t17.5 74t5.5 55.5q0 80 -59 80q-31 0 -56 -28t-38.5 -67.5t-20.5 -74t-7 -56.5zM133 447q0 35 11 73t33 75t63 61t93 24q59 0 107 -36q16 -13 46 -13h179q42 3 85 46l25 25l30 -24l-605 -703l-31 28l510 594h-216q5 -19 5 -54 q0 -27 -6 -55.5t-20.5 -60t-35.5 -56.5t-56 -41t-78 -16q-71 0 -105 39t-34 94zM947 98q0 -80 63 -80q33 0 58 28t37 68.5t17.5 74t5.5 55.5q0 80 -59 80q-31 0 -56 -28t-38.5 -67.5t-20.5 -74t-7 -56.5zM870 121q0 35 11 73t33 75t63 61t93 24q67 0 101 -38t34 -99 q0 -27 -6 -55.5t-20.5 -60t-35.5 -56.5t-56 -41t-78 -16q-71 0 -105 39t-34 94z"/>
<glyph glyph-name="minute" horiz-adv-x="280" unicode="′" d="M175 481l59 182q13 40 20 55q14 32 33 32q15 0 26.5 -9.5t11.5 -20.5q0 -10 -9 -30q-8 -19 -27 -51l-96 -166z"/>
<glyph glyph-name="second" horiz-adv-x="436" unicode="″" d="M331 481l59 182q13 40 20 55q14 32 33 32q15 0 26.5 -9.5t11.5 -20.5q0 -10 -9 -30q-8 -19 -27 -51l-96 -166zM175 481l59 182q13 40 20 55q14 32 33 32q15 0 26.5 -9.5t11.5 -20.5q0 -10 -9 -30q-8 -19 -27 -51l-96 -166z"/>
<glyph glyph-name="guilsinglleft" horiz-adv-x="277" unicode="‹" d="M109 223q-3 6 -3 12q0 12 7 19l169 181l20 -17l-102 -163q-6 -11 -6 -21q0 -8 2 -13l55 -165l-23 -15z"/>
<glyph glyph-name="guilsinglright" horiz-adv-x="277" unicode="›" d="M79 58l102 163q6 11 6 21q0 8 -2 13l-55 165l23 15l119 -182q3 -6 3 -12q0 -12 -7 -19l-169 -181z"/>
<glyph glyph-name="fraction" horiz-adv-x="100" unicode="⁄" d="M-166 6l536 692l34 -27l-537 -695z"/>
<glyph glyph-name="Euro" d="M68 280l16 35h53q6 33 15 65h-61l16 35h56q40 115 117.5 190t192.5 75q107 0 160 -28l-32 -135h-30q0 81 -23.5 104.5t-84.5 23.5q-63 0 -115.5 -64.5t-87.5 -165.5h241l-16 -35h-236q-13 -49 -17 -65h224l-16 -35h-215q-9 -56 -9 -103q0 -65 24.5 -109.5t82.5 -44.5 q111 0 186 154h30l-48 -151q-106 -38 -170 -38q-89 0 -142 54.5t-53 166.5q0 28 5 71h-63z" unicode="€"/>
<glyph glyph-name="trademark" horiz-adv-x="1100" unicode="™" d="M542 277v23q30 2 42.5 8t14.5 23q3 30 3 74v225q0 23 -8.5 29t-47.5 10v23h152q9 -22 73 -160l67 -142h2l67 143q58 124 73 159h149v-23q-39 -4 -47.5 -10t-8.5 -29v-291q0 -24 8.5 -30t47.5 -9v-23h-188v23q39 3 47.5 9t8.5 30v298h-4l-167 -349h-21l-166 349h-4v-232 q0 -34 4 -74q2 -17 16 -22.5t54 -8.5v-23h-167zM126 591v101h381v-101h-21q-8 47 -25.5 60.5t-70.5 13.5h-34v-326q0 -24 10.5 -30t58.5 -9v-23h-216v23q48 3 58.5 9t10.5 30v326h-32q-55 0 -73 -13.5t-26 -60.5h-21z"/>
<glyph glyph-name="minus" horiz-adv-x="570" unicode="−" d="M93 221v58h484v-58h-484z"/>
</font>
</defs>
</svg>
